{
copyright = "Created by Jordan Humphreys with FontForge 2.0 (http://fontforge.sf.net)";
customParameters = (
{
name = vendorID;
value = PfEd;
},
{
name = glyphOrder;
value = (
    ".notdef",
    uni0000,
    uni000D,
    uniF100,
    uniF101,
    uniF102,
    uniF103,
    uniF104,
    uniF105,
    uniF106,
    uniF107,
    uniF108,
    uniF109,
    uniF10A,
    uniF10B,
    uniF10C,
    uniF10D,
    uniF10E,
    uniF10F,
    uniF110,
    uniF111,
    uniF112,
    uniF113,
    uniF114,
    uniF115,
    uniF116,
    uniF117,
    uniF118,
    uniF119,
    uniF11A,
    uniF11B,
    uniF11C,
    uniF11D,
    uniF11E,
    uniF11F,
    uniF120,
    uniF121,
    uniF122,
    uniF123,
    uniF124,
    uniF125,
    uniF126,
    uniF127,
    uniF128,
    uniF129,
    uniF12A,
    uniF12B,
    uniF12C,
    uniF12D,
    uniF12E,
    uniF12F,
    uniF130,
    uniF131,
    uniF132,
    uniF133,
    uniF134,
    uniF135,
    uniF136,
    uniF137,
    uniF138,
    uniF139,
    uniF13A,
    uniF13B,
    uniF13C,
    uniF13D,
    uniF13E,
    uniF13F,
    uniF140,
    uniF141,
    uniF142,
    uniF143,
    uniF144,
    uniF145,
    uniF146,
    uniF147,
    uniF148,
    uniF149,
    uniF14A,
    uniF14B,
    uniF14C,
    uniF14D,
    uniF14E,
    uniF14F,
    uniF150,
    uniF151,
    uniF152,
    uniF153,
    uniF154,
    uniF155,
    uniF156,
    uniF157,
    uniF158,
    uniF159,
    uniF15A,
    uniF15B,
    uniF15C,
    uniF15D,
    uniF15E,
    uniF15F,
    uniF160,
    uniF161,
    uniF162,
    uniF163,
    uniF164,
    uniF165,
    uniF166,
    uniF167,
    uniF168,
    uniF169,
    uniF16A,
    uniF16B,
    uniF16C,
    uniF16D,
    uniF16E,
    uniF16F,
    uniF170,
    uniF171,
    uniF172,
    uniF173,
    uniF174,
    uniF175,
    uniF176,
    uniF177,
    uniF178,
    uniF179,
    uniF17A,
    uniF17B,
    uniF17C,
    uniF17D,
    uniF17E,
    uniF17F,
    uniF180,
    uniF181,
    uniF182,
    uniF183,
    uniF184,
    uniF185,
    uniF186,
    uniF187,
    uniF188,

glyphs = (
{
glyphname = .notdef;
layers = (
{
layerId = "EBF4EA88-05C0-40D0-B291-B170F4B137C3";
name = Regular;
paths = (
{
closed = 1;
nodes = (
"17 0 LINE",
"17 341 LINE",
"153 341 LINE",
"153 0 LINE"
);
},
{
closed = 1;
nodes = (
"34 17 LINE",
"136 17 LINE",
"136 324 LINE",
"34 324 LINE"
);
}
);
width = 187;
}
);
},
{
glyphname = uniF100;
layers = (
{
layerId = "EBF4EA88-05C0-40D0-B291-B170F4B137C3";
name = Regular;
paths = (
{
closed = 1;
nodes = (
"306 287 LINE",
"306 257 LINE",
"330 257 LINE SMOOTH",
"337 257 OFFCURVE",
"340 254 OFFCURVE",
"340 247 CURVE SMOOTH",
"340 217 LINE SMOOTH",
"340 210 OFFCURVE",
"337 207 OFFCURVE",
"330 207 CURVE SMOOTH",
"306 207 LINE",
"306 178 LINE",
"330 178 LINE SMOOTH",
"337 178 OFFCURVE",
"340 174 OFFCURVE",
"340 167 CURVE SMOOTH",
"340 137 LINE SMOOTH",
"340 130 OFFCURVE",
"337 127 OFFCURVE",
"330 127 CURVE SMOOTH",
"306 127 LINE",
"306 98 LINE",
"330 98 LINE SMOOTH",
"337 98 OFFCURVE",
"340 94 OFFCURVE",
"340 87 CURVE SMOOTH",
"340 57 LINE SMOOTH",
"340 50 OFFCURVE",
"337 47 OFFCURVE",
"330 47 CURVE SMOOTH",
"306 47 LINE",
"306 38 LINE SMOOTH",
"306 27 OFFCURVE",
"301 22 OFFCURVE",
"290 22 CURVE SMOOTH",
"16 22 LINE SMOOTH",
"5 22 OFFCURVE",
"0 27 OFFCURVE",
"0 38 CURVE SMOOTH",
"0 346 LINE SMOOTH",
"0 357 OFFCURVE",
"5 362 OFFCURVE",
"16 362 CURVE SMOOTH",
"290 362 LINE SMOOTH",
"301 362 OFFCURVE",
"306 357 OFFCURVE",
"306 346 CURVE SMOOTH",
"306 337 LINE",
"330 337 LINE SMOOTH",
"337 337 OFFCURVE",
"340 334 OFFCURVE",
"340 327 CURVE SMOOTH",
"340 297 LINE SMOOTH",
"340 290 OFFCURVE",
"337 287 OFFCURVE",
"330 287 CURVE SMOOTH"
);
},
{
closed = 1;
nodes = (
"234 166 LINE SMOOTH",
"234 170 OFFCURVE",
"232 173 OFFCURVE",
"228 176 CURVE",
"173 202 LINE",
"187 211 OFFCURVE",
"194 225 OFFCURVE",
"194 244 CURVE SMOOTH",
"194 257 OFFCURVE",
"190 269 OFFCURVE",
"182 278 CURVE SMOOTH",
"174 287 OFFCURVE",
"164 292 OFFCURVE",
"153 292 CURVE SMOOTH",
"142 292 OFFCURVE",
"132 287 OFFCURVE",
"124 278 CURVE SMOOTH",
"116 269 OFFCURVE",
"112 257 OFFCURVE",
"112 244 CURVE SMOOTH",
"112 225 OFFCURVE",
"119 211 OFFCURVE",
"134 202 CURVE",
"78 176 LINE",
"75 174 OFFCURVE",
"73 171 OFFCURVE",
"73 166 CURVE SMOOTH",
"73 122 LINE SMOOTH",
"73 115 OFFCURVE",
"76 111 OFFCURVE",
"82 111 CURVE SMOOTH",
"224 111 LINE SMOOTH",
"231 111 OFFCURVE",
"234 115 OFFCURVE",
"234 122 CURVE SMOOTH"
);
}
);
width = 340;
}
);
unicode = F100;
},
{
glyphname = uniF101;
layers = (
{
layerId = "EBF4EA88-05C0-40D0-B291-B170F4B137C3";
name = Regular;
paths = (
{
closed = 1;
nodes = (
"423 31 LINE",
"424 28 OFFCURVE",
"425 26 OFFCURVE",
"425 24 CURVE SMOOTH",
"425 19 OFFCURVE",
"423 15 OFFCURVE",
"420 12 CURVE SMOOTH",
"416 8 OFFCURVE",
"411 6 OFFCURVE",
"406 6 CURVE SMOOTH",
"18 6 LINE SMOOTH",
"13 6 OFFCURVE",
"8 8 OFFCURVE",
"5 11 CURVE SMOOTH",
"2 14 OFFCURVE",
"0 19 OFFCURVE",
"0 24 CURVE SMOOTH",
"0 29 OFFCURVE",
"1 33 OFFCURVE",
"4 36 CURVE",
"195 367 LINE",
"196 367 LINE",
"200 374 OFFCURVE",
"205 378 OFFCURVE",
"212 378 CURVE SMOOTH",
"220 378 OFFCURVE",
"225 375 OFFCURVE",
"228 369 CURVE",
"421 35 LINE",
"421 34 OFFCURVE",
"421 34 OFFCURVE",
"422 34 CURVE",
"422 34 OFFCURVE",
"422 34 OFFCURVE",
"422 33 CURVE"
);
},
{
closed = 1;
nodes = (
"199 43 OFFCURVE",
"206 40 OFFCURVE",
"213 40 CURVE SMOOTH",
"220 40 OFFCURVE",
"227 43 OFFCURVE",
"232 48 CURVE SMOOTH",
"237 53 OFFCURVE",
"239 60 OFFCURVE",
"239 67 CURVE SMOOTH",
"239 74 OFFCURVE",
"237 81 OFFCURVE",
"232 86 CURVE SMOOTH",
"227 91 OFFCURVE",
"220 93 OFFCURVE",
"213 93 CURVE SMOOTH",
"206 93 OFFCURVE",
"199 91 OFFCURVE",
"194 86 CURVE SMOOTH",
"189 81 OFFCURVE",
"186 74 OFFCURVE",
"186 67 CURVE SMOOTH",
"186 60 OFFCURVE",
"189 53 OFFCURVE",
"194 48 CURVE SMOOTH"
);
},
{
closed = 1;
nodes = (
"239 273 LINE",
"239 273 LINE",
"239 273 LINE",
"239 280 OFFCURVE",
"235 283 OFFCURVE",
"228 283 CURVE SMOOTH",
"196 283 LINE SMOOTH",
"189 283 OFFCURVE",
"186 280 OFFCURVE",
"186 273 CURVE SMOOTH",
"186 272 LINE",
"186 128 LINE",
"186 128 LINE",
"186 121 OFFCURVE",
"190 117 OFFCURVE",
"197 117 CURVE SMOOTH",
"228 117 LINE",
"228 117 LINE",
"235 117 OFFCURVE",
"239 121 OFFCURVE",
"239 128 CURVE",
"239 128 LINE"
);
}
);
width = 425;
}
);
unicode = F101;
},
{
glyphname = uniF102;
layers = (
{
layerId = "EBF4EA88-05C0-40D0-B291-B170F4B137C3";
name = Regular;
paths = (
{
closed = 1;
nodes = (
"337 370 LINE SMOOTH",
"349 370 OFFCURVE",
"355 364 OFFCURVE",
"355 353 CURVE SMOOTH",
"355 337 LINE SMOOTH",
"355 326 OFFCURVE",
"349 320 OFFCURVE",
"337 320 CURVE SMOOTH",
"17 320 LINE SMOOTH",
"6 320 OFFCURVE",
"0 326 OFFCURVE",
"0 337 CURVE SMOOTH",
"0 353 LINE SMOOTH",
"0 364 OFFCURVE",
"6 370 OFFCURVE",
"17 370 CURVE SMOOTH"
);
},
{
closed = 1;
nodes = (
"312 235 LINE SMOOTH",
"312 224 OFFCURVE",
"306 218 OFFCURVE",
"294 218 CURVE SMOOTH",
"61 218 LINE SMOOTH",
"49 218 OFFCURVE",
"43 224 OFFCURVE",
"43 235 CURVE SMOOTH",
"43 251 LINE SMOOTH",
"43 262 OFFCURVE",
"49 268 OFFCURVE",
"61 268 CURVE SMOOTH",
"294 268 LINE SMOOTH",
"306 268 OFFCURVE",
"312 262 OFFCURVE",
"312 251 CURVE SMOOTH"
);
},
{
closed = 1;
nodes = (
"320 64 LINE SMOOTH",
"331 64 OFFCURVE",
"337 58 OFFCURVE",
"337 47 CURVE SMOOTH",
"337 31 LINE SMOOTH",
"337 20 OFFCURVE",
"331 14 OFFCURVE",
"320 14 CURVE SMOOTH",
"35 14 LINE SMOOTH",
"23 14 OFFCURVE",
"17 20 OFFCURVE",
"17 31 CURVE SMOOTH",
"17 47 LINE SMOOTH",
"17 58 OFFCURVE",
"23 64 OFFCURVE",
"35 64 CURVE SMOOTH"
);
},
{
closed = 1;
nodes = (
"294 133 LINE SMOOTH",
"294 122 OFFCURVE",
"288 116 OFFCURVE",
"277 116 CURVE SMOOTH",
"277 116 LINE",
"78 116 LINE SMOOTH",
"67 116 OFFCURVE",
"61 122 OFFCURVE",
"61 133 CURVE SMOOTH",
"61 149 LINE SMOOTH",
"61 160 OFFCURVE",
"67 166 OFFCURVE",
"78 166 CURVE SMOOTH",
"277 166 LINE",
"277 166 LINE",
"288 166 OFFCURVE",
"294 160 OFFCURVE",
"294 149 CURVE SMOOTH"
);
}
);
width = 355;
}
);
unicode = F102;
},
{
glyphname = uniF103;
layers = (
{
layerId = "EBF4EA88-05C0-40D0-B291-B170F4B137C3";
name = Regular;
paths = (
{
closed = 1;
nodes = (
"337 369 LINE SMOOTH",
"349 369 OFFCURVE",
"355 363 OFFCURVE",
"355 352 CURVE SMOOTH",
"355 336 LINE SMOOTH",
"355 331 OFFCURVE",
"353 326 OFFCURVE",
"350 323 CURVE",
"346 320 OFFCURVE",
"342 318 OFFCURVE",
"337 318 CURVE SMOOTH",
"17 318 LINE SMOOTH",
"6 318 OFFCURVE",
"0 324 OFFCURVE",
"0 336 CURVE SMOOTH",
"0 352 LINE SMOOTH",
"0 363 OFFCURVE",
"6 369 OFFCURVE",
"17 369 CURVE SMOOTH"
);
},
{
closed = 1;
nodes = (
"337 268 LINE SMOOTH",
"349 268 OFFCURVE",
"355 262 OFFCURVE",
"355 251 CURVE SMOOTH",
"355 235 LINE SMOOTH",
"355 230 OFFCURVE",
"353 226 OFFCURVE",
"350 223 CURVE SMOOTH",
"346 219 OFFCURVE",
"342 217 OFFCURVE",
"337 217 CURVE SMOOTH",
"17 217 LINE SMOOTH",
"6 217 OFFCURVE",
"0 223 OFFCURVE",
"0 235 CURVE SMOOTH",
"0 251 LINE SMOOTH",
"0 262 OFFCURVE",
"6 268 OFFCURVE",
"17 268 CURVE SMOOTH"
);
},
{
closed = 1;
nodes = (
"337 167 LINE SMOOTH",
"342 167 OFFCURVE",
"346 165 OFFCURVE",
"350 162 CURVE",
"353 158 OFFCURVE",
"355 154 OFFCURVE",
"355 149 CURVE SMOOTH",
"355 133 LINE SMOOTH",
"355 122 OFFCURVE",
"349 116 OFFCURVE",
"337 116 CURVE SMOOTH",
"17 116 LINE SMOOTH",
"6 116 OFFCURVE",
"0 122 OFFCURVE",
"0 133 CURVE SMOOTH",
"0 149 LINE SMOOTH",
"0 161 OFFCURVE",
"6 167 OFFCURVE",
"17 167 CURVE SMOOTH"
);
},
{
closed = 1;
nodes = (
"337 66 LINE SMOOTH",
"342 66 OFFCURVE",
"346 64 OFFCURVE",
"350 61 CURVE",
"353 58 OFFCURVE",
"355 53 OFFCURVE",
"355 48 CURVE SMOOTH",
"355 32 LINE SMOOTH",
"355 21 OFFCURVE",
"349 15 OFFCURVE",
"337 15 CURVE SMOOTH",
"17 15 LINE SMOOTH",
"6 15 OFFCURVE",
"0 21 OFFCURVE",
"0 32 CURVE SMOOTH",
"0 48 LINE SMOOTH",
"0 60 OFFCURVE",
"6 66 OFFCURVE",
"17 66 CURVE SMOOTH"
);
}
);
width = 355;
}
);
unicode = F103;
},
{
glyphname = uniF104;
layers = (
{
layerId = "EBF4EA88-05C0-40D0-B291-B170F4B137C3";
name = Regular;
paths = (
{
closed = 1;
nodes = (
"337 370 LINE SMOOTH",
"349 370 OFFCURVE",
"355 364 OFFCURVE",
"355 353 CURVE SMOOTH",
"355 337 LINE SMOOTH",
"355 326 OFFCURVE",
"349 320 OFFCURVE",
"337 320 CURVE SMOOTH",
"17 320 LINE SMOOTH",
"6 320 OFFCURVE",
"0 326 OFFCURVE",
"0 337 CURVE SMOOTH",
"0 353 LINE SMOOTH",
"0 364 OFFCURVE",
"6 370 OFFCURVE",
"17 370 CURVE SMOOTH"
);
},
{
closed = 1;
nodes = (
"17 218 LINE SMOOTH",
"6 218 OFFCURVE",
"0 224 OFFCURVE",
"0 235 CURVE SMOOTH",
"0 251 LINE SMOOTH",
"0 263 OFFCURVE",
"6 269 OFFCURVE",
"17 269 CURVE SMOOTH",
"251 269 LINE SMOOTH",
"256 269 OFFCURVE",
"260 267 OFFCURVE",
"264 264 CURVE",
"267 260 OFFCURVE",
"269 256 OFFCURVE",
"269 251 CURVE SMOOTH",
"269 235 LINE SMOOTH",
"269 224 OFFCURVE",
"263 218 OFFCURVE",
"251 218 CURVE SMOOTH"
);
},
{
closed = 1;
nodes = (
"302 64 LINE SMOOTH",
"314 64 OFFCURVE",
"320 58 OFFCURVE",
"320 47 CURVE SMOOTH",
"320 31 LINE SMOOTH",
"320 20 OFFCURVE",
"314 14 OFFCURVE",
"302 14 CURVE SMOOTH",
"17 14 LINE SMOOTH",
"6 14 OFFCURVE",
"0 20 OFFCURVE",
"0 31 CURVE SMOOTH",
"0 47 LINE SMOOTH",
"0 58 OFFCURVE",
"6 64 OFFCURVE",
"17 64 CURVE SMOOTH"
);
},
{
closed = 1;
nodes = (
"17 116 LINE SMOOTH",
"6 116 OFFCURVE",
"0 122 OFFCURVE",
"0 133 CURVE SMOOTH",
"0 149 LINE SMOOTH",
"0 160 OFFCURVE",
"6 166 OFFCURVE",
"17 166 CURVE SMOOTH",
"216 166 LINE",
"216 166 LINE",
"228 166 OFFCURVE",
"234 160 OFFCURVE",
"234 149 CURVE SMOOTH",
"234 133 LINE SMOOTH",
"234 122 OFFCURVE",
"228 116 OFFCURVE",
"216 116 CURVE SMOOTH",
"216 116 LINE"
);
}
);
width = 355;
}
);
unicode = F104;
},
{
glyphname = uniF105;
layers = (
{
layerId = "EBF4EA88-05C0-40D0-B291-B170F4B137C3";
name = Regular;
paths = (
{
closed = 1;
nodes = (
"337 370 LINE SMOOTH",
"349 370 OFFCURVE",
"355 364 OFFCURVE",
"355 353 CURVE SMOOTH",
"355 337 LINE SMOOTH",
"355 326 OFFCURVE",
"349 320 OFFCURVE",
"337 320 CURVE SMOOTH",
"17 320 LINE SMOOTH",
"6 320 OFFCURVE",
"0 326 OFFCURVE",
"0 337 CURVE SMOOTH",
"0 353 LINE SMOOTH",
"0 364 OFFCURVE",
"6 370 OFFCURVE",
"17 370 CURVE SMOOTH"
);
},
{
closed = 1;
nodes = (
"337 268 LINE SMOOTH",
"349 268 OFFCURVE",
"355 262 OFFCURVE",
"355 251 CURVE SMOOTH",
"355 235 LINE SMOOTH",
"355 224 OFFCURVE",
"349 218 OFFCURVE",
"337 218 CURVE SMOOTH",
"104 218 LINE SMOOTH",
"92 218 OFFCURVE",
"86 224 OFFCURVE",
"86 235 CURVE SMOOTH",
"86 251 LINE SMOOTH",
"86 262 OFFCURVE",
"92 268 OFFCURVE",
"104 268 CURVE SMOOTH"
);
},
{
closed = 1;
nodes = (
"349 64 OFFCURVE",
"355 58 OFFCURVE",
"355 47 CURVE SMOOTH",
"355 31 LINE SMOOTH",
"355 20 OFFCURVE",
"349 14 OFFCURVE",
"337 14 CURVE SMOOTH",
"52 14 LINE SMOOTH",
"41 14 OFFCURVE",
"35 20 OFFCURVE",
"35 31 CURVE SMOOTH",
"35 47 LINE SMOOTH",
"35 58 OFFCURVE",
"41 64 OFFCURVE",
"52 64 CURVE SMOOTH",
"337 64 LINE SMOOTH"
);
},
{
closed = 1;
nodes = (
"355 133 LINE SMOOTH",
"355 122 OFFCURVE",
"349 116 OFFCURVE",
"337 116 CURVE SMOOTH",
"337 116 LINE",
"138 116 LINE SMOOTH",
"127 116 OFFCURVE",
"121 122 OFFCURVE",
"121 133 CURVE SMOOTH",
"121 149 LINE SMOOTH",
"121 160 OFFCURVE",
"127 166 OFFCURVE",
"138 166 CURVE SMOOTH",
"337 166 LINE",
"337 166 LINE",
"349 166 OFFCURVE",
"355 160 OFFCURVE",
"355 149 CURVE SMOOTH"
);
}
);
width = 355;
}
);
unicode = F105;
},
{
glyphname = uniF106;
layers = (
{
layerId = "EBF4EA88-05C0-40D0-B291-B170F4B137C3";
name = Regular;
paths = (
{
closed = 1;
nodes = (
"392 104 LINE",
"393 103 OFFCURVE",
"393 102 OFFCURVE",
"393 100 CURVE SMOOTH",
"393 95 OFFCURVE",
"390 92 OFFCURVE",
"385 92 CURVE SMOOTH",
"364 92 LINE",
"347 63 OFFCURVE",
"324 39 OFFCURVE",
"295 22 CURVE SMOOTH",
"265 4 OFFCURVE",
"232 -5 OFFCURVE",
"197 -5 CURVE SMOOTH",
"162 -5 OFFCURVE",
"129 4 OFFCURVE",
"100 22 CURVE",
"70 39 OFFCURVE",
"47 63 OFFCURVE",
"30 92 CURVE",
"8 92 LINE SMOOTH",
"3 92 OFFCURVE",
"0 95 OFFCURVE",
"0 100 CURVE SMOOTH",
"0 102 OFFCURVE",
"1 104 OFFCURVE",
"2 105 CURVE",
"49 187 LINE",
"50 190 OFFCURVE",
"53 192 OFFCURVE",
"56 192 CURVE SMOOTH",
"59 192 OFFCURVE",
"62 191 OFFCURVE",
"63 188 CURVE",
"111 104 LINE",
"112 103 OFFCURVE",
"113 101 OFFCURVE",
"113 100 CURVE SMOOTH",
"113 95 OFFCURVE",
"110 92 OFFCURVE",
"104 92 CURVE SMOOTH",
"92 92 LINE",
"113 69 OFFCURVE",
"140 54 OFFCURVE",
"171 48 CURVE",
"171 198 LINE",
"125 198 LINE SMOOTH",
"120 198 OFFCURVE",
"117 201 OFFCURVE",
"117 206 CURVE SMOOTH",
"117 241 LINE SMOOTH",
"117 246 OFFCURVE",
"120 249 OFFCURVE",
"125 249 CURVE SMOOTH",
"171 249 LINE",
"171 276 LINE",
"148 287 OFFCURVE",
"137 305 OFFCURVE",
"137 330 CURVE SMOOTH",
"137 347 OFFCURVE",
"143 361 OFFCURVE",
"155 372 CURVE",
"166 383 OFFCURVE",
"180 389 OFFCURVE",
"197 389 CURVE SMOOTH",
"214 389 OFFCURVE",
"228 383 OFFCURVE",
"239 372 CURVE SMOOTH",
"250 361 OFFCURVE",
"256 347 OFFCURVE",
"256 330 CURVE SMOOTH",
"256 305 OFFCURVE",
"245 287 OFFCURVE",
"222 276 CURVE",
"222 249 LINE",
"269 249 LINE SMOOTH",
"274 249 OFFCURVE",
"277 246 OFFCURVE",
"277 241 CURVE SMOOTH",
"277 206 LINE SMOOTH",
"277 201 OFFCURVE",
"274 198 OFFCURVE",
"269 198 CURVE SMOOTH",
"222 198 LINE",
"222 48 LINE",
"253 54 OFFCURVE",
"280 69 OFFCURVE",
"301 92 CURVE",
"289 92 LINE SMOOTH",
"284 92 OFFCURVE",
"281 95 OFFCURVE",
"281 100 CURVE SMOOTH",
"281 102 OFFCURVE",
"282 104 OFFCURVE",
"283 105 CURVE",
"329 187 LINE",
"330 190 OFFCURVE",
"333 192 OFFCURVE",
"337 192 CURVE SMOOTH",
"340 192 OFFCURVE",
"343 191 OFFCURVE",
"344 188 CURVE"
);
},
{
closed = 1;
nodes = (
"188 363 OFFCURVE",
"180 360 OFFCURVE",
"173 353 CURVE SMOOTH",
"166 346 OFFCURVE",
"163 339 OFFCURVE",
"163 330 CURVE SMOOTH",
"163 321 OFFCURVE",
"167 313 OFFCURVE",
"174 306 CURVE SMOOTH",
"181 299 OFFCURVE",
"188 296 OFFCURVE",
"197 296 CURVE SMOOTH",
"206 296 OFFCURVE",
"213 299 OFFCURVE",
"220 306 CURVE SMOOTH",
"227 313 OFFCURVE",
"230 321 OFFCURVE",
"230 330 CURVE SMOOTH",
"230 339 OFFCURVE",
"227 347 OFFCURVE",
"220 354 CURVE",
"213 360 OFFCURVE",
"206 363 OFFCURVE",
"197 363 CURVE SMOOTH"
);
}
);
width = 393;
}
);
unicode = F106;
},
{
glyphname = uniF107;
layers = (
{
layerId = "EBF4EA88-05C0-40D0-B291-B170F4B137C3";
name = Regular;
paths = (
{
closed = 1;
nodes = (
"360 98 LINE",
"379 88 OFFCURVE",
"388 72 OFFCURVE",
"388 51 CURVE SMOOTH",
"388 36 OFFCURVE",
"383 24 OFFCURVE",
"373 13 CURVE",
"362 2 OFFCURVE",
"350 -3 OFFCURVE",
"335 -3 CURVE SMOOTH",
"311 -3 OFFCURVE",
"294 8 OFFCURVE",
"285 31 CURVE",
"103 31 LINE",
"94 8 OFFCURVE",
"77 -3 OFFCURVE",
"53 -3 CURVE SMOOTH",
"38 -3 OFFCURVE",
"26 2 OFFCURVE",
"16 13 CURVE",
"5 24 OFFCURVE",
"0 36 OFFCURVE",
"0 51 CURVE SMOOTH",
"0 72 OFFCURVE",
"9 88 OFFCURVE",
"28 98 CURVE",
"28 286 LINE",
"9 296 OFFCURVE",
"0 312 OFFCURVE",
"0 333 CURVE SMOOTH",
"0 348 OFFCURVE",
"5 360 OFFCURVE",
"16 371 CURVE",
"26 382 OFFCURVE",
"38 387 OFFCURVE",
"53 387 CURVE SMOOTH",
"71 387 OFFCURVE",
"86 379 OFFCURVE",
"97 363 CURVE",
"291 363 LINE",
"302 379 OFFCURVE",
"317 387 OFFCURVE",
"335 387 CURVE SMOOTH",
"350 387 OFFCURVE",
"362 382 OFFCURVE",
"373 371 CURVE",
"383 360 OFFCURVE",
"388 348 OFFCURVE",
"388 333 CURVE SMOOTH",
"388 312 OFFCURVE",
"379 296 OFFCURVE",
"360 286 CURVE"
);
},
{
closed = 1;
nodes = (
"79 98 LINE",
"85 95 OFFCURVE",
"91 89 OFFCURVE",
"97 82 CURVE",
"292 82 LINE",
"299 90 OFFCURVE",
"304 95 OFFCURVE",
"309 98 CURVE",
"309 286 LINE",
"299 291 OFFCURVE",
"291 300 OFFCURVE",
"286 312 CURVE",
"102 312 LINE",
"97 300 OFFCURVE",
"89 291 OFFCURVE",
"79 286 CURVE"
);
}
);
width = 388;
}
);
unicode = F107;
},
{
glyphname = uniF108;
layers = (
{
layerId = "EBF4EA88-05C0-40D0-B291-B170F4B137C3";
name = Regular;
paths = (
{
closed = 1;
nodes = (
"401 279 LINE",
"401 32 LINE SMOOTH",
"401 26 OFFCURVE",
"399 21 OFFCURVE",
"395 17 CURVE SMOOTH",
"391 13 OFFCURVE",
"386 11 OFFCURVE",
"380 11 CURVE SMOOTH",
"379 11 LINE",
"22 11 LINE",
"21 11 LINE SMOOTH",
"15 11 OFFCURVE",
"10 13 OFFCURVE",
"6 17 CURVE SMOOTH",
"2 21 OFFCURVE",
"0 26 OFFCURVE",
"0 32 CURVE SMOOTH",
"0 279 LINE",
"0 280 LINE SMOOTH",
"0 285 OFFCURVE",
"2 289 OFFCURVE",
"5 294 CURVE SMOOTH",
"47 366 LINE",
"49 371 OFFCURVE",
"53 373 OFFCURVE",
"58 373 CURVE",
"58 373 LINE",
"342 373 LINE",
"343 373 LINE SMOOTH",
"350 373 OFFCURVE",
"355 370 OFFCURVE",
"356 363 CURVE",
"396 294 LINE",
"396 293 LINE",
"399 288 OFFCURVE",
"401 284 OFFCURVE",
"401 280 CURVE SMOOTH"
);
},
{
closed = 1;
nodes = (
"269 154 LINE",
"270 157 OFFCURVE",
"271 159 OFFCURVE",
"270 160 CURVE",
"269 162 OFFCURVE",
"267 163 OFFCURVE",
"264 163 CURVE SMOOTH",
"234 163 LINE",
"234 244 LINE SMOOTH",
"234 248 OFFCURVE",
"232 250 OFFCURVE",
"228 250 CURVE SMOOTH",
"173 250 LINE SMOOTH",
"169 250 OFFCURVE",
"167 248 OFFCURVE",
"167 244 CURVE SMOOTH",
"167 163 LINE",
"137 163 LINE SMOOTH",
"134 163 OFFCURVE",
"132 162 OFFCURVE",
"131 160 CURVE",
"130 159 OFFCURVE",
"131 157 OFFCURVE",
"132 154 CURVE",
"196 64 LINE",
"197 63 OFFCURVE",
"198 62 OFFCURVE",
"201 62 CURVE SMOOTH",
"204 62 OFFCURVE",
"205 63 OFFCURVE",
"206 64 CURVE"
);
},
{
closed = 1;
nodes = (
"39 301 LINE",
"362 301 LINE",
"335 348 LINE",
"66 348 LINE"
);
}
);
width = 401;
}
);
unicode = F108;
},
{
glyphname = uniF109;
layers = (
{
layerId = "EBF4EA88-05C0-40D0-B291-B170F4B137C3";
name = Regular;
paths = (
{
closed = 1;
nodes = (
"2 188 LINE SMOOTH",
"-1 192 OFFCURVE",
"-2 196 OFFCURVE",
"1 201 CURVE",
"3 206 OFFCURVE",
"7 208 OFFCURVE",
"13 208 CURVE SMOOTH",
"75 208 LINE",
"75 375 LINE SMOOTH",
"75 384 OFFCURVE",
"79 388 OFFCURVE",
"88 388 CURVE SMOOTH",
"204 388 LINE SMOOTH",
"212 388 OFFCURVE",
"216 384 OFFCURVE",
"216 375 CURVE SMOOTH",
"216 208 LINE",
"279 208 LINE SMOOTH",
"284 208 OFFCURVE",
"287 206 OFFCURVE",
"290 201 CURVE SMOOTH",
"293 196 OFFCURVE",
"292 192 OFFCURVE",
"289 188 CURVE SMOOTH",
"157 1 LINE SMOOTH",
"155 -2 OFFCURVE",
"151 -4 OFFCURVE",
"146 -4 CURVE SMOOTH",
"141 -4 OFFCURVE",
"138 -2 OFFCURVE",
"136 1 CURVE SMOOTH"
);
}
);
width = 292;
}
);
unicode = F109;
},
{
glyphname = uniF10A;
layers = (
{
layerId = "EBF4EA88-05C0-40D0-B291-B170F4B137C3";
name = Regular;
paths = (
{
closed = 1;
nodes = (
"192 335 LINE SMOOTH",
"196 338 OFFCURVE",
"200 339 OFFCURVE",
"205 336 CURVE SMOOTH",
"210 333 OFFCURVE",
"212 330 OFFCURVE",
"212 325 CURVE SMOOTH",
"212 263 LINE",
"380 263 LINE SMOOTH",
"389 263 OFFCURVE",
"393 259 OFFCURVE",
"393 250 CURVE SMOOTH",
"393 134 LINE SMOOTH",
"393 125 OFFCURVE",
"389 121 OFFCURVE",
"380 121 CURVE SMOOTH",
"212 121 LINE",
"212 59 LINE SMOOTH",
"212 54 OFFCURVE",
"210 51 OFFCURVE",
"205 48 CURVE SMOOTH",
"200 45 OFFCURVE",
"196 46 OFFCURVE",
"192 49 CURVE SMOOTH",
"5 181 LINE SMOOTH",
"2 183 OFFCURVE",
"0 187 OFFCURVE",
"0 192 CURVE SMOOTH",
"0 197 OFFCURVE",
"2 200 OFFCURVE",
"5 202 CURVE SMOOTH"
);
}
);
width = 393;
}
);
unicode = F10A;
},
{
glyphname = uniF10B;
layers = (
{
layerId = "EBF4EA88-05C0-40D0-B291-B170F4B137C3";
name = Regular;
paths = (
{
closed = 1;
nodes = (
"201 49 LINE SMOOTH",
"197 46 OFFCURVE",
"192 45 OFFCURVE",
"187 48 CURVE SMOOTH",
"182 51 OFFCURVE",
"180 54 OFFCURVE",
"180 59 CURVE SMOOTH",
"180 121 LINE",
"13 121 LINE SMOOTH",
"4 121 OFFCURVE",
"0 125 OFFCURVE",
"0 134 CURVE SMOOTH",
"0 250 LINE SMOOTH",
"0 259 OFFCURVE",
"4 263 OFFCURVE",
"13 263 CURVE SMOOTH",
"180 263 LINE",
"180 325 LINE SMOOTH",
"180 330 OFFCURVE",
"182 333 OFFCURVE",
"187 336 CURVE SMOOTH",
"192 339 OFFCURVE",
"197 338 OFFCURVE",
"201 335 CURVE SMOOTH",
"387 203 LINE SMOOTH",
"391 200 OFFCURVE",
"393 197 OFFCURVE",
"393 192 CURVE SMOOTH",
"393 188 OFFCURVE",
"391 185 OFFCURVE",
"387 182 CURVE SMOOTH"
);
}
);
width = 393;
}
);
unicode = F10B;
},
{
glyphname = uniF10C;
layers = (
{
layerId = "EBF4EA88-05C0-40D0-B291-B170F4B137C3";
name = Regular;
paths = (
{
closed = 1;
nodes = (
"289 196 LINE SMOOTH",
"292 192 OFFCURVE",
"293 188 OFFCURVE",
"290 183 CURVE SMOOTH",
"287 178 OFFCURVE",
"284 176 OFFCURVE",
"279 176 CURVE SMOOTH",
"216 176 LINE",
"216 9 LINE SMOOTH",
"216 0 OFFCURVE",
"212 -4 OFFCURVE",
"204 -4 CURVE SMOOTH",
"88 -4 LINE SMOOTH",
"79 -4 OFFCURVE",
"75 0 OFFCURVE",
"75 9 CURVE SMOOTH",
"75 176 LINE",
"13 176 LINE SMOOTH",
"7 176 OFFCURVE",
"3 178 OFFCURVE",
"1 183 CURVE",
"-2 188 OFFCURVE",
"-1 192 OFFCURVE",
"2 196 CURVE SMOOTH",
"135 383 LINE SMOOTH",
"137 386 OFFCURVE",
"140 388 OFFCURVE",
"145 388 CURVE SMOOTH",
"150 388 OFFCURVE",
"154 386 OFFCURVE",
"156 383 CURVE SMOOTH"
);
}
);
width = 292;
}
);
unicode = F10C;
},
{
glyphname = uniF10D;
layers = (
{
layerId = "EBF4EA88-05C0-40D0-B291-B170F4B137C3";
name = Regular;
paths = (
{
closed = 1;
nodes = (
"201 -5 LINE",
"200 -8 OFFCURVE",
"197 -11 OFFCURVE",
"194 -12 CURVE SMOOTH",
"191 -13 OFFCURVE",
"188 -13 OFFCURVE",
"185 -10 CURVE SMOOTH",
"155 21 LINE",
"72 -61 LINE",
"68 -66 OFFCURVE",
"64 -66 OFFCURVE",
"59 -61 CURVE SMOOTH",
"3 -5 LINE SMOOTH",
"-2 0 OFFCURVE",
"-2 4 OFFCURVE",
"3 8 CURVE",
"85 91 LINE",
"54 121 LINE SMOOTH",
"51 124 OFFCURVE",
"51 127 OFFCURVE",
"52 130 CURVE SMOOTH",
"53 133 OFFCURVE",
"56 136 OFFCURVE",
"59 137 CURVE",
"216 163 LINE",
"220 163 OFFCURVE",
"223 162 OFFCURVE",
"224 161 CURVE SMOOTH",
"226 159 OFFCURVE",
"227 156 OFFCURVE",
"227 153 CURVE"
);
},
{
closed = 1;
nodes = (
"311 389 LINE",
"312 392 OFFCURVE",
"315 395 OFFCURVE",
"318 396 CURVE SMOOTH",
"321 397 OFFCURVE",
"324 397 OFFCURVE",
"327 394 CURVE SMOOTH",
"357 363 LINE",
"440 445 LINE",
"444 450 OFFCURVE",
"448 450 OFFCURVE",
"453 445 CURVE SMOOTH",
"509 389 LINE SMOOTH",
"514 384 OFFCURVE",
"514 380 OFFCURVE",
"509 376 CURVE",
"427 293 LINE",
"458 263 LINE SMOOTH",
"461 260 OFFCURVE",
"461 257 OFFCURVE",
"460 254 CURVE SMOOTH",
"459 251 OFFCURVE",
"456 248 OFFCURVE",
"453 247 CURVE",
"296 221 LINE",
"292 221 OFFCURVE",
"289 222 OFFCURVE",
"288 223 CURVE SMOOTH",
"286 225 OFFCURVE",
"285 228 OFFCURVE",
"285 231 CURVE"
);
}
);
width = 512;
}
);
unicode = F10D;
},
{
glyphname = uniF10E;
layers = (
{
layerId = "EBF4EA88-05C0-40D0-B291-B170F4B137C3";
name = Regular;
paths = (
{
closed = 1;
nodes = (
"26 104 LINE",
"27 108 OFFCURVE",
"29 110 OFFCURVE",
"32 111 CURVE SMOOTH",
"35 112 OFFCURVE",
"38 112 OFFCURVE",
"41 109 CURVE SMOOTH",
"72 78 LINE",
"155 161 LINE SMOOTH",
"159 165 OFFCURVE",
"163 165 OFFCURVE",
"167 161 CURVE SMOOTH",
"224 104 LINE SMOOTH",
"228 100 OFFCURVE",
"228 96 OFFCURVE",
"224 91 CURVE",
"142 9 LINE",
"172 -22 LINE SMOOTH",
"175 -25 OFFCURVE",
"176 -28 OFFCURVE",
"175 -31 CURVE SMOOTH",
"174 -34 OFFCURVE",
"172 -36 OFFCURVE",
"168 -37 CURVE",
"10 -64 LINE",
"7 -64 OFFCURVE",
"5 -63 OFFCURVE",
"3 -61 CURVE SMOOTH",
"1 -59 OFFCURVE",
"0 -57 OFFCURVE",
"0 -54 CURVE"
);
},
{
closed = 1;
nodes = (
"486 280 LINE",
"485 276 OFFCURVE",
"483 274 OFFCURVE",
"480 273 CURVE SMOOTH",
"477 272 OFFCURVE",
"474 272 OFFCURVE",
"471 275 CURVE SMOOTH",
"440 306 LINE",
"357 223 LINE SMOOTH",
"353 219 OFFCURVE",
"349 219 OFFCURVE",
"345 223 CURVE SMOOTH",
"288 280 LINE SMOOTH",
"284 284 OFFCURVE",
"284 288 OFFCURVE",
"288 293 CURVE",
"370 375 LINE",
"340 406 LINE SMOOTH",
"337 409 OFFCURVE",
"336 412 OFFCURVE",
"337 415 CURVE SMOOTH",
"338 418 OFFCURVE",
"340 420 OFFCURVE",
"344 421 CURVE",
"502 448 LINE",
"505 448 OFFCURVE",
"507 447 OFFCURVE",
"509 445 CURVE SMOOTH",
"511 443 OFFCURVE",
"512 441 OFFCURVE",
"512 438 CURVE"
);
}
);
width = 512;
}
);
unicode = F10E;
},
{
glyphname = uniF10F;
layers = (
{
layerId = "EBF4EA88-05C0-40D0-B291-B170F4B137C3";
name = Regular;
paths = (
{
closed = 1;
nodes = (
"184 -10 LINE",
"183 -13 OFFCURVE",
"181 -15 OFFCURVE",
"179 -16 CURVE",
"176 -17 OFFCURVE",
"173 -17 OFFCURVE",
"170 -14 CURVE SMOOTH",
"142 14 LINE",
"66 -62 LINE SMOOTH",
"62 -66 OFFCURVE",
"58 -66 OFFCURVE",
"55 -62 CURVE",
"2 -9 LINE",
"-2 -6 OFFCURVE",
"-2 -2 OFFCURVE",
"2 2 CURVE SMOOTH",
"78 78 LINE",
"50 106 LINE SMOOTH",
"47 109 OFFCURVE",
"47 112 OFFCURVE",
"48 115 CURVE",
"49 117 OFFCURVE",
"51 119 OFFCURVE",
"54 120 CURVE",
"199 145 LINE",
"202 145 OFFCURVE",
"204 144 OFFCURVE",
"206 142 CURVE SMOOTH",
"207 141 OFFCURVE",
"208 138 OFFCURVE",
"208 135 CURVE"
);
},
{
closed = 1;
nodes = (
"328 394 LINE",
"329 397 OFFCURVE",
"331 399 OFFCURVE",
"333 400 CURVE",
"336 401 OFFCURVE",
"339 401 OFFCURVE",
"342 398 CURVE SMOOTH",
"370 370 LINE",
"446 446 LINE SMOOTH",
"450 450 OFFCURVE",
"454 450 OFFCURVE",
"457 446 CURVE",
"510 393 LINE",
"514 390 OFFCURVE",
"514 386 OFFCURVE",
"510 382 CURVE SMOOTH",
"434 306 LINE",
"462 278 LINE SMOOTH",
"465 275 OFFCURVE",
"465 272 OFFCURVE",
"464 269 CURVE",
"463 267 OFFCURVE",
"461 265 OFFCURVE",
"458 264 CURVE",
"313 239 LINE",
"310 239 OFFCURVE",
"308 240 OFFCURVE",
"306 242 CURVE SMOOTH",
"305 243 OFFCURVE",
"304 246 OFFCURVE",
"304 249 CURVE"
);
},
{
closed = 1;
nodes = (
"458 120 LINE",
"461 119 OFFCURVE",
"463 117 OFFCURVE",
"464 115 CURVE",
"465 112 OFFCURVE",
"465 109 OFFCURVE",
"462 106 CURVE SMOOTH",
"434 78 LINE",
"510 2 LINE SMOOTH",
"514 -2 OFFCURVE",
"514 -6 OFFCURVE",
"510 -9 CURVE",
"457 -62 LINE",
"454 -66 OFFCURVE",
"450 -66 OFFCURVE",
"446 -62 CURVE SMOOTH",
"370 14 LINE",
"342 -14 LINE SMOOTH",
"339 -17 OFFCURVE",
"336 -17 OFFCURVE",
"333 -16 CURVE",
"331 -15 OFFCURVE",
"329 -13 OFFCURVE",
"328 -10 CURVE",
"303 135 LINE",
"303 138 OFFCURVE",
"304 140 OFFCURVE",
"306 142 CURVE SMOOTH",
"307 143 OFFCURVE",
"310 144 OFFCURVE",
"313 144 CURVE"
);
},
{
closed = 1;
nodes = (
"54 264 LINE",
"51 265 OFFCURVE",
"49 267 OFFCURVE",
"48 269 CURVE",
"47 272 OFFCURVE",
"47 275 OFFCURVE",
"50 278 CURVE SMOOTH",
"78 306 LINE",
"2 382 LINE SMOOTH",
"-2 386 OFFCURVE",
"-2 390 OFFCURVE",
"2 393 CURVE",
"55 446 LINE",
"58 450 OFFCURVE",
"62 450 OFFCURVE",
"66 446 CURVE SMOOTH",
"142 370 LINE",
"170 398 LINE SMOOTH",
"173 401 OFFCURVE",
"176 401 OFFCURVE",
"179 400 CURVE",
"181 399 OFFCURVE",
"183 397 OFFCURVE",
"184 394 CURVE",
"209 249 LINE",
"209 246 OFFCURVE",
"208 244 OFFCURVE",
"206 242 CURVE SMOOTH",
"205 241 OFFCURVE",
"202 240 OFFCURVE",
"199 240 CURVE"
);
}
);
width = 512;
}
);
unicode = F10F;
},
{
glyphname = uniF110;
layers = (
{
layerId = "EBF4EA88-05C0-40D0-B291-B170F4B137C3";
name = Regular;
paths = (
{
closed = 1;
nodes = (
"24 90 LINE",
"25 94 OFFCURVE",
"27 96 OFFCURVE",
"30 97 CURVE SMOOTH",
"33 98 OFFCURVE",
"35 97 OFFCURVE",
"38 95 CURVE",
"66 67 LINE",
"142 142 LINE SMOOTH",
"146 146 OFFCURVE",
"150 146 OFFCURVE",
"154 142 CURVE SMOOTH",
"206 90 LINE SMOOTH",
"210 86 OFFCURVE",
"210 82 OFFCURVE",
"206 78 CURVE SMOOTH",
"130 3 LINE",
"158 -26 LINE SMOOTH",
"161 -29 OFFCURVE",
"161 -31 OFFCURVE",
"160 -34 CURVE",
"159 -36 OFFCURVE",
"157 -38 OFFCURVE",
"154 -39 CURVE",
"10 -64 LINE",
"6 -64 OFFCURVE",
"3 -63 OFFCURVE",
"2 -62 CURVE SMOOTH",
"1 -61 OFFCURVE",
"0 -58 OFFCURVE",
"0 -54 CURVE"
);
},
{
closed = 1;
nodes = (
"488 294 LINE",
"487 290 OFFCURVE",
"485 288 OFFCURVE",
"482 287 CURVE SMOOTH",
"479 286 OFFCURVE",
"477 287 OFFCURVE",
"474 289 CURVE",
"446 317 LINE",
"370 242 LINE SMOOTH",
"366 238 OFFCURVE",
"362 238 OFFCURVE",
"358 242 CURVE SMOOTH",
"306 294 LINE SMOOTH",
"302 298 OFFCURVE",
"302 302 OFFCURVE",
"306 306 CURVE SMOOTH",
"382 381 LINE",
"354 410 LINE",
"351 412 OFFCURVE",
"351 415 OFFCURVE",
"352 418 CURVE",
"353 420 OFFCURVE",
"355 422 OFFCURVE",
"358 423 CURVE",
"502 448 LINE",
"506 448 OFFCURVE",
"509 447 OFFCURVE",
"510 446 CURVE SMOOTH",
"511 445 OFFCURVE",
"512 442 OFFCURVE",
"512 438 CURVE"
);
},
{
closed = 1;
nodes = (
"358 -40 LINE",
"354 -39 OFFCURVE",
"352 -37 OFFCURVE",
"351 -34 CURVE SMOOTH",
"350 -31 OFFCURVE",
"351 -28 OFFCURVE",
"353 -26 CURVE SMOOTH",
"381 2 LINE",
"306 78 LINE SMOOTH",
"302 82 OFFCURVE",
"302 86 OFFCURVE",
"306 90 CURVE SMOOTH",
"358 142 LINE SMOOTH",
"362 146 OFFCURVE",
"366 146 OFFCURVE",
"370 142 CURVE SMOOTH",
"445 66 LINE",
"474 94 LINE SMOOTH",
"477 97 OFFCURVE",
"479 97 OFFCURVE",
"482 96 CURVE",
"484 95 OFFCURVE",
"486 93 OFFCURVE",
"487 90 CURVE",
"512 -54 LINE",
"512 -58 OFFCURVE",
"511 -61 OFFCURVE",
"510 -62 CURVE SMOOTH",
"509 -63 OFFCURVE",
"506 -64 OFFCURVE",
"502 -64 CURVE"
);
},
{
closed = 1;
nodes = (
"154 424 LINE",
"158 423 OFFCURVE",
"160 421 OFFCURVE",
"161 418 CURVE SMOOTH",
"162 415 OFFCURVE",
"161 412 OFFCURVE",
"159 410 CURVE SMOOTH",
"131 382 LINE",
"206 306 LINE SMOOTH",
"210 302 OFFCURVE",
"210 298 OFFCURVE",
"206 294 CURVE SMOOTH",
"154 242 LINE SMOOTH",
"150 238 OFFCURVE",
"146 238 OFFCURVE",
"142 242 CURVE SMOOTH",
"67 318 LINE",
"38 290 LINE SMOOTH",
"35 287 OFFCURVE",
"33 287 OFFCURVE",
"30 288 CURVE",
"28 289 OFFCURVE",
"26 291 OFFCURVE",
"25 294 CURVE",
"0 438 LINE",
"0 442 OFFCURVE",
"1 445 OFFCURVE",
"2 446 CURVE SMOOTH",
"3 447 OFFCURVE",
"6 448 OFFCURVE",
"10 448 CURVE"
);
}
);
width = 512;
}
);
unicode = F110;
},
{
glyphname = uniF111;
layers = (
{
layerId = "EBF4EA88-05C0-40D0-B291-B170F4B137C3";
name = Regular;
paths = (
{
closed = 1;
nodes = (
"94 315 LINE",
"95 316 OFFCURVE",
"96 316 OFFCURVE",
"97 317 CURVE SMOOTH",
"98 318 OFFCURVE",
"98 318 OFFCURVE",
"99 318 CURVE",
"117 334 OFFCURVE",
"137 345 OFFCURVE",
"158 352 CURVE",
"165 354 OFFCURVE",
"177 356 OFFCURVE",
"193 357 CURVE",
"196 357 OFFCURVE",
"199 356 OFFCURVE",
"200 353 CURVE SMOOTH",
"201 350 OFFCURVE",
"201 348 OFFCURVE",
"198 345 CURVE SMOOTH",
"195 342 OFFCURVE",
"191 340 OFFCURVE",
"188 339 CURVE",
"183 338 OFFCURVE",
"176 336 OFFCURVE",
"167 333 CURVE SMOOTH",
"157 330 OFFCURVE",
"149 327 OFFCURVE",
"144 325 CURVE",
"143 324 OFFCURVE",
"141 323 OFFCURVE",
"139 321 CURVE SMOOTH",
"137 319 OFFCURVE",
"136 318 OFFCURVE",
"135 317 CURVE SMOOTH",
"133 315 OFFCURVE",
"130 312 OFFCURVE",
"125 309 CURVE SMOOTH",
"120 306 OFFCURVE",
"117 303 OFFCURVE",
"114 301 CURVE",
"111 298 LINE",
"111 297 LINE",
"114 299 OFFCURVE",
"118 300 OFFCURVE",
"122 301 CURVE",
"143 308 OFFCURVE",
"154 311 OFFCURVE",
"157 312 CURVE",
"159 313 OFFCURVE",
"170 312 OFFCURVE",
"189 310 CURVE",
"191 310 OFFCURVE",
"193 309 OFFCURVE",
"196 306 CURVE",
"199 304 OFFCURVE",
"203 301 OFFCURVE",
"208 297 CURVE",
"213 292 OFFCURVE",
"216 289 OFFCURVE",
"219 287 CURVE SMOOTH",
"222 285 OFFCURVE",
"222 283 OFFCURVE",
"220 280 CURVE SMOOTH",
"215 273 OFFCURVE",
"209 272 OFFCURVE",
"202 276 CURVE",
"200 277 OFFCURVE",
"195 281 OFFCURVE",
"187 287 CURVE SMOOTH",
"183 290 OFFCURVE",
"180 291 OFFCURVE",
"178 290 CURVE",
"176 290 OFFCURVE",
"172 290 OFFCURVE",
"167 289 CURVE SMOOTH",
"162 288 OFFCURVE",
"158 288 OFFCURVE",
"156 288 CURVE SMOOTH",
"154 288 OFFCURVE",
"152 287 OFFCURVE",
"149 286 CURVE",
"146 283 OFFCURVE",
"141 280 OFFCURVE",
"134 275 CURVE SMOOTH",
"127 270 OFFCURVE",
"122 267 OFFCURVE",
"119 264 CURVE",
"117 263 OFFCURVE",
"116 260 OFFCURVE",
"116 257 CURVE",
"117 257 OFFCURVE",
"118 257 OFFCURVE",
"119 258 CURVE",
"124 261 OFFCURVE",
"133 264 OFFCURVE",
"145 265 CURVE",
"146 265 OFFCURVE",
"147 265 OFFCURVE",
"149 266 CURVE",
"151 266 OFFCURVE",
"153 266 OFFCURVE",
"154 266 CURVE",
"163 267 OFFCURVE",
"172 264 OFFCURVE",
"183 256 CURVE SMOOTH",
"192 249 OFFCURVE",
"199 244 OFFCURVE",
"204 240 CURVE SMOOTH",
"208 237 OFFCURVE",
"210 233 OFFCURVE",
"210 227 CURVE SMOOTH",
"210 215 OFFCURVE",
"209 206 OFFCURVE",
"207 200 CURVE",
"207 197 LINE",
"210 196 OFFCURVE",
"210 191 OFFCURVE",
"208 184 CURVE",
"207 181 OFFCURVE",
"206 177 OFFCURVE",
"204 171 CURVE",
"201 165 OFFCURVE",
"199 160 OFFCURVE",
"198 157 CURVE",
"195 150 OFFCURVE",
"189 144 OFFCURVE",
"180 141 CURVE SMOOTH",
"171 138 OFFCURVE",
"150 132 OFFCURVE",
"118 121 CURVE SMOOTH",
"109 118 OFFCURVE",
"101 117 OFFCURVE",
"92 119 CURVE SMOOTH",
"76 123 OFFCURVE",
"60 121 OFFCURVE",
"43 114 CURVE SMOOTH",
"38 112 OFFCURVE",
"31 108 OFFCURVE",
"20 103 CURVE",
"12 114 OFFCURVE",
"6 128 OFFCURVE",
"3 144 CURVE SMOOTH",
"0 159 OFFCURVE",
"-1 177 OFFCURVE",
"1 196 CURVE",
"1 197 OFFCURVE",
"2 198 OFFCURVE",
"4 200 CURVE",
"17 205 OFFCURVE",
"28 218 OFFCURVE",
"35 237 CURVE",
"36 241 OFFCURVE",
"38 247 OFFCURVE",
"41 255 CURVE",
"43 263 OFFCURVE",
"45 270 OFFCURVE",
"48 277 CURVE",
"50 283 OFFCURVE",
"53 289 OFFCURVE",
"56 294 CURVE",
"78 327 OFFCURVE",
"91 345 OFFCURVE",
"96 349 CURVE",
"102 355 OFFCURVE",
"110 364 OFFCURVE",
"119 376 CURVE",
"122 379 OFFCURVE",
"124 379 OFFCURVE",
"127 375 CURVE",
"130 370 OFFCURVE",
"130 364 OFFCURVE",
"126 359 CURVE",
"123 354 OFFCURVE",
"118 348 OFFCURVE",
"111 339 CURVE SMOOTH",
"104 330 OFFCURVE",
"98 324 OFFCURVE",
"95 320 CURVE",
"93 316 LINE"
);
},
{
closed = 1;
nodes = (
"173 170 OFFCURVE",
"176 171 OFFCURVE",
"177 173 CURVE",
"180 180 OFFCURVE",
"186 188 OFFCURVE",
"195 195 CURVE",
"196 196 OFFCURVE",
"197 198 OFFCURVE",
"196 200 CURVE",
"195 203 OFFCURVE",
"193 206 OFFCURVE",
"191 211 CURVE SMOOTH",
"189 216 OFFCURVE",
"187 219 OFFCURVE",
"186 221 CURVE SMOOTH",
"185 223 OFFCURVE",
"183 225 OFFCURVE",
"181 226 CURVE",
"173 231 OFFCURVE",
"167 235 OFFCURVE",
"162 238 CURVE",
"159 239 OFFCURVE",
"157 240 OFFCURVE",
"156 239 CURVE",
"154 238 OFFCURVE",
"151 237 OFFCURVE",
"148 236 CURVE",
"145 234 OFFCURVE",
"142 233 OFFCURVE",
"141 232 CURVE SMOOTH",
"140 231 OFFCURVE",
"138 231 OFFCURVE",
"135 230 CURVE SMOOTH",
"132 229 OFFCURVE",
"129 228 OFFCURVE",
"128 227 CURVE",
"121 224 OFFCURVE",
"115 217 OFFCURVE",
"111 204 CURVE SMOOTH",
"109 198 OFFCURVE",
"110 193 OFFCURVE",
"115 188 CURVE",
"121 181 OFFCURVE",
"127 175 OFFCURVE",
"132 168 CURVE",
"133 167 OFFCURVE",
"135 166 OFFCURVE",
"138 167 CURVE",
"150 170 OFFCURVE",
"160 171 OFFCURVE",
"167 170 CURVE"
);
},
{
closed = 1;
nodes = (
"346 69 LINE",
"345 68 OFFCURVE",
"344 67 OFFCURVE",
"342 66 CURVE",
"339 65 OFFCURVE",
"337 63 OFFCURVE",
"336 62 CURVE",
"322 49 OFFCURVE",
"304 39 OFFCURVE",
"283 32 CURVE",
"276 29 OFFCURVE",
"264 27 OFFCURVE",
"248 26 CURVE",
"245 25 OFFCURVE",
"242 27 OFFCURVE",
"241 30 CURVE SMOOTH",
"240 33 OFFCURVE",
"240 35 OFFCURVE",
"242 38 CURVE",
"247 43 OFFCURVE",
"250 45 OFFCURVE",
"253 46 CURVE",
"257 47 OFFCURVE",
"263 49 OFFCURVE",
"272 52 CURVE",
"280 54 OFFCURVE",
"286 56 OFFCURVE",
"290 57 CURVE",
"293 58 OFFCURVE",
"298 61 OFFCURVE",
"303 65 CURVE",
"306 67 OFFCURVE",
"310 70 OFFCURVE",
"315 75 CURVE",
"320 79 OFFCURVE",
"324 82 OFFCURVE",
"327 84 CURVE",
"328 85 OFFCURVE",
"329 87 OFFCURVE",
"329 88 CURVE",
"328 87 OFFCURVE",
"326 86 OFFCURVE",
"323 85 CURVE SMOOTH",
"320 84 OFFCURVE",
"317 83 OFFCURVE",
"316 82 CURVE",
"299 76 OFFCURVE",
"288 73 OFFCURVE",
"284 72 CURVE",
"280 72 OFFCURVE",
"269 73 OFFCURVE",
"251 74 CURVE",
"249 74 OFFCURVE",
"247 75 OFFCURVE",
"244 78 CURVE",
"242 79 OFFCURVE",
"239 82 OFFCURVE",
"235 86 CURVE",
"230 90 OFFCURVE",
"227 93 OFFCURVE",
"224 94 CURVE",
"215 101 OFFCURVE",
"216 106 OFFCURVE",
"227 109 CURVE SMOOTH",
"231 110 OFFCURVE",
"235 110 OFFCURVE",
"238 108 CURVE",
"240 107 OFFCURVE",
"243 105 OFFCURVE",
"247 102 CURVE SMOOTH",
"251 99 OFFCURVE",
"254 97 OFFCURVE",
"255 96 CURVE",
"258 95 OFFCURVE",
"260 94 OFFCURVE",
"261 94 CURVE SMOOTH",
"266 94 OFFCURVE",
"274 95 OFFCURVE",
"283 96 CURVE",
"286 96 OFFCURVE",
"290 97 OFFCURVE",
"293 99 CURVE",
"296 102 OFFCURVE",
"301 105 OFFCURVE",
"307 110 CURVE",
"313 114 OFFCURVE",
"318 117 OFFCURVE",
"321 120 CURVE",
"322 120 OFFCURVE",
"323 122 OFFCURVE",
"324 127 CURVE",
"317 122 OFFCURVE",
"304 119 OFFCURVE",
"285 118 CURVE",
"276 117 OFFCURVE",
"269 120 OFFCURVE",
"262 125 CURVE SMOOTH",
"259 127 OFFCURVE",
"254 130 OFFCURVE",
"248 135 CURVE",
"241 140 OFFCURVE",
"237 143 OFFCURVE",
"234 146 CURVE SMOOTH",
"231 149 OFFCURVE",
"230 151 OFFCURVE",
"230 154 CURVE SMOOTH",
"230 160 OFFCURVE",
"231 169 OFFCURVE",
"232 181 CURVE",
"232 186 OFFCURVE",
"232 189 OFFCURVE",
"231 190 CURVE",
"231 194 LINE SMOOTH",
"231 195 OFFCURVE",
"232 197 OFFCURVE",
"233 200 CURVE",
"234 202 OFFCURVE",
"234 204 OFFCURVE",
"235 205 CURVE",
"238 211 OFFCURVE",
"240 218 OFFCURVE",
"242 225 CURVE",
"245 234 OFFCURVE",
"252 240 OFFCURVE",
"261 243 CURVE",
"278 248 OFFCURVE",
"299 255 OFFCURVE",
"323 263 CURVE SMOOTH",
"332 266 OFFCURVE",
"341 267 OFFCURVE",
"349 265 CURVE",
"366 260 OFFCURVE",
"383 262 OFFCURVE",
"401 271 CURVE",
"402 272 OFFCURVE",
"405 273 OFFCURVE",
"410 276 CURVE",
"414 278 OFFCURVE",
"417 280 OFFCURVE",
"420 281 CURVE",
"426 274 OFFCURVE",
"431 264 OFFCURVE",
"435 249 CURVE SMOOTH",
"440 232 OFFCURVE",
"441 212 OFFCURVE",
"439 188 CURVE",
"439 185 OFFCURVE",
"437 183 OFFCURVE",
"432 182 CURVE",
"423 179 OFFCURVE",
"416 171 OFFCURVE",
"411 160 CURVE SMOOTH",
"408 153 OFFCURVE",
"404 143 OFFCURVE",
"400 128 CURVE",
"393 108 OFFCURVE",
"387 94 OFFCURVE",
"381 85 CURVE",
"378 82 OFFCURVE",
"375 77 OFFCURVE",
"371 70 CURVE",
"366 63 OFFCURVE",
"363 58 OFFCURVE",
"361 55 CURVE SMOOTH",
"359 52 OFFCURVE",
"356 49 OFFCURVE",
"352 44 CURVE",
"347 39 OFFCURVE",
"344 35 OFFCURVE",
"342 32 CURVE",
"321 8 LINE",
"318 5 OFFCURVE",
"315 5 OFFCURVE",
"313 9 CURVE",
"310 14 OFFCURVE",
"311 19 OFFCURVE",
"315 25 CURVE",
"318 30 OFFCURVE",
"323 36 OFFCURVE",
"330 45 CURVE",
"337 53 OFFCURVE",
"342 59 OFFCURVE",
"345 63 CURVE",
"346 64 OFFCURVE",
"346 64 OFFCURVE",
"346 65 CURVE",
"347 66 OFFCURVE",
"347 67 OFFCURVE",
"347 68 CURVE"
);
},
{
closed = 1;
nodes = (
"249 175 OFFCURVE",
"252 167 OFFCURVE",
"255 162 CURVE",
"256 160 OFFCURVE",
"257 159 OFFCURVE",
"259 158 CURVE SMOOTH",
"261 157 OFFCURVE",
"264 155 OFFCURVE",
"269 152 CURVE",
"273 149 OFFCURVE",
"276 147 OFFCURVE",
"278 146 CURVE",
"281 145 OFFCURVE",
"283 144 OFFCURVE",
"285 145 CURVE",
"288 146 OFFCURVE",
"292 147 OFFCURVE",
"297 150 CURVE",
"302 152 OFFCURVE",
"305 154 OFFCURVE",
"308 155 CURVE SMOOTH",
"317 158 OFFCURVE",
"323 163 OFFCURVE",
"325 169 CURVE",
"326 171 OFFCURVE",
"327 175 OFFCURVE",
"329 182 CURVE",
"330 187 OFFCURVE",
"329 192 OFFCURVE",
"326 195 CURVE SMOOTH",
"321 200 OFFCURVE",
"315 207 OFFCURVE",
"307 216 CURVE",
"306 217 OFFCURVE",
"305 217 OFFCURVE",
"303 217 CURVE",
"290 214 OFFCURVE",
"279 213 OFFCURVE",
"270 214 CURVE",
"266 214 OFFCURVE",
"264 213 OFFCURVE",
"263 211 CURVE",
"260 208 OFFCURVE",
"257 203 OFFCURVE",
"253 197 CURVE SMOOTH",
"249 191 OFFCURVE",
"246 187 OFFCURVE",
"245 186 CURVE"
);
}
);
width = 440;
}
);
unicode = F111;
},
{
glyphname = uniF112;
layers = (
{
layerId = "EBF4EA88-05C0-40D0-B291-B170F4B137C3";
name = Regular;
paths = (
{
closed = 1;
nodes = (
"338 140 LINE",
"343 137 OFFCURVE",
"344 133 OFFCURVE",
"342 128 CURVE",
"342 126 LINE",
"341 126 LINE",
"313 77 LINE SMOOTH",
"310 72 OFFCURVE",
"305 71 OFFCURVE",
"299 74 CURVE",
"298 74 OFFCURVE",
"298 74 OFFCURVE",
"297 75 CURVE",
"210 125 LINE",
"210 22 LINE",
"210 22 LINE",
"210 17 OFFCURVE",
"207 13 OFFCURVE",
"201 12 CURVE",
"143 12 LINE SMOOTH",
"136 12 OFFCURVE",
"133 15 OFFCURVE",
"133 22 CURVE SMOOTH",
"133 25 LINE",
"133 125 LINE",
"44 74 LINE",
"44 74 LINE",
"39 70 OFFCURVE",
"35 71 OFFCURVE",
"31 76 CURVE",
"1 127 LINE",
"-2 133 OFFCURVE",
"-1 138 OFFCURVE",
"5 141 CURVE",
"6 141 OFFCURVE",
"6 141 OFFCURVE",
"6 142 CURVE",
"6 142 OFFCURVE",
"6 142 OFFCURVE",
"7 142 CURVE",
"95 192 LINE",
"5 243 LINE",
"5 244 LINE",
"5 244 LINE",
"-1 247 OFFCURVE",
"-2 252 OFFCURVE",
"1 257 CURVE SMOOTH",
"30 306 LINE",
"30 307 LINE",
"33 313 OFFCURVE",
"38 314 OFFCURVE",
"44 311 CURVE",
"133 259 LINE",
"133 362 LINE SMOOTH",
"133 369 OFFCURVE",
"136 372 OFFCURVE",
"143 372 CURVE SMOOTH",
"200 372 LINE",
"200 372 LINE",
"207 372 OFFCURVE",
"210 369 OFFCURVE",
"210 362 CURVE SMOOTH",
"210 259 LINE",
"300 310 LINE SMOOTH",
"305 313 OFFCURVE",
"310 312 OFFCURVE",
"313 307 CURVE SMOOTH",
"341 258 LINE",
"342 257 LINE",
"345 251 OFFCURVE",
"344 246 OFFCURVE",
"338 243 CURVE",
"249 192 LINE",
"338 141 LINE"
);
}
);
width = 343;
}
);
unicode = F112;
},
{
glyphname = uniF113;
layers = (
{
layerId = "EBF4EA88-05C0-40D0-B291-B170F4B137C3";
name = Regular;
paths = (
{
closed = 1;
nodes = (
"384 183 LINE SMOOTH",
"384 148 OFFCURVE",
"376 123 OFFCURVE",
"359 106 CURVE SMOOTH",
"342 89 OFFCURVE",
"322 81 OFFCURVE",
"299 81 CURVE SMOOTH",
"285 81 OFFCURVE",
"269 86 OFFCURVE",
"251 95 CURVE SMOOTH",
"232 104 OFFCURVE",
"222 112 OFFCURVE",
"221 120 CURVE",
"221 123 LINE",
"204 99 OFFCURVE",
"182 87 OFFCURVE",
"156 87 CURVE SMOOTH",
"135 87 OFFCURVE",
"118 94 OFFCURVE",
"105 108 CURVE",
"92 121 OFFCURVE",
"86 139 OFFCURVE",
"86 162 CURVE SMOOTH",
"86 191 OFFCURVE",
"96 217 OFFCURVE",
"117 240 CURVE SMOOTH",
"138 262 OFFCURVE",
"161 273 OFFCURVE",
"188 273 CURVE SMOOTH",
"215 273 OFFCURVE",
"233 263 OFFCURVE",
"244 243 CURVE",
"248 261 LINE",
"249 264 OFFCURVE",
"252 266 OFFCURVE",
"255 266 CURVE SMOOTH",
"292 266 LINE SMOOTH",
"297 266 OFFCURVE",
"299 264 OFFCURVE",
"299 260 CURVE",
"298 258 LINE",
"299 258 LINE",
"277 157 LINE",
"277 156 OFFCURVE",
"277 155 OFFCURVE",
"277 152 CURVE",
"276 149 OFFCURVE",
"276 147 OFFCURVE",
"276 146 CURVE SMOOTH",
"276 132 OFFCURVE",
"282 125 OFFCURVE",
"293 125 CURVE SMOOTH",
"303 125 OFFCURVE",
"312 132 OFFCURVE",
"320 147 CURVE SMOOTH",
"328 162 OFFCURVE",
"332 181 OFFCURVE",
"332 205 CURVE",
"329 241 OFFCURVE",
"314 271 OFFCURVE",
"287 296 CURVE SMOOTH",
"260 321 OFFCURVE",
"229 333 OFFCURVE",
"192 333 CURVE SMOOTH",
"153 333 OFFCURVE",
"120 319 OFFCURVE",
"93 292 CURVE SMOOTH",
"65 264 OFFCURVE",
"51 231 OFFCURVE",
"51 192 CURVE SMOOTH",
"51 153 OFFCURVE",
"65 120 OFFCURVE",
"93 93 CURVE",
"120 65 OFFCURVE",
"153 51 OFFCURVE",
"192 51 CURVE SMOOTH",
"212 51 OFFCURVE",
"230 54 OFFCURVE",
"245 61 CURVE",
"246 61 OFFCURVE",
"247 61 OFFCURVE",
"248 62 CURVE",
"250 62 OFFCURVE",
"252 61 OFFCURVE",
"253 60 CURVE",
"287 39 LINE",
"290 38 OFFCURVE",
"291 36 OFFCURVE",
"291 32 CURVE SMOOTH",
"291 29 OFFCURVE",
"289 26 OFFCURVE",
"286 25 CURVE",
"257 8 OFFCURVE",
"225 0 OFFCURVE",
"192 0 CURVE SMOOTH",
"139 0 OFFCURVE",
"93 19 OFFCURVE",
"56 56 CURVE SMOOTH",
"19 93 OFFCURVE",
"0 139 OFFCURVE",
"0 192 CURVE SMOOTH",
"0 245 OFFCURVE",
"19 291 OFFCURVE",
"56 328 CURVE SMOOTH",
"93 365 OFFCURVE",
"139 384 OFFCURVE",
"192 384 CURVE SMOOTH",
"245 384 OFFCURVE",
"291 365 OFFCURVE",
"328 328 CURVE SMOOTH",
"365 291 OFFCURVE",
"384 245 OFFCURVE",
"384 192 CURVE SMOOTH"
);
},
{
closed = 1;
nodes = (
"237 209 LINE",
"230 224 OFFCURVE",
"218 232 OFFCURVE",
"201 232 CURVE SMOOTH",
"184 232 OFFCURVE",
"169 226 OFFCURVE",
"157 213 CURVE SMOOTH",
"145 200 OFFCURVE",
"139 184 OFFCURVE",
"139 167 CURVE SMOOTH",
"139 155 OFFCURVE",
"142 145 OFFCURVE",
"149 138 CURVE SMOOTH",
"156 131 OFFCURVE",
"165 127 OFFCURVE",
"176 127 CURVE SMOOTH",
"195 127 OFFCURVE",
"212 137 OFFCURVE",
"226 157 CURVE"
);
}
);
width = 384;
}
);
unicode = F113;
},
{
glyphname = uniF114;
layers = (
{
layerId = "EBF4EA88-05C0-40D0-B291-B170F4B137C3";
name = Regular;
paths = (
{
closed = 1;
nodes = (
"122 53 LINE",
"255 53 LINE",
"272 8 LINE",
"105 8 LINE"
);
},
{
closed = 1;
nodes = (
"136 98 LINE",
"188 236 LINE",
"241 98 LINE"
);
},
{
closed = 1;
nodes = (
"333 376 LINE SMOOTH",
"343 376 OFFCURVE",
"352 373 OFFCURVE",
"359 366 CURVE SMOOTH",
"366 359 OFFCURVE",
"369 350 OFFCURVE",
"369 340 CURVE SMOOTH",
"369 44 LINE SMOOTH",
"369 34 OFFCURVE",
"366 26 OFFCURVE",
"359 19 CURVE SMOOTH",
"352 12 OFFCURVE",
"343 8 OFFCURVE",
"333 8 CURVE SMOOTH",
"330 8 LINE",
"224 278 LINE",
"221 284 OFFCURVE",
"217 287 OFFCURVE",
"211 287 CURVE SMOOTH",
"166 287 LINE SMOOTH",
"160 287 OFFCURVE",
"156 284 OFFCURVE",
"153 278 CURVE",
"47 8 LINE",
"36 8 LINE SMOOTH",
"26 8 OFFCURVE",
"18 12 OFFCURVE",
"11 19 CURVE SMOOTH",
"4 26 OFFCURVE",
"0 34 OFFCURVE",
"0 44 CURVE SMOOTH",
"0 340 LINE SMOOTH",
"0 350 OFFCURVE",
"4 359 OFFCURVE",
"11 366 CURVE SMOOTH",
"18 373 OFFCURVE",
"26 376 OFFCURVE",
"36 376 CURVE SMOOTH"
);
}
);
width = 369;
}
);
unicode = F114;
},
{
glyphname = uniF115;
layers = (
{
layerId = "EBF4EA88-05C0-40D0-B291-B170F4B137C3";
name = Regular;
paths = (
{
closed = 1;
nodes = (
"476 236 LINE SMOOTH",
"481 236 OFFCURVE",
"484 233 OFFCURVE",
"484 227 CURVE SMOOTH",
"484 165 LINE SMOOTH",
"484 159 OFFCURVE",
"481 156 OFFCURVE",
"476 156 CURVE SMOOTH",
"436 156 LINE",
"436 61 LINE",
"436 61 LINE",
"436 55 OFFCURVE",
"433 52 OFFCURVE",
"427 52 CURVE SMOOTH",
"9 52 LINE SMOOTH",
"3 52 OFFCURVE",
"0 55 OFFCURVE",
"0 61 CURVE",
"0 61 LINE",
"0 323 LINE",
"0 323 LINE",
"0 329 OFFCURVE",
"3 332 OFFCURVE",
"9 332 CURVE SMOOTH",
"427 332 LINE SMOOTH",
"433 332 OFFCURVE",
"436 329 OFFCURVE",
"436 323 CURVE",
"436 323 LINE",
"436 236 LINE"
);
},
{
closed = 1;
nodes = (
"385 103 LINE",
"385 280 LINE",
"52 280 LINE",
"52 103 LINE"
);
}
);
width = 484;
}
);
unicode = F115;
},
{
glyphname = uniF116;
layers = (
{
layerId = "EBF4EA88-05C0-40D0-B291-B170F4B137C3";
name = Regular;
paths = (
{
closed = 1;
nodes = (
"476 236 LINE SMOOTH",
"481 236 OFFCURVE",
"484 233 OFFCURVE",
"484 227 CURVE SMOOTH",
"484 165 LINE SMOOTH",
"484 159 OFFCURVE",
"481 156 OFFCURVE",
"476 156 CURVE SMOOTH",
"436 156 LINE",
"436 61 LINE",
"436 61 LINE",
"436 55 OFFCURVE",
"433 52 OFFCURVE",
"427 52 CURVE SMOOTH",
"9 52 LINE SMOOTH",
"3 52 OFFCURVE",
"0 55 OFFCURVE",
"0 61 CURVE",
"0 61 LINE",
"0 323 LINE",
"0 323 LINE",
"0 329 OFFCURVE",
"3 332 OFFCURVE",
"9 332 CURVE SMOOTH",
"427 332 LINE SMOOTH",
"433 332 OFFCURVE",
"436 329 OFFCURVE",
"436 323 CURVE",
"436 323 LINE",
"436 236 LINE"
);
},
{
closed = 1;
nodes = (
"385 103 LINE",
"385 280 LINE",
"52 280 LINE",
"52 103 LINE"
);
},
{
closed = 1;
nodes = (
"78 128 LINE",
"78 257 LINE",
"359 257 LINE",
"359 128 LINE"
);
}
);
width = 484;
}
);
unicode = F116;
},
{
glyphname = uniF117;
layers = (
{
layerId = "EBF4EA88-05C0-40D0-B291-B170F4B137C3";
name = Regular;
paths = (
{
closed = 1;
nodes = (
"476 236 LINE SMOOTH",
"481 236 OFFCURVE",
"484 233 OFFCURVE",
"484 227 CURVE SMOOTH",
"484 165 LINE SMOOTH",
"484 159 OFFCURVE",
"481 156 OFFCURVE",
"476 156 CURVE SMOOTH",
"436 156 LINE",
"436 61 LINE",
"436 61 LINE",
"436 55 OFFCURVE",
"433 52 OFFCURVE",
"427 52 CURVE SMOOTH",
"9 52 LINE SMOOTH",
"3 52 OFFCURVE",
"0 55 OFFCURVE",
"0 61 CURVE",
"0 61 LINE",
"0 323 LINE",
"0 323 LINE",
"0 329 OFFCURVE",
"3 332 OFFCURVE",
"9 332 CURVE SMOOTH",
"427 332 LINE SMOOTH",
"433 332 OFFCURVE",
"436 329 OFFCURVE",
"436 323 CURVE",
"436 323 LINE",
"436 236 LINE"
);
},
{
closed = 1;
nodes = (
"385 103 LINE",
"385 280 LINE",
"52 280 LINE",
"52 103 LINE"
);
},
{
closed = 1;
nodes = (
"276 255 LINE",
"226 129 LINE",
"77 129 LINE",
"77 255 LINE"
);
}
);
width = 484;
}
);
unicode = F117;
},
{
glyphname = uniF118;
layers = (
{
layerId = "EBF4EA88-05C0-40D0-B291-B170F4B137C3";
name = Regular;
paths = (
{
closed = 1;
nodes = (
"191 253 LINE",
"192 253 OFFCURVE",
"194 253 OFFCURVE",
"198 252 CURVE",
"201 251 OFFCURVE",
"204 250 OFFCURVE",
"206 250 CURVE",
"208 249 OFFCURVE",
"211 248 OFFCURVE",
"215 247 CURVE SMOOTH",
"219 246 OFFCURVE",
"222 244 OFFCURVE",
"224 243 CURVE",
"225 242 OFFCURVE",
"228 240 OFFCURVE",
"231 237 CURVE SMOOTH",
"234 234 OFFCURVE",
"236 232 OFFCURVE",
"236 230 CURVE",
"235 227 OFFCURVE",
"235 224 OFFCURVE",
"235 220 CURVE",
"232 206 OFFCURVE",
"213 203 OFFCURVE",
"180 211 CURVE"
);
},
{
closed = 1;
nodes = (
"175 190 LINE",
"176 190 OFFCURVE",
"179 189 OFFCURVE",
"184 188 CURVE SMOOTH",
"189 187 OFFCURVE",
"194 186 OFFCURVE",
"197 185 CURVE SMOOTH",
"200 184 OFFCURVE",
"205 182 OFFCURVE",
"210 180 CURVE",
"215 177 OFFCURVE",
"218 175 OFFCURVE",
"221 173 CURVE",
"224 170 OFFCURVE",
"226 167 OFFCURVE",
"228 164 CURVE",
"229 160 OFFCURVE",
"229 156 OFFCURVE",
"228 152 CURVE",
"223 135 OFFCURVE",
"202 132 OFFCURVE",
"164 143 CURVE"
);
},
{
closed = 1;
nodes = (
"289 365 OFFCURVE",
"329 336 OFFCURVE",
"356 291 CURVE SMOOTH",
"383 246 OFFCURVE",
"391 197 OFFCURVE",
"378 146 CURVE SMOOTH",
"365 95 OFFCURVE",
"336 55 OFFCURVE",
"291 28 CURVE SMOOTH",
"246 1 OFFCURVE",
"197 -7 OFFCURVE",
"146 6 CURVE SMOOTH",
"95 19 OFFCURVE",
"55 49 OFFCURVE",
"28 94 CURVE SMOOTH",
"1 139 OFFCURVE",
"-7 187 OFFCURVE",
"6 238 CURVE SMOOTH",
"19 289 OFFCURVE",
"49 329 OFFCURVE",
"94 356 CURVE SMOOTH",
"139 383 OFFCURVE",
"187 391 OFFCURVE",
"238 378 CURVE SMOOTH"
);
},
{
closed = 1;
nodes = (
"280 241 OFFCURVE",
"266 257 OFFCURVE",
"234 268 CURVE",
"243 302 LINE",
"222 308 LINE",
"214 274 LINE",
"212 274 OFFCURVE",
"209 275 OFFCURVE",
"206 276 CURVE",
"202 277 OFFCURVE",
"199 278 OFFCURVE",
"197 278 CURVE",
"205 312 LINE",
"184 317 LINE",
"175 283 LINE",
"172 284 OFFCURVE",
"167 285 OFFCURVE",
"162 286 CURVE",
"133 293 LINE",
"127 271 LINE",
"143 267 LINE",
"149 266 OFFCURVE",
"152 261 OFFCURVE",
"152 254 CURVE",
"143 215 LINE",
"144 215 OFFCURVE",
"144 215 OFFCURVE",
"144 215 CURVE",
"144 214 OFFCURVE",
"144 214 OFFCURVE",
"145 214 CURVE",
"144 214 OFFCURVE",
"144 214 OFFCURVE",
"144 215 CURVE",
"144 215 OFFCURVE",
"144 215 OFFCURVE",
"143 215 CURVE",
"129 160 LINE SMOOTH",
"128 156 OFFCURVE",
"124 154 OFFCURVE",
"119 155 CURVE SMOOTH",
"104 158 LINE",
"93 134 LINE",
"121 128 LINE",
"123 128 OFFCURVE",
"126 128 OFFCURVE",
"129 127 CURVE SMOOTH",
"132 126 OFFCURVE",
"135 125 OFFCURVE",
"136 124 CURVE",
"127 89 LINE",
"148 83 LINE",
"157 118 LINE",
"160 117 OFFCURVE",
"165 115 OFFCURVE",
"174 114 CURVE",
"165 79 LINE",
"186 74 LINE",
"195 109 LINE",
"235 101 OFFCURVE",
"260 110 OFFCURVE",
"269 137 CURVE SMOOTH",
"277 160 OFFCURVE",
"271 177 OFFCURVE",
"250 188 CURVE",
"265 191 OFFCURVE",
"274 202 OFFCURVE",
"277 219 CURVE"
);
}
);
width = 384;
}
);
unicode = F118;
},
{
glyphname = uniF119;
layers = (
{
layerId = "EBF4EA88-05C0-40D0-B291-B170F4B137C3";
name = Regular;
paths = (
{
closed = 1;
nodes = (
"248 197 OFFCURVE",
"263 175 OFFCURVE",
"260 138 CURVE",
"257 114 OFFCURVE",
"248 97 OFFCURVE",
"232 87 CURVE SMOOTH",
"215 77 OFFCURVE",
"192 71 OFFCURVE",
"162 70 CURVE",
"162 23 LINE",
"162 23 LINE",
"162 18 OFFCURVE",
"160 16 OFFCURVE",
"156 16 CURVE SMOOTH",
"156 16 LINE",
"136 16 LINE",
"136 16 LINE SMOOTH",
"132 16 OFFCURVE",
"130 18 OFFCURVE",
"130 23 CURVE SMOOTH",
"130 69 LINE",
"127 69 OFFCURVE",
"123 69 OFFCURVE",
"118 70 CURVE",
"112 70 OFFCURVE",
"107 70 OFFCURVE",
"104 70 CURVE",
"104 23 LINE",
"104 23 LINE",
"104 18 OFFCURVE",
"102 16 OFFCURVE",
"98 16 CURVE SMOOTH",
"98 16 LINE",
"78 16 LINE",
"78 16 LINE SMOOTH",
"74 16 OFFCURVE",
"72 18 OFFCURVE",
"72 23 CURVE SMOOTH",
"72 70 LINE",
"49 70 LINE",
"7 70 LINE SMOOTH",
"3 70 OFFCURVE",
"1 72 OFFCURVE",
"1 77 CURVE",
"1 77 LINE",
"6 104 LINE",
"7 104 LINE",
"8 107 OFFCURVE",
"10 109 OFFCURVE",
"13 109 CURVE",
"13 109 LINE",
"36 109 LINE SMOOTH",
"43 109 OFFCURVE",
"47 113 OFFCURVE",
"49 120 CURVE",
"49 205 LINE",
"49 266 LINE",
"48 275 OFFCURVE",
"41 280 OFFCURVE",
"30 280 CURVE SMOOTH",
"6 280 LINE",
"6 280 LINE SMOOTH",
"2 280 OFFCURVE",
"0 282 OFFCURVE",
"0 286 CURVE SMOOTH",
"0 308 LINE SMOOTH",
"0 312 OFFCURVE",
"2 314 OFFCURVE",
"6 314 CURVE SMOOTH",
"51 314 LINE",
"72 314 LINE",
"72 361 LINE",
"72 361 LINE",
"72 366 OFFCURVE",
"74 368 OFFCURVE",
"78 368 CURVE",
"78 368 LINE",
"78 368 LINE",
"98 368 LINE",
"98 368 LINE",
"102 368 OFFCURVE",
"104 366 OFFCURVE",
"104 361 CURVE SMOOTH",
"104 315 LINE",
"107 315 OFFCURVE",
"111 315 OFFCURVE",
"117 316 CURVE",
"123 316 OFFCURVE",
"127 316 OFFCURVE",
"130 316 CURVE",
"130 361 LINE",
"130 361 LINE",
"130 366 OFFCURVE",
"132 368 OFFCURVE",
"136 368 CURVE",
"136 368 LINE",
"136 368 LINE",
"156 368 LINE",
"156 368 LINE",
"160 368 OFFCURVE",
"162 366 OFFCURVE",
"162 361 CURVE SMOOTH",
"162 314 LINE",
"211 309 OFFCURVE",
"238 291 OFFCURVE",
"241 260 CURVE SMOOTH",
"244 235 OFFCURVE",
"234 216 OFFCURVE",
"213 205 CURVE"
);
},
{
closed = 1;
nodes = (
"105 213 LINE",
"106 213 OFFCURVE",
"108 213 OFFCURVE",
"113 213 CURVE SMOOTH",
"118 213 OFFCURVE",
"122 213 OFFCURVE",
"125 213 CURVE SMOOTH",
"128 213 OFFCURVE",
"132 213 OFFCURVE",
"137 214 CURVE",
"142 214 OFFCURVE",
"147 214 OFFCURVE",
"150 215 CURVE SMOOTH",
"153 216 OFFCURVE",
"157 217 OFFCURVE",
"162 219 CURVE",
"166 220 OFFCURVE",
"169 222 OFFCURVE",
"172 225 CURVE",
"175 227 OFFCURVE",
"177 230 OFFCURVE",
"179 233 CURVE",
"180 236 OFFCURVE",
"181 240 OFFCURVE",
"181 245 CURVE SMOOTH",
"181 250 OFFCURVE",
"180 255 OFFCURVE",
"178 259 CURVE SMOOTH",
"176 263 OFFCURVE",
"173 266 OFFCURVE",
"169 268 CURVE SMOOTH",
"165 270 OFFCURVE",
"161 272 OFFCURVE",
"157 274 CURVE",
"153 275 OFFCURVE",
"148 276 OFFCURVE",
"142 277 CURVE",
"136 277 OFFCURVE",
"131 277 OFFCURVE",
"128 277 CURVE SMOOTH",
"125 277 OFFCURVE",
"120 277 OFFCURVE",
"115 277 CURVE SMOOTH",
"109 277 OFFCURVE",
"106 277 OFFCURVE",
"105 277 CURVE"
);
},
{
closed = 1;
nodes = (
"105 109 LINE",
"106 109 OFFCURVE",
"109 109 OFFCURVE",
"114 109 CURVE SMOOTH",
"119 109 OFFCURVE",
"123 109 OFFCURVE",
"126 109 CURVE SMOOTH",
"129 109 OFFCURVE",
"133 109 OFFCURVE",
"138 109 CURVE SMOOTH",
"143 109 OFFCURVE",
"148 109 OFFCURVE",
"152 110 CURVE SMOOTH",
"156 111 OFFCURVE",
"161 112 OFFCURVE",
"166 113 CURVE SMOOTH",
"171 114 OFFCURVE",
"175 115 OFFCURVE",
"178 117 CURVE SMOOTH",
"181 119 OFFCURVE",
"184 121 OFFCURVE",
"187 124 CURVE",
"190 126 OFFCURVE",
"192 129 OFFCURVE",
"194 133 CURVE",
"195 136 OFFCURVE",
"196 140 OFFCURVE",
"196 144 CURVE SMOOTH",
"196 150 OFFCURVE",
"195 155 OFFCURVE",
"193 160 CURVE",
"190 164 OFFCURVE",
"187 167 OFFCURVE",
"182 170 CURVE",
"177 172 OFFCURVE",
"172 174 OFFCURVE",
"168 176 CURVE",
"163 177 OFFCURVE",
"157 178 OFFCURVE",
"150 179 CURVE SMOOTH",
"142 180 OFFCURVE",
"136 180 OFFCURVE",
"133 180 CURVE SMOOTH",
"130 180 OFFCURVE",
"124 180 OFFCURVE",
"117 180 CURVE SMOOTH",
"110 180 OFFCURVE",
"106 180 OFFCURVE",
"105 180 CURVE"
);
}
);
width = 260;
}
);
unicode = F119;
},
{
glyphname = uniF11A;
layers = (
{
layerId = "EBF4EA88-05C0-40D0-B291-B170F4B137C3";
name = Regular;
paths = (
{
closed = 1;
nodes = (
"91 371 OFFCURVE",
"103 383 OFFCURVE",
"127 383 CURVE SMOOTH",
"152 383 OFFCURVE",
"164 371 OFFCURVE",
"164 347 CURVE SMOOTH",
"164 322 OFFCURVE",
"152 310 OFFCURVE",
"127 310 CURVE SMOOTH",
"103 310 OFFCURVE",
"91 322 OFFCURVE",
"91 347 CURVE SMOOTH"
);
},
{
closed = 1;
nodes = (
"341 15 LINE",
"342 14 OFFCURVE",
"342 13 OFFCURVE",
"342 12 CURVE SMOOTH",
"342 8 OFFCURVE",
"340 6 OFFCURVE",
"336 6 CURVE SMOOTH",
"333 6 OFFCURVE",
"332 7 OFFCURVE",
"331 9 CURVE",
"331 9 LINE",
"331 10 LINE",
"224 194 LINE",
"221 194 LINE SMOOTH",
"218 194 OFFCURVE",
"216 195 OFFCURVE",
"213 196 CURVE",
"213 196 LINE",
"213 197 LINE",
"212 197 LINE",
"177 217 LINE",
"177 217 LINE",
"177 217 LINE",
"154 240 LINE",
"154 164 LINE",
"199 120 LINE",
"248 35 LINE",
"251 32 OFFCURVE",
"252 27 OFFCURVE",
"252 22 CURVE SMOOTH",
"252 16 OFFCURVE",
"250 11 OFFCURVE",
"246 7 CURVE SMOOTH",
"242 3 OFFCURVE",
"237 1 OFFCURVE",
"231 1 CURVE SMOOTH",
"222 1 OFFCURVE",
"216 5 OFFCURVE",
"212 12 CURVE SMOOTH",
"165 93 LINE",
"128 130 LINE",
"87 58 LINE",
"38 9 LINE",
"34 4 OFFCURVE",
"28 1 OFFCURVE",
"21 1 CURVE SMOOTH",
"15 1 OFFCURVE",
"10 3 OFFCURVE",
"6 7 CURVE SMOOTH",
"2 11 OFFCURVE",
"0 16 OFFCURVE",
"0 22 CURVE SMOOTH",
"0 29 OFFCURVE",
"2 34 OFFCURVE",
"7 38 CURVE",
"52 83 LINE",
"88 145 LINE",
"88 241 LINE",
"69 223 LINE",
"69 171 LINE SMOOTH",
"69 166 OFFCURVE",
"68 163 OFFCURVE",
"65 160 CURVE SMOOTH",
"62 157 OFFCURVE",
"59 156 OFFCURVE",
"54 156 CURVE SMOOTH",
"51 156 OFFCURVE",
"49 157 OFFCURVE",
"46 158 CURVE SMOOTH",
"43 159 OFFCURVE",
"41 161 OFFCURVE",
"40 164 CURVE SMOOTH",
"39 167 OFFCURVE",
"38 169 OFFCURVE",
"38 171 CURVE SMOOTH",
"38 233 LINE",
"39 233 LINE",
"38 233 LINE",
"38 234 OFFCURVE",
"39 235 OFFCURVE",
"40 236 CURVE SMOOTH",
"94 291 LINE SMOOTH",
"101 298 OFFCURVE",
"110 302 OFFCURVE",
"121 302 CURVE SMOOTH",
"133 302 OFFCURVE",
"142 298 OFFCURVE",
"149 289 CURVE",
"196 242 LINE",
"227 224 LINE",
"233 221 OFFCURVE",
"236 217 OFFCURVE",
"236 210 CURVE SMOOTH",
"236 206 OFFCURVE",
"235 203 OFFCURVE",
"234 201 CURVE"
);
}
);
width = 342;
}
);
unicode = F11A;
},
{
glyphname = uniF11B;
layers = (
{
layerId = "EBF4EA88-05C0-40D0-B291-B170F4B137C3";
name = Regular;
paths = (
{
closed = 1;
nodes = (
"231 120 LINE",
"236 116 OFFCURVE",
"239 110 OFFCURVE",
"239 103 CURVE SMOOTH",
"239 99 OFFCURVE",
"237 94 OFFCURVE",
"233 89 CURVE",
"232 88 LINE",
"130 -14 LINE SMOOTH",
"125 -19 OFFCURVE",
"120 -21 OFFCURVE",
"114 -21 CURVE SMOOTH",
"108 -21 OFFCURVE",
"103 -19 OFFCURVE",
"99 -15 CURVE SMOOTH",
"95 -11 OFFCURVE",
"93 -6 OFFCURVE",
"93 0 CURVE",
"93 0 LINE",
"93 1 LINE",
"93 125 LINE",
"38 70 LINE",
"34 65 OFFCURVE",
"29 63 OFFCURVE",
"22 63 CURVE SMOOTH",
"16 63 OFFCURVE",
"11 65 OFFCURVE",
"7 70 CURVE",
"2 74 OFFCURVE",
"0 79 OFFCURVE",
"0 85 CURVE SMOOTH",
"0 91 OFFCURVE",
"2 96 OFFCURVE",
"6 100 CURVE",
"6 100 LINE",
"93 186 LINE",
"93 197 LINE",
"7 283 LINE SMOOTH",
"2 288 OFFCURVE",
"0 293 OFFCURVE",
"0 298 CURVE SMOOTH",
"0 304 OFFCURVE",
"2 309 OFFCURVE",
"7 314 CURVE SMOOTH",
"11 318 OFFCURVE",
"16 320 OFFCURVE",
"22 320 CURVE SMOOTH",
"28 320 OFFCURVE",
"33 318 OFFCURVE",
"38 313 CURVE SMOOTH",
"93 258 LINE",
"93 377 LINE",
"92 378 OFFCURVE",
"92 380 OFFCURVE",
"92 383 CURVE SMOOTH",
"92 389 OFFCURVE",
"94 394 OFFCURVE",
"98 399 CURVE",
"102 403 OFFCURVE",
"107 405 OFFCURVE",
"113 405 CURVE SMOOTH",
"120 405 OFFCURVE",
"126 402 OFFCURVE",
"130 397 CURVE",
"231 296 LINE",
"236 292 OFFCURVE",
"239 287 OFFCURVE",
"239 280 CURVE SMOOTH",
"239 276 OFFCURVE",
"237 271 OFFCURVE",
"233 266 CURVE",
"233 266 LINE SMOOTH",
"232 266 OFFCURVE",
"232 266 OFFCURVE",
"232 265 CURVE SMOOTH",
"232 264 OFFCURVE",
"232 264 OFFCURVE",
"231 263 CURVE SMOOTH",
"159 192 LINE"
);
},
{
closed = 1;
nodes = (
"186 103 LINE",
"136 154 LINE",
"136 53 LINE"
);
},
{
closed = 1;
nodes = (
"136 230 LINE",
"186 280 LINE",
"136 330 LINE"
);
}
);
width = 239;
}
);
unicode = F11B;
},
{
glyphname = uniF11C;
layers = (
{
layerId = "EBF4EA88-05C0-40D0-B291-B170F4B137C3";
name = Regular;
paths = (
{
closed = 1;
nodes = (
"202 194 OFFCURVE",
"215 186 OFFCURVE",
"226 173 CURVE SMOOTH",
"237 160 OFFCURVE",
"242 144 OFFCURVE",
"242 126 CURVE SMOOTH",
"242 103 OFFCURVE",
"235 85 OFFCURVE",
"220 70 CURVE SMOOTH",
"205 55 OFFCURVE",
"184 47 OFFCURVE",
"157 47 CURVE SMOOTH",
"13 47 LINE SMOOTH",
"4 47 OFFCURVE",
"0 51 OFFCURVE",
"0 60 CURVE SMOOTH",
"0 324 LINE SMOOTH",
"0 333 OFFCURVE",
"4 337 OFFCURVE",
"13 337 CURVE SMOOTH",
"153 337 LINE SMOOTH",
"179 337 OFFCURVE",
"199 330 OFFCURVE",
"214 316 CURVE SMOOTH",
"229 301 OFFCURVE",
"236 284 OFFCURVE",
"236 263 CURVE SMOOTH",
"236 246 OFFCURVE",
"231 231 OFFCURVE",
"222 220 CURVE SMOOTH",
"212 208 OFFCURVE",
"200 200 OFFCURVE",
"186 197 CURVE"
);
},
{
closed = 1;
nodes = (
"62 283 LINE",
"62 222 LINE",
"139 222 LINE SMOOTH",
"162 222 OFFCURVE",
"173 232 OFFCURVE",
"173 252 CURVE SMOOTH",
"173 261 OFFCURVE",
"170 269 OFFCURVE",
"164 275 CURVE",
"158 280 OFFCURVE",
"150 283 OFFCURVE",
"139 283 CURVE SMOOTH"
);
},
{
closed = 1;
nodes = (
"142 101 LINE SMOOTH",
"167 101 OFFCURVE",
"179 112 OFFCURVE",
"179 134 CURVE SMOOTH",
"179 143 OFFCURVE",
"176 151 OFFCURVE",
"169 158 CURVE",
"162 164 OFFCURVE",
"153 167 OFFCURVE",
"142 167 CURVE SMOOTH",
"62 167 LINE",
"62 101 LINE"
);
}
);
width = 242;
}
);
unicode = F11C;
},
{
glyphname = uniF11D;
layers = (
{
layerId = "EBF4EA88-05C0-40D0-B291-B170F4B137C3";
name = Regular;
paths = (
{
closed = 1;
nodes = (
"328 7 LINE SMOOTH",
"328 2 OFFCURVE",
"325 -1 OFFCURVE",
"320 -1 CURVE SMOOTH",
"320 -1 LINE",
"8 -1 LINE SMOOTH",
"3 -1 OFFCURVE",
"0 2 OFFCURVE",
"0 7 CURVE",
"0 7 LINE",
"0 8 LINE",
"0 73 LINE",
"0 376 LINE",
"0 377 LINE SMOOTH",
"0 382 OFFCURVE",
"3 385 OFFCURVE",
"8 385 CURVE SMOOTH",
"161 385 LINE",
"161 319 LINE",
"161 235 LINE",
"161 206 LINE SMOOTH",
"161 203 OFFCURVE",
"162 202 OFFCURVE",
"165 202 CURVE SMOOTH",
"166 202 OFFCURVE",
"167 202 OFFCURVE",
"168 203 CURVE SMOOTH",
"197 233 LINE",
"198 233 LINE",
"199 234 OFFCURVE",
"199 234 OFFCURVE",
"200 234 CURVE SMOOTH",
"201 234 OFFCURVE",
"202 234 OFFCURVE",
"203 233 CURVE SMOOTH",
"232 204 LINE SMOOTH",
"233 203 OFFCURVE",
"234 202 OFFCURVE",
"235 202 CURVE SMOOTH",
"238 202 OFFCURVE",
"239 203 OFFCURVE",
"239 206 CURVE SMOOTH",
"239 235 LINE",
"239 319 LINE",
"239 385 LINE",
"268 385 LINE",
"269 385 LINE SMOOTH",
"274 385 OFFCURVE",
"277 382 OFFCURVE",
"277 377 CURVE SMOOTH",
"277 58 LINE SMOOTH",
"277 53 OFFCURVE",
"274 50 OFFCURVE",
"269 50 CURVE SMOOTH",
"268 50 LINE",
"26 50 LINE",
"26 31 LINE",
"27 26 OFFCURVE",
"30 24 OFFCURVE",
"34 24 CURVE SMOOTH",
"295 24 LINE SMOOTH",
"300 24 OFFCURVE",
"303 27 OFFCURVE",
"303 33 CURVE SMOOTH",
"303 342 LINE",
"320 342 LINE SMOOTH",
"325 342 OFFCURVE",
"328 339 OFFCURVE",
"328 334 CURVE SMOOTH"
);
}
);
width = 328;
}
);
unicode = F11D;
},
{
glyphname = uniF11E;
layers = (
{
layerId = "EBF4EA88-05C0-40D0-B291-B170F4B137C3";
name = Regular;
paths = (
{
closed = 1;
nodes = (
"328 7 LINE SMOOTH",
"328 2 OFFCURVE",
"325 -1 OFFCURVE",
"320 -1 CURVE SMOOTH",
"320 -1 LINE",
"8 -1 LINE SMOOTH",
"3 -1 OFFCURVE",
"0 2 OFFCURVE",
"0 7 CURVE",
"0 7 LINE",
"0 8 LINE",
"0 73 LINE",
"0 376 LINE",
"0 377 LINE SMOOTH",
"0 382 OFFCURVE",
"3 385 OFFCURVE",
"8 385 CURVE SMOOTH",
"268 385 LINE",
"269 385 LINE SMOOTH",
"274 385 OFFCURVE",
"277 382 OFFCURVE",
"277 377 CURVE SMOOTH",
"277 58 LINE SMOOTH",
"277 53 OFFCURVE",
"274 50 OFFCURVE",
"269 50 CURVE SMOOTH",
"268 50 LINE",
"26 50 LINE",
"26 31 LINE",
"27 26 OFFCURVE",
"30 24 OFFCURVE",
"34 24 CURVE SMOOTH",
"295 24 LINE SMOOTH",
"300 24 OFFCURVE",
"303 27 OFFCURVE",
"303 33 CURVE SMOOTH",
"303 342 LINE",
"320 342 LINE SMOOTH",
"325 342 OFFCURVE",
"328 339 OFFCURVE",
"328 334 CURVE SMOOTH"
);
},
{
closed = 1;
nodes = (
"25 262 LINE SMOOTH",
"25 257 OFFCURVE",
"28 254 OFFCURVE",
"34 254 CURVE SMOOTH",
"243 254 LINE SMOOTH",
"248 254 OFFCURVE",
"251 257 OFFCURVE",
"251 262 CURVE SMOOTH",
"251 326 LINE SMOOTH",
"251 331 OFFCURVE",
"248 334 OFFCURVE",
"243 334 CURVE SMOOTH",
"34 334 LINE SMOOTH",
"28 334 OFFCURVE",
"25 331 OFFCURVE",
"25 326 CURVE SMOOTH"
);
}
);
width = 328;
}
);
unicode = F11E;
},
{
glyphname = uniF11F;
layers = (
{
layerId = "EBF4EA88-05C0-40D0-B291-B170F4B137C3";
name = Regular;
paths = (
{
closed = 1;
nodes = (
"203 381 LINE SMOOTH",
"213 381 OFFCURVE",
"218 376 OFFCURVE",
"218 365 CURVE SMOOTH",
"218 331 LINE",
"218 96 LINE",
"218 14 LINE SMOOTH",
"218 7 OFFCURVE",
"214 3 OFFCURVE",
"207 3 CURVE SMOOTH",
"204 3 OFFCURVE",
"201 4 OFFCURVE",
"198 7 CURVE SMOOTH",
"117 89 LINE SMOOTH",
"115 91 OFFCURVE",
"112 92 OFFCURVE",
"109 92 CURVE SMOOTH",
"106 92 OFFCURVE",
"104 91 OFFCURVE",
"102 89 CURVE SMOOTH",
"19 6 LINE SMOOTH",
"17 4 OFFCURVE",
"14 3 OFFCURVE",
"11 3 CURVE SMOOTH",
"4 3 OFFCURVE",
"0 7 OFFCURVE",
"0 14 CURVE SMOOTH",
"0 96 LINE",
"0 331 LINE",
"0 365 LINE SMOOTH",
"0 376 OFFCURVE",
"5 381 OFFCURVE",
"15 381 CURVE SMOOTH"
);
}
);
width = 218;
}
);
unicode = F11F;
},
{
glyphname = uniF120;
layers = (
{
layerId = "EBF4EA88-05C0-40D0-B291-B170F4B137C3";
name = Regular;
paths = (
{
closed = 1;
nodes = (
"0 349 OFFCURVE",
"12 361 OFFCURVE",
"36 361 CURVE SMOOTH",
"59 361 OFFCURVE",
"71 349 OFFCURVE",
"71 325 CURVE SMOOTH",
"71 302 OFFCURVE",
"59 290 OFFCURVE",
"36 290 CURVE SMOOTH",
"12 290 OFFCURVE",
"0 302 OFFCURVE",
"0 325 CURVE SMOOTH"
);
},
{
closed = 1;
nodes = (
"194 349 OFFCURVE",
"206 361 OFFCURVE",
"229 361 CURVE SMOOTH",
"253 361 OFFCURVE",
"265 349 OFFCURVE",
"265 325 CURVE SMOOTH",
"265 302 OFFCURVE",
"253 290 OFFCURVE",
"229 290 CURVE SMOOTH",
"206 290 OFFCURVE",
"194 302 OFFCURVE",
"194 325 CURVE SMOOTH"
);
},
{
closed = 1;
nodes = (
"59 228 OFFCURVE",
"71 216 OFFCURVE",
"71 192 CURVE SMOOTH",
"71 168 OFFCURVE",
"59 156 OFFCURVE",
"36 156 CURVE SMOOTH",
"12 156 OFFCURVE",
"0 168 OFFCURVE",
"0 192 CURVE SMOOTH",
"0 216 OFFCURVE",
"12 228 OFFCURVE",
"36 228 CURVE SMOOTH"
);
},
{
closed = 1;
nodes = (
"253 228 OFFCURVE",
"265 216 OFFCURVE",
"265 192 CURVE SMOOTH",
"265 168 OFFCURVE",
"253 156 OFFCURVE",
"229 156 CURVE SMOOTH",
"206 156 OFFCURVE",
"194 168 OFFCURVE",
"194 192 CURVE SMOOTH",
"194 216 OFFCURVE",
"206 228 OFFCURVE",
"229 228 CURVE SMOOTH"
);
},
{
closed = 1;
nodes = (
"59 95 OFFCURVE",
"71 83 OFFCURVE",
"71 59 CURVE SMOOTH",
"71 35 OFFCURVE",
"59 23 OFFCURVE",
"36 23 CURVE SMOOTH",
"12 23 OFFCURVE",
"0 35 OFFCURVE",
"0 59 CURVE SMOOTH",
"0 83 OFFCURVE",
"12 95 OFFCURVE",
"36 95 CURVE SMOOTH"
);
},
{
closed = 1;
nodes = (
"253 95 OFFCURVE",
"265 83 OFFCURVE",
"265 59 CURVE SMOOTH",
"265 35 OFFCURVE",
"253 23 OFFCURVE",
"229 23 CURVE SMOOTH",
"206 23 OFFCURVE",
"194 35 OFFCURVE",
"194 59 CURVE SMOOTH",
"194 83 OFFCURVE",
"206 95 OFFCURVE",
"229 95 CURVE SMOOTH"
);
}
);
width = 265;
}
);
unicode = F120;
},
{
glyphname = uniF121;
layers = (
{
layerId = "EBF4EA88-05C0-40D0-B291-B170F4B137C3";
name = Regular;
paths = (
{
closed = 1;
nodes = (
"341 153 LINE",
"368 107 LINE",
"370 104 OFFCURVE",
"370 99 OFFCURVE",
"367 94 CURVE",
"365 90 OFFCURVE",
"362 88 OFFCURVE",
"357 88 CURVE SMOOTH",
"303 88 LINE",
"303 33 LINE",
"302 33 LINE",
"302 28 OFFCURVE",
"300 25 OFFCURVE",
"296 23 CURVE",
"291 20 OFFCURVE",
"286 20 OFFCURVE",
"283 22 CURVE",
"236 49 LINE",
"209 2 LINE",
"206 -2 OFFCURVE",
"203 -4 OFFCURVE",
"198 -4 CURVE SMOOTH",
"193 -4 OFFCURVE",
"190 -2 OFFCURVE",
"187 2 CURVE",
"160 48 LINE",
"111 20 LINE",
"108 19 OFFCURVE",
"104 19 OFFCURVE",
"99 21 CURVE SMOOTH",
"94 23 OFFCURVE",
"92 26 OFFCURVE",
"92 31 CURVE SMOOTH",
"92 86 LINE",
"37 86 LINE SMOOTH",
"32 86 OFFCURVE",
"29 88 OFFCURVE",
"27 93 CURVE SMOOTH",
"25 98 OFFCURVE",
"25 102 OFFCURVE",
"26 105 CURVE",
"53 153 LINE",
"6 181 LINE",
"2 184 OFFCURVE",
"0 187 OFFCURVE",
"0 192 CURVE SMOOTH",
"0 197 OFFCURVE",
"2 200 OFFCURVE",
"6 203 CURVE",
"54 231 LINE",
"27 277 LINE",
"25 280 OFFCURVE",
"25 285 OFFCURVE",
"28 290 CURVE",
"30 294 OFFCURVE",
"33 296 OFFCURVE",
"38 296 CURVE SMOOTH",
"92 296 LINE",
"92 351 LINE SMOOTH",
"92 356 OFFCURVE",
"94 359 OFFCURVE",
"99 361 CURVE SMOOTH",
"104 363 OFFCURVE",
"108 363 OFFCURVE",
"111 362 CURVE",
"159 335 LINE",
"186 382 LINE",
"189 386 OFFCURVE",
"192 388 OFFCURVE",
"197 388 CURVE SMOOTH",
"202 388 OFFCURVE",
"205 386 OFFCURVE",
"208 382 CURVE",
"235 336 LINE",
"284 364 LINE",
"287 365 OFFCURVE",
"291 365 OFFCURVE",
"296 363 CURVE SMOOTH",
"301 361 OFFCURVE",
"303 358 OFFCURVE",
"303 353 CURVE SMOOTH",
"303 298 LINE",
"358 298 LINE SMOOTH",
"362 298 OFFCURVE",
"365 296 OFFCURVE",
"368 291 CURVE SMOOTH",
"371 286 OFFCURVE",
"371 282 OFFCURVE",
"369 279 CURVE",
"369 278 LINE",
"342 231 LINE",
"389 203 LINE",
"393 200 OFFCURVE",
"395 197 OFFCURVE",
"395 192 CURVE SMOOTH",
"395 187 OFFCURVE",
"393 184 OFFCURVE",
"389 181 CURVE"
);
},
{
closed = 1;
nodes = (
"165 134 LINE",
"177 141 LINE",
"143 200 LINE",
"131 193 LINE",
"152 156 LINE",
"103 177 LINE",
"90 169 LINE",
"124 110 LINE",
"137 118 LINE",
"115 156 LINE"
);
},
{
closed = 1;
nodes = (
"189 148 LINE",
"231 172 LINE",
"224 183 LINE",
"195 166 LINE",
"187 179 LINE",
"216 196 LINE",
"210 207 LINE",
"181 190 LINE",
"174 203 LINE",
"203 220 LINE",
"197 231 LINE",
"155 207 LINE"
);
},
{
closed = 1;
nodes = (
"286 204 LINE",
"299 211 LINE",
"282 280 LINE",
"268 272 LINE",
"282 223 LINE",
"246 259 LINE",
"237 254 LINE",
"250 205 LINE",
"215 241 LINE",
"201 233 LINE",
"252 184 LINE",
"265 192 LINE",
"252 238 LINE"
);
}
);
width = 395;
}
);
unicode = F121;
},
{
glyphname = uniF122;
layers = (
{
layerId = "EBF4EA88-05C0-40D0-B291-B170F4B137C3";
name = Regular;
paths = (
{
closed = 1;
nodes = (
"167 163 LINE",
"162 194 LINE",
"186 174 LINE"
);
},
{
closed = 1;
nodes = (
"341 153 LINE",
"368 107 LINE",
"370 104 OFFCURVE",
"370 99 OFFCURVE",
"367 94 CURVE",
"365 90 OFFCURVE",
"362 88 OFFCURVE",
"357 88 CURVE SMOOTH",
"303 88 LINE",
"303 33 LINE",
"302 33 LINE",
"302 28 OFFCURVE",
"300 25 OFFCURVE",
"296 23 CURVE",
"291 20 OFFCURVE",
"286 20 OFFCURVE",
"283 22 CURVE",
"236 49 LINE",
"209 2 LINE",
"206 -2 OFFCURVE",
"203 -4 OFFCURVE",
"198 -4 CURVE SMOOTH",
"193 -4 OFFCURVE",
"190 -2 OFFCURVE",
"187 2 CURVE",
"160 48 LINE",
"111 20 LINE",
"108 19 OFFCURVE",
"104 19 OFFCURVE",
"99 21 CURVE SMOOTH",
"94 23 OFFCURVE",
"92 26 OFFCURVE",
"92 31 CURVE SMOOTH",
"92 86 LINE",
"37 86 LINE SMOOTH",
"32 86 OFFCURVE",
"29 88 OFFCURVE",
"27 93 CURVE SMOOTH",
"25 98 OFFCURVE",
"25 102 OFFCURVE",
"26 105 CURVE",
"53 153 LINE",
"6 181 LINE",
"2 184 OFFCURVE",
"0 187 OFFCURVE",
"0 192 CURVE SMOOTH",
"0 197 OFFCURVE",
"2 200 OFFCURVE",
"6 203 CURVE",
"54 231 LINE",
"27 277 LINE",
"25 280 OFFCURVE",
"25 285 OFFCURVE",
"28 290 CURVE",
"30 294 OFFCURVE",
"33 296 OFFCURVE",
"38 296 CURVE SMOOTH",
"92 296 LINE",
"92 351 LINE SMOOTH",
"92 356 OFFCURVE",
"94 359 OFFCURVE",
"99 361 CURVE SMOOTH",
"104 363 OFFCURVE",
"108 363 OFFCURVE",
"111 362 CURVE",
"159 335 LINE",
"186 382 LINE",
"189 386 OFFCURVE",
"192 388 OFFCURVE",
"197 388 CURVE SMOOTH",
"202 388 OFFCURVE",
"205 386 OFFCURVE",
"208 382 CURVE",
"235 336 LINE",
"284 364 LINE",
"287 365 OFFCURVE",
"291 365 OFFCURVE",
"296 363 CURVE SMOOTH",
"301 361 OFFCURVE",
"303 358 OFFCURVE",
"303 353 CURVE SMOOTH",
"303 298 LINE",
"358 298 LINE SMOOTH",
"362 298 OFFCURVE",
"365 296 OFFCURVE",
"368 291 CURVE SMOOTH",
"371 286 OFFCURVE",
"371 282 OFFCURVE",
"369 279 CURVE",
"369 278 LINE",
"342 231 LINE",
"389 203 LINE",
"393 200 OFFCURVE",
"395 197 OFFCURVE",
"395 192 CURVE SMOOTH",
"395 187 OFFCURVE",
"393 184 OFFCURVE",
"389 181 CURVE"
);
},
{
closed = 1;
nodes = (
"149 123 OFFCURVE",
"153 134 OFFCURVE",
"146 147 CURVE SMOOTH",
"141 156 OFFCURVE",
"132 158 OFFCURVE",
"119 155 CURVE",
"106 151 OFFCURVE",
"99 150 OFFCURVE",
"98 152 CURVE SMOOTH",
"96 156 OFFCURVE",
"98 160 OFFCURVE",
"103 163 CURVE SMOOTH",
"110 167 OFFCURVE",
"117 168 OFFCURVE",
"124 166 CURVE",
"125 180 LINE",
"116 182 OFFCURVE",
"107 180 OFFCURVE",
"98 175 CURVE SMOOTH",
"83 166 OFFCURVE",
"79 156 OFFCURVE",
"86 144 CURVE SMOOTH",
"91 135 OFFCURVE",
"100 133 OFFCURVE",
"113 137 CURVE",
"126 140 OFFCURVE",
"133 141 OFFCURVE",
"134 138 CURVE",
"137 134 OFFCURVE",
"135 130 OFFCURVE",
"128 126 CURVE",
"121 121 OFFCURVE",
"113 120 OFFCURVE",
"104 123 CURVE",
"103 109 LINE",
"114 106 OFFCURVE",
"125 108 OFFCURVE",
"134 114 CURVE"
);
},
{
closed = 1;
nodes = (
"205 157 LINE",
"219 165 LINE",
"162 211 LINE",
"147 202 LINE",
"158 130 LINE",
"172 138 LINE",
"170 150 LINE",
"195 165 LINE"
);
},
{
closed = 1;
nodes = (
"224 168 LINE",
"262 190 LINE",
"255 201 LINE",
"230 186 LINE",
"203 234 LINE",
"190 227 LINE"
);
},
{
closed = 1;
nodes = (
"270 195 LINE",
"312 219 LINE",
"306 230 LINE",
"277 213 LINE",
"269 226 LINE",
"297 243 LINE",
"291 254 LINE",
"262 237 LINE",
"255 250 LINE",
"284 267 LINE",
"278 278 LINE",
"236 254 LINE"
);
}
);
width = 395;
}
);
unicode = F122;
},
{
glyphname = uniF123;
layers = (
{
layerId = "EBF4EA88-05C0-40D0-B291-B170F4B137C3";
name = Regular;
paths = (
{
closed = 1;
nodes = (
"341 153 LINE",
"368 107 LINE",
"370 104 OFFCURVE",
"370 99 OFFCURVE",
"367 94 CURVE",
"365 90 OFFCURVE",
"362 88 OFFCURVE",
"357 88 CURVE SMOOTH",
"303 88 LINE",
"303 33 LINE",
"302 33 LINE",
"302 28 OFFCURVE",
"300 25 OFFCURVE",
"296 23 CURVE",
"291 20 OFFCURVE",
"286 20 OFFCURVE",
"283 22 CURVE",
"236 49 LINE",
"209 2 LINE",
"206 -2 OFFCURVE",
"203 -4 OFFCURVE",
"198 -4 CURVE SMOOTH",
"193 -4 OFFCURVE",
"190 -2 OFFCURVE",
"187 2 CURVE",
"160 48 LINE",
"111 20 LINE",
"108 19 OFFCURVE",
"104 19 OFFCURVE",
"99 21 CURVE SMOOTH",
"94 23 OFFCURVE",
"92 26 OFFCURVE",
"92 31 CURVE SMOOTH",
"92 86 LINE",
"37 86 LINE SMOOTH",
"32 86 OFFCURVE",
"29 88 OFFCURVE",
"27 93 CURVE SMOOTH",
"25 98 OFFCURVE",
"25 102 OFFCURVE",
"26 105 CURVE",
"53 153 LINE",
"6 181 LINE",
"2 184 OFFCURVE",
"0 187 OFFCURVE",
"0 192 CURVE SMOOTH",
"0 197 OFFCURVE",
"2 200 OFFCURVE",
"6 203 CURVE",
"54 231 LINE",
"27 277 LINE",
"25 280 OFFCURVE",
"25 285 OFFCURVE",
"28 290 CURVE",
"30 294 OFFCURVE",
"33 296 OFFCURVE",
"38 296 CURVE SMOOTH",
"92 296 LINE",
"92 351 LINE SMOOTH",
"92 356 OFFCURVE",
"94 359 OFFCURVE",
"99 361 CURVE SMOOTH",
"104 363 OFFCURVE",
"108 363 OFFCURVE",
"111 362 CURVE",
"159 335 LINE",
"186 382 LINE",
"189 386 OFFCURVE",
"192 388 OFFCURVE",
"197 388 CURVE SMOOTH",
"202 388 OFFCURVE",
"205 386 OFFCURVE",
"208 382 CURVE",
"235 336 LINE",
"284 364 LINE",
"287 365 OFFCURVE",
"291 365 OFFCURVE",
"296 363 CURVE SMOOTH",
"301 361 OFFCURVE",
"303 358 OFFCURVE",
"303 353 CURVE SMOOTH",
"303 298 LINE",
"358 298 LINE SMOOTH",
"362 298 OFFCURVE",
"365 296 OFFCURVE",
"368 291 CURVE SMOOTH",
"371 286 OFFCURVE",
"371 282 OFFCURVE",
"369 279 CURVE",
"369 278 LINE",
"342 231 LINE",
"389 203 LINE",
"393 200 OFFCURVE",
"395 197 OFFCURVE",
"395 192 CURVE SMOOTH",
"395 187 OFFCURVE",
"393 184 OFFCURVE",
"389 181 CURVE"
);
}
);
width = 395;
}
);
unicode = F123;
},
{
glyphname = uniF124;
layers = (
{
layerId = "EBF4EA88-05C0-40D0-B291-B170F4B137C3";
name = Regular;
paths = (
{
closed = 1;
nodes = (
"320 246 LINE SMOOTH",
"324 246 OFFCURVE",
"326 244 OFFCURVE",
"326 239 CURVE SMOOTH",
"326 14 LINE SMOOTH",
"326 10 OFFCURVE",
"324 8 OFFCURVE",
"320 8 CURVE SMOOTH",
"6 8 LINE SMOOTH",
"2 8 OFFCURVE",
"0 10 OFFCURVE",
"0 14 CURVE SMOOTH",
"0 239 LINE SMOOTH",
"0 244 OFFCURVE",
"2 246 OFFCURVE",
"6 246 CURVE SMOOTH"
);
},
{
closed = 1;
nodes = (
"126 55 OFFCURVE",
"139 59 OFFCURVE",
"150 67 CURVE",
"160 75 OFFCURVE",
"165 86 OFFCURVE",
"165 99 CURVE SMOOTH",
"165 113 OFFCURVE",
"157 123 OFFCURVE",
"140 130 CURVE",
"154 137 OFFCURVE",
"161 147 OFFCURVE",
"161 161 CURVE SMOOTH",
"161 170 OFFCURVE",
"157 177 OFFCURVE",
"149 183 CURVE",
"141 188 OFFCURVE",
"130 191 OFFCURVE",
"117 191 CURVE SMOOTH",
"102 191 OFFCURVE",
"89 189 OFFCURVE",
"80 184 CURVE",
"79 183 OFFCURVE",
"78 182 OFFCURVE",
"78 181 CURVE",
"81 159 LINE",
"81 158 OFFCURVE",
"82 157 OFFCURVE",
"83 157 CURVE SMOOTH",
"86 157 LINE",
"94 161 OFFCURVE",
"102 163 OFFCURVE",
"110 163 CURVE SMOOTH",
"120 163 OFFCURVE",
"125 160 OFFCURVE",
"125 154 CURVE SMOOTH",
"125 147 OFFCURVE",
"117 142 OFFCURVE",
"101 141 CURVE",
"99 141 OFFCURVE",
"98 140 OFFCURVE",
"98 138 CURVE SMOOTH",
"98 116 LINE SMOOTH",
"98 114 OFFCURVE",
"99 113 OFFCURVE",
"101 113 CURVE",
"121 112 OFFCURVE",
"131 107 OFFCURVE",
"131 97 CURVE SMOOTH",
"131 88 OFFCURVE",
"124 84 OFFCURVE",
"111 84 CURVE SMOOTH",
"100 84 OFFCURVE",
"90 86 OFFCURVE",
"82 89 CURVE",
"79 89 LINE",
"78 88 OFFCURVE",
"78 88 OFFCURVE",
"78 87 CURVE",
"75 65 LINE",
"75 64 OFFCURVE",
"76 62 OFFCURVE",
"77 61 CURVE",
"86 57 OFFCURVE",
"97 55 OFFCURVE",
"109 55 CURVE SMOOTH"
);
},
{
closed = 1;
nodes = (
"245 186 LINE SMOOTH",
"245 188 OFFCURVE",
"244 189 OFFCURVE",
"242 189 CURVE SMOOTH",
"229 189 LINE",
"227 189 LINE",
"189 170 LINE",
"188 169 OFFCURVE",
"187 168 OFFCURVE",
"187 167 CURVE",
"190 145 LINE",
"190 143 OFFCURVE",
"191 142 OFFCURVE",
"192 142 CURVE SMOOTH",
"195 142 LINE",
"212 149 LINE",
"212 61 LINE SMOOTH",
"212 58 OFFCURVE",
"213 57 OFFCURVE",
"215 57 CURVE SMOOTH",
"242 57 LINE SMOOTH",
"244 57 OFFCURVE",
"245 58 OFFCURVE",
"245 61 CURVE SMOOTH"
);
},
{
closed = 1;
nodes = (
"320 347 LINE SMOOTH",
"324 347 OFFCURVE",
"326 345 OFFCURVE",
"326 341 CURVE SMOOTH",
"326 275 LINE SMOOTH",
"326 270 OFFCURVE",
"324 268 OFFCURVE",
"320 268 CURVE SMOOTH",
"6 268 LINE SMOOTH",
"2 268 OFFCURVE",
"0 270 OFFCURVE",
"0 275 CURVE SMOOTH",
"0 341 LINE SMOOTH",
"0 345 OFFCURVE",
"2 347 OFFCURVE",
"6 347 CURVE SMOOTH",
"40 347 LINE",
"40 331 LINE SMOOTH",
"40 308 OFFCURVE",
"52 297 OFFCURVE",
"76 297 CURVE SMOOTH",
"100 297 OFFCURVE",
"112 308 OFFCURVE",
"112 331 CURVE SMOOTH",
"112 347 LINE",
"214 347 LINE",
"214 331 LINE SMOOTH",
"214 308 OFFCURVE",
"226 297 OFFCURVE",
"250 297 CURVE SMOOTH",
"274 297 OFFCURVE",
"286 308 OFFCURVE",
"286 331 CURVE SMOOTH",
"286 347 LINE"
);
},
{
closed = 1;
nodes = (
"61 347 LINE",
"61 363 LINE SMOOTH",
"61 372 OFFCURVE",
"66 376 OFFCURVE",
"76 376 CURVE SMOOTH",
"86 376 OFFCURVE",
"91 372 OFFCURVE",
"91 363 CURVE SMOOTH",
"91 347 LINE",
"91 331 LINE SMOOTH",
"91 322 OFFCURVE",
"86 318 OFFCURVE",
"76 318 CURVE SMOOTH",
"66 318 OFFCURVE",
"61 322 OFFCURVE",
"61 331 CURVE SMOOTH"
);
},
{
closed = 1;
nodes = (
"235 347 LINE",
"235 363 LINE SMOOTH",
"235 372 OFFCURVE",
"240 376 OFFCURVE",
"250 376 CURVE SMOOTH",
"260 376 OFFCURVE",
"265 372 OFFCURVE",
"265 363 CURVE SMOOTH",
"265 347 LINE",
"265 331 LINE SMOOTH",
"265 322 OFFCURVE",
"260 318 OFFCURVE",
"250 318 CURVE SMOOTH",
"240 318 OFFCURVE",
"235 322 OFFCURVE",
"235 331 CURVE SMOOTH"
);
}
);
width = 326;
}
);
unicode = F124;
},
{
glyphname = uniF125;
layers = (
{
layerId = "EBF4EA88-05C0-40D0-B291-B170F4B137C3";
name = Regular;
paths = (
{
closed = 1;
nodes = (
"159 208 OFFCURVE",
"175 224 OFFCURVE",
"208 224 CURVE SMOOTH",
"240 224 OFFCURVE",
"256 208 OFFCURVE",
"256 175 CURVE SMOOTH",
"256 143 OFFCURVE",
"240 127 OFFCURVE",
"208 127 CURVE SMOOTH",
"175 127 OFFCURVE",
"159 143 OFFCURVE",
"159 175 CURVE SMOOTH"
);
},
{
closed = 1;
nodes = (
"396 324 LINE SMOOTH",
"401 324 OFFCURVE",
"406 322 OFFCURVE",
"409 319 CURVE SMOOTH",
"413 315 OFFCURVE",
"415 310 OFFCURVE",
"415 305 CURVE SMOOTH",
"415 46 LINE SMOOTH",
"415 41 OFFCURVE",
"413 36 OFFCURVE",
"409 32 CURVE SMOOTH",
"406 29 OFFCURVE",
"401 27 OFFCURVE",
"396 27 CURVE",
"396 26 LINE",
"19 26 LINE",
"19 27 LINE",
"14 27 OFFCURVE",
"9 29 OFFCURVE",
"6 32 CURVE SMOOTH",
"2 36 OFFCURVE",
"0 41 OFFCURVE",
"0 46 CURVE SMOOTH",
"0 305 LINE SMOOTH",
"0 310 OFFCURVE",
"2 315 OFFCURVE",
"6 319 CURVE SMOOTH",
"9 322 OFFCURVE",
"14 324 OFFCURVE",
"19 324 CURVE SMOOTH",
"104 324 LINE",
"104 339 LINE SMOOTH",
"104 344 OFFCURVE",
"106 348 OFFCURVE",
"110 352 CURVE SMOOTH",
"114 356 OFFCURVE",
"118 358 OFFCURVE",
"123 358 CURVE SMOOTH",
"291 358 LINE SMOOTH",
"296 358 OFFCURVE",
"301 356 OFFCURVE",
"305 352 CURVE SMOOTH",
"308 349 OFFCURVE",
"310 344 OFFCURVE",
"310 339 CURVE SMOOTH",
"310 324 LINE"
);
},
{
closed = 1;
nodes = (
"227 77 OFFCURVE",
"243 81 OFFCURVE",
"258 90 CURVE SMOOTH",
"273 99 OFFCURVE",
"285 111 OFFCURVE",
"294 126 CURVE SMOOTH",
"303 141 OFFCURVE",
"307 157 OFFCURVE",
"307 175 CURVE SMOOTH",
"307 202 OFFCURVE",
"297 226 OFFCURVE",
"278 245 CURVE SMOOTH",
"259 264 OFFCURVE",
"236 274 OFFCURVE",
"209 274 CURVE SMOOTH",
"182 274 OFFCURVE",
"158 264 OFFCURVE",
"139 245 CURVE SMOOTH",
"120 226 OFFCURVE",
"110 202 OFFCURVE",
"110 175 CURVE SMOOTH",
"110 148 OFFCURVE",
"120 125 OFFCURVE",
"139 106 CURVE SMOOTH",
"158 87 OFFCURVE",
"182 77 OFFCURVE",
"209 77 CURVE SMOOTH"
);
},
{
closed = 1;
nodes = (
"389 248 LINE",
"389 299 LINE",
"314 299 LINE",
"314 248 LINE"
);
}
);
width = 415;
}
);
unicode = F125;
},
{
glyphname = uniF126;
layers = (
{
layerId = "EBF4EA88-05C0-40D0-B291-B170F4B137C3";
name = Regular;
paths = (
{
closed = 1;
nodes = (
"393 293 LINE SMOOTH",
"399 287 OFFCURVE",
"399 281 OFFCURVE",
"393 275 CURVE SMOOTH",
"143 25 LINE SMOOTH",
"140 22 OFFCURVE",
"137 21 OFFCURVE",
"134 21 CURVE",
"134 22 LINE",
"133 21 LINE",
"130 21 OFFCURVE",
"128 22 OFFCURVE",
"125 25 CURVE SMOOTH",
"4 146 LINE SMOOTH",
"1 149 OFFCURVE",
"0 152 OFFCURVE",
"0 155 CURVE SMOOTH",
"0 158 OFFCURVE",
"1 161 OFFCURVE",
"4 164 CURVE SMOOTH",
"70 230 LINE SMOOTH",
"75 235 OFFCURVE",
"81 235 OFFCURVE",
"87 230 CURVE",
"134 183 LINE",
"310 359 LINE SMOOTH",
"313 362 OFFCURVE",
"315 363 OFFCURVE",
"318 363 CURVE SMOOTH",
"321 363 OFFCURVE",
"324 362 OFFCURVE",
"327 359 CURVE SMOOTH"
);
}
);
width = 397;
}
);
unicode = F126;
},
{
glyphname = uniF127;
layers = (
{
layerId = "EBF4EA88-05C0-40D0-B291-B170F4B137C3";
name = Regular;
paths = (
{
closed = 1;
nodes = (
"379 323 LINE SMOOTH",
"382 320 OFFCURVE",
"382 316 OFFCURVE",
"379 312 CURVE",
"170 103 LINE SMOOTH",
"168 101 OFFCURVE",
"166 100 OFFCURVE",
"164 100 CURVE SMOOTH",
"164 100 LINE SMOOTH",
"162 100 OFFCURVE",
"160 101 OFFCURVE",
"158 103 CURVE SMOOTH",
"77 183 LINE SMOOTH",
"75 185 OFFCURVE",
"74 187 OFFCURVE",
"74 189 CURVE SMOOTH",
"74 191 OFFCURVE",
"75 193 OFFCURVE",
"77 195 CURVE SMOOTH",
"121 239 LINE SMOOTH",
"125 243 OFFCURVE",
"129 243 OFFCURVE",
"133 239 CURVE SMOOTH",
"164 208 LINE",
"323 368 LINE SMOOTH",
"324 369 OFFCURVE",
"326 370 OFFCURVE",
"329 370 CURVE SMOOTH",
"332 370 OFFCURVE",
"334 369 OFFCURVE",
"335 368 CURVE SMOOTH"
);
},
{
closed = 1;
nodes = (
"277 173 LINE",
"328 225 LINE",
"328 40 LINE SMOOTH",
"328 33 OFFCURVE",
"325 27 OFFCURVE",
"320 22 CURVE SMOOTH",
"315 17 OFFCURVE",
"309 14 OFFCURVE",
"302 14 CURVE SMOOTH",
"301 14 LINE",
"301 14 LINE",
"26 14 LINE",
"26 14 LINE",
"26 14 LINE SMOOTH",
"19 14 OFFCURVE",
"13 17 OFFCURVE",
"8 22 CURVE SMOOTH",
"3 27 OFFCURVE",
"0 33 OFFCURVE",
"0 40 CURVE SMOOTH",
"0 316 LINE SMOOTH",
"0 323 OFFCURVE",
"3 329 OFFCURVE",
"8 334 CURVE SMOOTH",
"13 339 OFFCURVE",
"19 342 OFFCURVE",
"26 342 CURVE SMOOTH",
"27 342 LINE",
"261 342 LINE",
"210 291 LINE",
"51 291 LINE",
"51 65 LINE",
"277 65 LINE"
);
}
);
width = 381;
}
);
unicode = F127;
},
{
glyphname = uniF128;
layers = (
{
layerId = "EBF4EA88-05C0-40D0-B291-B170F4B137C3";
name = Regular;
paths = (
{
closed = 1;
nodes = (
"315 -2 LINE",
"315 -2 LINE",
"315 -9 OFFCURVE",
"312 -16 OFFCURVE",
"307 -21 CURVE SMOOTH",
"302 -26 OFFCURVE",
"295 -29 OFFCURVE",
"288 -29 CURVE SMOOTH",
"287 -29 LINE",
"28 -29 LINE",
"27 -29 LINE SMOOTH",
"20 -29 OFFCURVE",
"13 -26 OFFCURVE",
"8 -21 CURVE SMOOTH",
"3 -16 OFFCURVE",
"0 -9 OFFCURVE",
"0 -2 CURVE",
"0 -2 LINE",
"0 360 LINE",
"0 360 LINE",
"0 367 OFFCURVE",
"3 374 OFFCURVE",
"8 379 CURVE SMOOTH",
"13 384 OFFCURVE",
"20 387 OFFCURVE",
"27 387 CURVE SMOOTH",
"102 387 LINE",
"102 404 LINE",
"102 405 LINE SMOOTH",
"102 410 OFFCURVE",
"105 413 OFFCURVE",
"110 413 CURVE",
"110 413 LINE",
"205 413 LINE SMOOTH",
"210 413 OFFCURVE",
"213 410 OFFCURVE",
"213 405 CURVE",
"213 405 LINE",
"213 387 LINE",
"288 387 LINE SMOOTH",
"295 387 OFFCURVE",
"302 384 OFFCURVE",
"307 379 CURVE SMOOTH",
"312 374 OFFCURVE",
"315 367 OFFCURVE",
"315 360 CURVE SMOOTH"
);
},
{
closed = 1;
nodes = (
"264 22 LINE",
"264 336 LINE",
"239 336 LINE",
"239 320 LINE SMOOTH",
"239 314 OFFCURVE",
"236 311 OFFCURVE",
"229 311 CURVE SMOOTH",
"86 311 LINE",
"86 311 LINE SMOOTH",
"79 311 OFFCURVE",
"76 314 OFFCURVE",
"76 320 CURVE SMOOTH",
"76 321 LINE",
"76 336 LINE",
"51 336 LINE",
"51 22 LINE"
);
},
{
closed = 1;
nodes = (
"102 237 LINE",
"102 224 LINE",
"102 224 LINE",
"102 220 OFFCURVE",
"100 218 OFFCURVE",
"96 218 CURVE SMOOTH",
"95 218 LINE",
"83 218 LINE SMOOTH",
"78 218 OFFCURVE",
"76 220 OFFCURVE",
"76 224 CURVE",
"76 224 LINE",
"76 237 LINE SMOOTH",
"76 242 OFFCURVE",
"78 244 OFFCURVE",
"83 244 CURVE SMOOTH",
"95 244 LINE",
"95 243 LINE",
"96 244 LINE",
"100 244 OFFCURVE",
"102 242 OFFCURVE",
"102 237 CURVE"
);
},
{
closed = 1;
nodes = (
"239 237 LINE",
"239 224 LINE",
"239 224 LINE",
"239 220 OFFCURVE",
"237 218 OFFCURVE",
"232 218 CURVE SMOOTH",
"134 218 LINE SMOOTH",
"129 218 OFFCURVE",
"127 220 OFFCURVE",
"127 224 CURVE",
"127 224 LINE",
"127 237 LINE SMOOTH",
"127 242 OFFCURVE",
"129 244 OFFCURVE",
"134 244 CURVE SMOOTH",
"232 244 LINE SMOOTH",
"237 244 OFFCURVE",
"239 242 OFFCURVE",
"239 237 CURVE"
);
},
{
closed = 1;
nodes = (
"102 186 LINE",
"102 173 LINE",
"102 173 LINE",
"102 169 OFFCURVE",
"100 167 OFFCURVE",
"96 167 CURVE SMOOTH",
"95 167 LINE",
"83 167 LINE SMOOTH",
"78 167 OFFCURVE",
"76 169 OFFCURVE",
"76 173 CURVE",
"76 173 LINE",
"76 186 LINE SMOOTH",
"76 191 OFFCURVE",
"78 193 OFFCURVE",
"83 193 CURVE SMOOTH",
"95 193 LINE",
"95 192 LINE",
"96 193 LINE",
"100 193 OFFCURVE",
"102 191 OFFCURVE",
"102 186 CURVE"
);
},
{
closed = 1;
nodes = (
"239 186 LINE",
"239 173 LINE",
"239 173 LINE",
"239 169 OFFCURVE",
"237 167 OFFCURVE",
"232 167 CURVE SMOOTH",
"134 167 LINE SMOOTH",
"129 167 OFFCURVE",
"127 169 OFFCURVE",
"127 173 CURVE",
"127 173 LINE",
"127 186 LINE SMOOTH",
"127 191 OFFCURVE",
"129 193 OFFCURVE",
"134 193 CURVE SMOOTH",
"232 193 LINE SMOOTH",
"237 193 OFFCURVE",
"239 191 OFFCURVE",
"239 186 CURVE"
);
},
{
closed = 1;
nodes = (
"102 135 LINE",
"102 122 LINE",
"102 122 LINE",
"102 118 OFFCURVE",
"100 116 OFFCURVE",
"96 116 CURVE SMOOTH",
"95 116 LINE",
"83 116 LINE SMOOTH",
"78 116 OFFCURVE",
"76 118 OFFCURVE",
"76 122 CURVE",
"76 122 LINE",
"76 135 LINE SMOOTH",
"76 139 OFFCURVE",
"78 141 OFFCURVE",
"83 141 CURVE SMOOTH",
"95 141 LINE",
"96 141 LINE SMOOTH",
"100 141 OFFCURVE",
"102 139 OFFCURVE",
"102 135 CURVE"
);
},
{
closed = 1;
nodes = (
"239 135 LINE",
"239 122 LINE",
"239 122 LINE",
"239 118 OFFCURVE",
"237 116 OFFCURVE",
"232 116 CURVE SMOOTH",
"134 116 LINE SMOOTH",
"129 116 OFFCURVE",
"127 118 OFFCURVE",
"127 122 CURVE",
"127 122 LINE",
"127 135 LINE SMOOTH",
"127 139 OFFCURVE",
"129 141 OFFCURVE",
"134 141 CURVE SMOOTH",
"232 141 LINE SMOOTH",
"237 141 OFFCURVE",
"239 139 OFFCURVE",
"239 135 CURVE"
);
}
);
width = 315;
}
);
unicode = F128;
},
{
glyphname = uniF129;
layers = (
{
layerId = "EBF4EA88-05C0-40D0-B291-B170F4B137C3";
name = Regular;
paths = (
{
closed = 1;
nodes = (
"391 228 LINE SMOOTH",
"392 227 OFFCURVE",
"392 225 OFFCURVE",
"392 223 CURVE SMOOTH",
"392 221 OFFCURVE",
"392 220 OFFCURVE",
"391 219 CURVE SMOOTH",
"275 103 LINE",
"275 103 LINE",
"216 87 LINE",
"214 86 OFFCURVE",
"212 86 OFFCURVE",
"209 89 CURVE SMOOTH",
"207 91 OFFCURVE",
"207 93 OFFCURVE",
"208 95 CURVE",
"224 154 LINE",
"224 154 LINE",
"339 270 LINE SMOOTH",
"342 273 OFFCURVE",
"345 273 OFFCURVE",
"348 270 CURVE SMOOTH"
);
},
{
closed = 1;
nodes = (
"227 107 LINE",
"262 116 LINE",
"237 142 LINE"
);
},
{
closed = 1;
nodes = (
"309 73 LINE SMOOTH",
"313 73 OFFCURVE",
"315 71 OFFCURVE",
"315 67 CURVE",
"315 67 LINE",
"315 -2 LINE",
"315 -2 LINE",
"315 -9 OFFCURVE",
"312 -16 OFFCURVE",
"307 -21 CURVE SMOOTH",
"302 -26 OFFCURVE",
"295 -29 OFFCURVE",
"288 -29 CURVE SMOOTH",
"287 -29 LINE",
"28 -29 LINE",
"27 -29 LINE SMOOTH",
"20 -29 OFFCURVE",
"13 -26 OFFCURVE",
"8 -21 CURVE SMOOTH",
"3 -16 OFFCURVE",
"0 -9 OFFCURVE",
"0 -2 CURVE",
"0 -2 LINE",
"0 360 LINE",
"0 360 LINE",
"0 367 OFFCURVE",
"3 374 OFFCURVE",
"8 379 CURVE SMOOTH",
"13 384 OFFCURVE",
"20 387 OFFCURVE",
"27 387 CURVE SMOOTH",
"102 387 LINE",
"102 404 LINE",
"102 405 LINE SMOOTH",
"102 410 OFFCURVE",
"105 413 OFFCURVE",
"110 413 CURVE",
"110 413 LINE",
"205 413 LINE SMOOTH",
"210 413 OFFCURVE",
"213 410 OFFCURVE",
"213 405 CURVE",
"213 405 LINE",
"213 387 LINE",
"288 387 LINE SMOOTH",
"295 387 OFFCURVE",
"302 384 OFFCURVE",
"307 379 CURVE SMOOTH",
"312 374 OFFCURVE",
"315 367 OFFCURVE",
"315 360 CURVE",
"315 360 LINE",
"315 292 LINE SMOOTH",
"315 287 OFFCURVE",
"313 285 OFFCURVE",
"309 285 CURVE SMOOTH",
"270 285 LINE SMOOTH",
"266 285 OFFCURVE",
"264 287 OFFCURVE",
"264 292 CURVE SMOOTH",
"264 336 LINE",
"239 336 LINE",
"239 320 LINE SMOOTH",
"239 314 OFFCURVE",
"236 311 OFFCURVE",
"229 311 CURVE SMOOTH",
"86 311 LINE",
"86 311 LINE SMOOTH",
"79 311 OFFCURVE",
"76 314 OFFCURVE",
"76 320 CURVE SMOOTH",
"76 321 LINE",
"76 336 LINE",
"51 336 LINE",
"51 22 LINE",
"264 22 LINE",
"264 67 LINE SMOOTH",
"264 71 OFFCURVE",
"266 73 OFFCURVE",
"270 73 CURVE",
"270 73 LINE"
);
}
);
width = 392;
}
);
unicode = F129;
},
{
glyphname = uniF12A;
layers = (
{
layerId = "EBF4EA88-05C0-40D0-B291-B170F4B137C3";
name = Regular;
paths = (
{
closed = 1;
nodes = (
"315 -2 LINE",
"315 -2 LINE",
"315 -9 OFFCURVE",
"312 -16 OFFCURVE",
"307 -21 CURVE SMOOTH",
"302 -26 OFFCURVE",
"295 -29 OFFCURVE",
"288 -29 CURVE SMOOTH",
"287 -29 LINE",
"28 -29 LINE",
"27 -29 LINE SMOOTH",
"20 -29 OFFCURVE",
"13 -26 OFFCURVE",
"8 -21 CURVE SMOOTH",
"3 -16 OFFCURVE",
"0 -9 OFFCURVE",
"0 -2 CURVE",
"0 -2 LINE",
"0 360 LINE",
"0 360 LINE",
"0 367 OFFCURVE",
"3 374 OFFCURVE",
"8 379 CURVE SMOOTH",
"13 384 OFFCURVE",
"20 387 OFFCURVE",
"27 387 CURVE SMOOTH",
"102 387 LINE",
"102 404 LINE",
"102 405 LINE SMOOTH",
"102 410 OFFCURVE",
"105 413 OFFCURVE",
"110 413 CURVE",
"110 413 LINE",
"205 413 LINE SMOOTH",
"210 413 OFFCURVE",
"213 410 OFFCURVE",
"213 405 CURVE",
"213 405 LINE",
"213 387 LINE",
"288 387 LINE SMOOTH",
"295 387 OFFCURVE",
"302 384 OFFCURVE",
"307 379 CURVE SMOOTH",
"312 374 OFFCURVE",
"315 367 OFFCURVE",
"315 360 CURVE SMOOTH"
);
},
{
closed = 1;
nodes = (
"264 22 LINE",
"264 336 LINE",
"239 336 LINE",
"239 320 LINE SMOOTH",
"239 314 OFFCURVE",
"236 311 OFFCURVE",
"229 311 CURVE SMOOTH",
"86 311 LINE",
"86 311 LINE SMOOTH",
"79 311 OFFCURVE",
"76 314 OFFCURVE",
"76 320 CURVE SMOOTH",
"76 321 LINE",
"76 336 LINE",
"51 336 LINE",
"51 22 LINE"
);
}
);
width = 315;
}
);
unicode = F12A;
},
{
glyphname = uniF12B;
layers = (
{
layerId = "EBF4EA88-05C0-40D0-B291-B170F4B137C3";
name = Regular;
paths = (
{
closed = 1;
nodes = (
"264 319 OFFCURVE",
"231 333 OFFCURVE",
"192 333 CURVE SMOOTH",
"153 333 OFFCURVE",
"120 319 OFFCURVE",
"93 292 CURVE SMOOTH",
"65 264 OFFCURVE",
"51 231 OFFCURVE",
"51 192 CURVE SMOOTH",
"51 153 OFFCURVE",
"65 120 OFFCURVE",
"93 93 CURVE",
"120 65 OFFCURVE",
"153 51 OFFCURVE",
"192 51 CURVE SMOOTH",
"231 51 OFFCURVE",
"264 65 OFFCURVE",
"292 93 CURVE SMOOTH",
"319 120 OFFCURVE",
"333 153 OFFCURVE",
"333 192 CURVE SMOOTH",
"333 231 OFFCURVE",
"319 264 OFFCURVE",
"292 292 CURVE"
);
},
{
closed = 1;
nodes = (
"93 365 OFFCURVE",
"139 384 OFFCURVE",
"192 384 CURVE SMOOTH",
"245 384 OFFCURVE",
"291 365 OFFCURVE",
"328 328 CURVE SMOOTH",
"365 291 OFFCURVE",
"384 245 OFFCURVE",
"384 192 CURVE SMOOTH",
"384 139 OFFCURVE",
"365 93 OFFCURVE",
"328 56 CURVE SMOOTH",
"291 19 OFFCURVE",
"245 0 OFFCURVE",
"192 0 CURVE SMOOTH",
"139 0 OFFCURVE",
"93 19 OFFCURVE",
"56 56 CURVE SMOOTH",
"19 93 OFFCURVE",
"0 139 OFFCURVE",
"0 192 CURVE SMOOTH",
"0 245 OFFCURVE",
"19 291 OFFCURVE",
"56 328 CURVE SMOOTH"
);
},
{
closed = 1;
nodes = (
"290 263 LINE SMOOTH",
"295 258 OFFCURVE",
"295 254 OFFCURVE",
"290 249 CURVE SMOOTH",
"199 158 LINE SMOOTH",
"197 156 OFFCURVE",
"195 155 OFFCURVE",
"192 155 CURVE SMOOTH",
"189 155 OFFCURVE",
"187 156 OFFCURVE",
"185 158 CURVE SMOOTH",
"123 220 LINE SMOOTH",
"121 222 OFFCURVE",
"120 224 OFFCURVE",
"120 227 CURVE SMOOTH",
"120 230 OFFCURVE",
"121 233 OFFCURVE",
"123 235 CURVE SMOOTH",
"143 255 LINE SMOOTH",
"148 260 OFFCURVE",
"152 260 OFFCURVE",
"157 255 CURVE SMOOTH",
"192 219 LINE",
"256 283 LINE SMOOTH",
"261 288 OFFCURVE",
"265 288 OFFCURVE",
"270 283 CURVE SMOOTH"
);
}
);
width = 384;
}
);
unicode = F12B;
},
{
glyphname = uniF12C;
layers = (
{
layerId = "EBF4EA88-05C0-40D0-B291-B170F4B137C3";
name = Regular;
paths = (
{
closed = 1;
nodes = (
"333 300 LINE SMOOTH",
"339 299 OFFCURVE",
"342 295 OFFCURVE",
"342 289 CURVE SMOOTH",
"342 195 LINE",
"342 189 LINE",
"342 95 LINE SMOOTH",
"342 89 OFFCURVE",
"339 85 OFFCURVE",
"333 84 CURVE SMOOTH",
"173 52 LINE",
"169 52 LINE",
"9 84 LINE SMOOTH",
"3 85 OFFCURVE",
"0 89 OFFCURVE",
"0 95 CURVE SMOOTH",
"0 189 LINE",
"0 195 LINE",
"0 289 LINE SMOOTH",
"0 295 OFFCURVE",
"3 299 OFFCURVE",
"9 300 CURVE SMOOTH",
"169 332 LINE",
"173 332 LINE"
);
},
{
closed = 1;
nodes = (
"150 153 OFFCURVE",
"150 155 OFFCURVE",
"149 157 CURVE SMOOTH",
"148 159 OFFCURVE",
"146 161 OFFCURVE",
"144 162 CURVE",
"125 170 LINE",
"123 171 OFFCURVE",
"121 171 OFFCURVE",
"119 170 CURVE SMOOTH",
"117 169 OFFCURVE",
"115 167 OFFCURVE",
"114 165 CURVE",
"109 156 OFFCURVE",
"104 151 OFFCURVE",
"97 151 CURVE SMOOTH",
"90 151 OFFCURVE",
"84 155 OFFCURVE",
"80 163 CURVE",
"75 170 OFFCURVE",
"73 180 OFFCURVE",
"73 192 CURVE SMOOTH",
"73 204 OFFCURVE",
"75 214 OFFCURVE",
"80 222 CURVE",
"84 229 OFFCURVE",
"90 233 OFFCURVE",
"97 233 CURVE SMOOTH",
"104 233 OFFCURVE",
"110 229 OFFCURVE",
"114 220 CURVE",
"117 215 OFFCURVE",
"121 213 OFFCURVE",
"126 216 CURVE",
"144 224 LINE",
"146 225 OFFCURVE",
"148 227 OFFCURVE",
"149 229 CURVE",
"150 230 OFFCURVE",
"149 232 OFFCURVE",
"148 235 CURVE",
"137 258 OFFCURVE",
"120 270 OFFCURVE",
"97 270 CURVE SMOOTH",
"78 270 OFFCURVE",
"62 263 OFFCURVE",
"51 249 CURVE SMOOTH",
"39 234 OFFCURVE",
"33 215 OFFCURVE",
"33 192 CURVE SMOOTH",
"33 169 OFFCURVE",
"39 150 OFFCURVE",
"51 136 CURVE",
"62 121 OFFCURVE",
"78 114 OFFCURVE",
"97 114 CURVE SMOOTH",
"120 114 OFFCURVE",
"138 126 OFFCURVE",
"149 150 CURVE"
);
},
{
closed = 1;
nodes = (
"309 153 OFFCURVE",
"309 155 OFFCURVE",
"308 157 CURVE SMOOTH",
"307 159 OFFCURVE",
"305 161 OFFCURVE",
"303 162 CURVE",
"285 170 LINE",
"283 171 OFFCURVE",
"281 171 OFFCURVE",
"278 170 CURVE",
"276 169 OFFCURVE",
"274 167 OFFCURVE",
"273 165 CURVE",
"268 156 OFFCURVE",
"263 151 OFFCURVE",
"257 151 CURVE SMOOTH",
"250 151 OFFCURVE",
"244 155 OFFCURVE",
"239 163 CURVE",
"234 170 OFFCURVE",
"232 180 OFFCURVE",
"232 192 CURVE SMOOTH",
"232 204 OFFCURVE",
"234 214 OFFCURVE",
"239 222 CURVE",
"244 229 OFFCURVE",
"250 233 OFFCURVE",
"257 233 CURVE SMOOTH",
"264 233 OFFCURVE",
"270 229 OFFCURVE",
"274 220 CURVE",
"277 215 OFFCURVE",
"280 213 OFFCURVE",
"285 216 CURVE",
"303 224 LINE",
"305 225 OFFCURVE",
"307 227 OFFCURVE",
"308 229 CURVE",
"309 230 OFFCURVE",
"308 232 OFFCURVE",
"307 235 CURVE",
"296 258 OFFCURVE",
"279 270 OFFCURVE",
"257 270 CURVE SMOOTH",
"238 270 OFFCURVE",
"222 263 OFFCURVE",
"210 249 CURVE SMOOTH",
"198 234 OFFCURVE",
"192 215 OFFCURVE",
"192 192 CURVE SMOOTH",
"192 169 OFFCURVE",
"198 150 OFFCURVE",
"210 136 CURVE SMOOTH",
"222 121 OFFCURVE",
"238 114 OFFCURVE",
"257 114 CURVE SMOOTH",
"280 114 OFFCURVE",
"297 126 OFFCURVE",
"308 150 CURVE"
);
}
);
width = 342;
}
);
unicode = F12C;
},
{
glyphname = uniF12D;
layers = (
{
layerId = "EBF4EA88-05C0-40D0-B291-B170F4B137C3";
name = Regular;
paths = (
{
closed = 1;
nodes = (
"410 209 OFFCURVE",
"430 202 OFFCURVE",
"447 185 CURVE SMOOTH",
"464 168 OFFCURVE",
"473 147 OFFCURVE",
"473 122 CURVE SMOOTH",
"473 105 OFFCURVE",
"468 88 OFFCURVE",
"457 72 CURVE",
"454 67 OFFCURVE",
"450 65 OFFCURVE",
"445 65 CURVE SMOOTH",
"31 65 LINE SMOOTH",
"26 65 OFFCURVE",
"21 68 OFFCURVE",
"18 73 CURVE SMOOTH",
"6 93 OFFCURVE",
"0 115 OFFCURVE",
"0 139 CURVE SMOOTH",
"0 172 OFFCURVE",
"11 201 OFFCURVE",
"32 225 CURVE SMOOTH",
"53 248 OFFCURVE",
"79 260 OFFCURVE",
"110 260 CURVE SMOOTH",
"117 260 OFFCURVE",
"125 259 OFFCURVE",
"133 257 CURVE",
"162 298 OFFCURVE",
"200 319 OFFCURVE",
"248 319 CURVE SMOOTH",
"280 319 OFFCURVE",
"309 309 OFFCURVE",
"335 288 CURVE SMOOTH",
"360 267 OFFCURVE",
"378 239 OFFCURVE",
"387 206 CURVE"
);
}
);
width = 473;
}
);
unicode = F12D;
},
{
glyphname = uniF12E;
layers = (
{
layerId = "EBF4EA88-05C0-40D0-B291-B170F4B137C3";
name = Regular;
paths = (
{
closed = 1;
nodes = (
"394 166 LINE",
"394 73 LINE",
"391 64 OFFCURVE",
"386 59 OFFCURVE",
"377 59 CURVE SMOOTH",
"152 59 LINE",
"108 15 LINE",
"105 10 OFFCURVE",
"100 7 OFFCURVE",
"93 7 CURVE SMOOTH",
"82 7 OFFCURVE",
"76 13 OFFCURVE",
"76 24 CURVE SMOOTH",
"76 59 LINE",
"17 59 LINE SMOOTH",
"8 59 OFFCURVE",
"3 64 OFFCURVE",
"0 73 CURVE",
"0 361 LINE",
"1 372 OFFCURVE",
"7 377 OFFCURVE",
"17 377 CURVE SMOOTH",
"377 377 LINE SMOOTH",
"387 377 OFFCURVE",
"393 372 OFFCURVE",
"394 361 CURVE",
"394 270 LINE",
"302 270 LINE SMOOTH",
"296 270 OFFCURVE",
"293 267 OFFCURVE",
"293 261 CURVE SMOOTH",
"293 175 LINE SMOOTH",
"293 169 OFFCURVE",
"296 166 OFFCURVE",
"302 166 CURVE SMOOTH"
);
},
{
closed = 1;
nodes = (
"461 245 LINE SMOOTH",
"467 245 OFFCURVE",
"470 242 OFFCURVE",
"470 236 CURVE SMOOTH",
"470 200 LINE SMOOTH",
"470 195 OFFCURVE",
"467 192 OFFCURVE",
"461 192 CURVE SMOOTH",
"328 192 LINE SMOOTH",
"322 192 OFFCURVE",
"319 195 OFFCURVE",
"319 200 CURVE SMOOTH",
"319 236 LINE SMOOTH",
"319 242 OFFCURVE",
"322 245 OFFCURVE",
"328 245 CURVE SMOOTH"
);
}
);
width = 470;
}
);
unicode = F12E;
},
{
glyphname = uniF12F;
layers = (
{
layerId = "EBF4EA88-05C0-40D0-B291-B170F4B137C3";
name = Regular;
paths = (
{
closed = 1;
nodes = (
"394 73 LINE",
"391 64 OFFCURVE",
"386 59 OFFCURVE",
"377 59 CURVE SMOOTH",
"152 59 LINE",
"108 15 LINE",
"105 10 OFFCURVE",
"100 7 OFFCURVE",
"93 7 CURVE SMOOTH",
"82 7 OFFCURVE",
"76 13 OFFCURVE",
"76 24 CURVE SMOOTH",
"76 59 LINE",
"17 59 LINE SMOOTH",
"8 59 OFFCURVE",
"3 64 OFFCURVE",
"0 73 CURVE",
"0 361 LINE",
"1 372 OFFCURVE",
"7 377 OFFCURVE",
"17 377 CURVE SMOOTH",
"377 377 LINE SMOOTH",
"387 377 OFFCURVE",
"393 372 OFFCURVE",
"394 361 CURVE"
);
},
{
closed = 1;
nodes = (
"94 189 OFFCURVE",
"101 192 OFFCURVE",
"106 197 CURVE SMOOTH",
"111 202 OFFCURVE",
"113 208 OFFCURVE",
"113 215 CURVE SMOOTH",
"113 222 OFFCURVE",
"111 227 OFFCURVE",
"107 232 CURVE",
"102 237 OFFCURVE",
"97 239 OFFCURVE",
"90 239 CURVE SMOOTH",
"87 239 OFFCURVE",
"85 239 OFFCURVE",
"84 238 CURVE",
"87 252 OFFCURVE",
"95 262 OFFCURVE",
"108 269 CURVE",
"109 269 LINE",
"110 270 OFFCURVE",
"111 271 OFFCURVE",
"111 272 CURVE SMOOTH",
"111 273 OFFCURVE",
"110 274 OFFCURVE",
"109 275 CURVE",
"95 284 LINE",
"94 284 OFFCURVE",
"94 284 OFFCURVE",
"94 285 CURVE",
"94 285 OFFCURVE",
"94 285 OFFCURVE",
"93 285 CURVE SMOOTH",
"92 285 OFFCURVE",
"92 285 OFFCURVE",
"92 285 CURVE",
"92 284 OFFCURVE",
"92 284 OFFCURVE",
"91 284 CURVE",
"68 268 OFFCURVE",
"57 248 OFFCURVE",
"57 223 CURVE SMOOTH",
"57 212 OFFCURVE",
"60 204 OFFCURVE",
"66 198 CURVE",
"71 192 OFFCURVE",
"78 189 OFFCURVE",
"87 189 CURVE SMOOTH"
);
},
{
closed = 1;
nodes = (
"161 189 OFFCURVE",
"168 192 OFFCURVE",
"173 197 CURVE SMOOTH",
"178 202 OFFCURVE",
"181 208 OFFCURVE",
"181 215 CURVE SMOOTH",
"181 222 OFFCURVE",
"179 227 OFFCURVE",
"175 232 CURVE",
"170 237 OFFCURVE",
"165 239 OFFCURVE",
"158 239 CURVE SMOOTH",
"154 239 OFFCURVE",
"152 239 OFFCURVE",
"151 238 CURVE",
"154 251 OFFCURVE",
"163 262 OFFCURVE",
"176 269 CURVE",
"176 269 LINE",
"177 270 OFFCURVE",
"178 271 OFFCURVE",
"178 272 CURVE SMOOTH",
"178 273 OFFCURVE",
"178 274 OFFCURVE",
"177 275 CURVE",
"163 284 LINE",
"162 284 OFFCURVE",
"162 284 OFFCURVE",
"162 285 CURVE",
"162 285 OFFCURVE",
"162 285 OFFCURVE",
"161 285 CURVE SMOOTH",
"160 285 OFFCURVE",
"160 285 OFFCURVE",
"160 285 CURVE",
"160 284 OFFCURVE",
"160 284 OFFCURVE",
"159 284 CURVE",
"136 268 OFFCURVE",
"125 248 OFFCURVE",
"125 223 CURVE SMOOTH",
"125 212 OFFCURVE",
"128 204 OFFCURVE",
"133 198 CURVE SMOOTH",
"138 192 OFFCURVE",
"145 189 OFFCURVE",
"154 189 CURVE SMOOTH"
);
},
{
closed = 1;
nodes = (
"258 169 OFFCURVE",
"270 189 OFFCURVE",
"270 214 CURVE SMOOTH",
"270 225 OFFCURVE",
"267 233 OFFCURVE",
"262 239 CURVE",
"256 245 OFFCURVE",
"249 248 OFFCURVE",
"240 248 CURVE SMOOTH",
"233 248 OFFCURVE",
"227 245 OFFCURVE",
"222 240 CURVE SMOOTH",
"217 235 OFFCURVE",
"214 228 OFFCURVE",
"214 221 CURVE SMOOTH",
"214 214 OFFCURVE",
"216 208 OFFCURVE",
"220 204 CURVE",
"224 199 OFFCURVE",
"229 197 OFFCURVE",
"236 197 CURVE SMOOTH",
"240 197 OFFCURVE",
"242 197 OFFCURVE",
"243 198 CURVE",
"240 185 OFFCURVE",
"231 174 OFFCURVE",
"218 167 CURVE",
"218 167 LINE",
"217 166 OFFCURVE",
"216 165 OFFCURVE",
"216 164 CURVE SMOOTH",
"216 163 OFFCURVE",
"217 162 OFFCURVE",
"218 161 CURVE",
"217 161 LINE",
"231 152 LINE",
"232 152 OFFCURVE",
"232 152 OFFCURVE",
"232 152 CURVE",
"234 151 LINE",
"234 152 LINE",
"234 152 OFFCURVE",
"234 152 OFFCURVE",
"235 152 CURVE"
);
},
{
closed = 1;
nodes = (
"326 168 OFFCURVE",
"337 189 OFFCURVE",
"337 214 CURVE SMOOTH",
"337 225 OFFCURVE",
"334 233 OFFCURVE",
"329 239 CURVE SMOOTH",
"324 245 OFFCURVE",
"317 248 OFFCURVE",
"308 248 CURVE SMOOTH",
"301 248 OFFCURVE",
"295 245 OFFCURVE",
"290 240 CURVE",
"284 235 OFFCURVE",
"281 228 OFFCURVE",
"281 221 CURVE SMOOTH",
"281 214 OFFCURVE",
"283 209 OFFCURVE",
"288 204 CURVE",
"292 199 OFFCURVE",
"297 197 OFFCURVE",
"304 197 CURVE SMOOTH",
"308 197 OFFCURVE",
"310 197 OFFCURVE",
"311 198 CURVE",
"308 185 OFFCURVE",
"299 174 OFFCURVE",
"286 167 CURVE",
"286 167 LINE",
"285 166 OFFCURVE",
"284 165 OFFCURVE",
"284 164 CURVE SMOOTH",
"284 163 OFFCURVE",
"284 162 OFFCURVE",
"285 161 CURVE",
"299 152 LINE",
"300 152 OFFCURVE",
"300 152 OFFCURVE",
"300 152 CURVE",
"300 151 OFFCURVE",
"300 151 OFFCURVE",
"301 151 CURVE SMOOTH",
"302 151 OFFCURVE",
"302 151 OFFCURVE",
"302 152 CURVE",
"302 152 OFFCURVE",
"302 152 OFFCURVE",
"303 152 CURVE"
);
}
);
width = 394;
}
);
unicode = F12F;
},
{
glyphname = uniF130;
layers = (
{
layerId = "EBF4EA88-05C0-40D0-B291-B170F4B137C3";
name = Regular;
paths = (
{
closed = 1;
nodes = (
"394 73 LINE",
"391 64 OFFCURVE",
"386 59 OFFCURVE",
"377 59 CURVE SMOOTH",
"152 59 LINE",
"108 15 LINE",
"105 10 OFFCURVE",
"100 7 OFFCURVE",
"93 7 CURVE SMOOTH",
"82 7 OFFCURVE",
"76 13 OFFCURVE",
"76 24 CURVE SMOOTH",
"76 59 LINE",
"17 59 LINE SMOOTH",
"8 59 OFFCURVE",
"3 64 OFFCURVE",
"0 73 CURVE",
"0 361 LINE",
"1 372 OFFCURVE",
"7 377 OFFCURVE",
"17 377 CURVE SMOOTH",
"377 377 LINE SMOOTH",
"387 377 OFFCURVE",
"393 372 OFFCURVE",
"394 361 CURVE"
);
},
{
closed = 1;
nodes = (
"305 155 LINE",
"305 279 LINE",
"240 249 LINE",
"240 277 LINE SMOOTH",
"240 285 OFFCURVE",
"236 289 OFFCURVE",
"227 289 CURVE SMOOTH",
"117 289 LINE SMOOTH",
"109 289 OFFCURVE",
"105 285 OFFCURVE",
"105 277 CURVE SMOOTH",
"105 157 LINE SMOOTH",
"105 149 OFFCURVE",
"109 145 OFFCURVE",
"117 145 CURVE SMOOTH",
"227 145 LINE SMOOTH",
"236 145 OFFCURVE",
"240 149 OFFCURVE",
"240 157 CURVE SMOOTH",
"240 186 LINE"
);
}
);
width = 394;
}
);
unicode = F130;
},
{
glyphname = uniF131;
layers = (
{
layerId = "EBF4EA88-05C0-40D0-B291-B170F4B137C3";
name = Regular;
paths = (
{
closed = 1;
nodes = (
"394 73 LINE",
"391 64 OFFCURVE",
"386 59 OFFCURVE",
"377 59 CURVE SMOOTH",
"152 59 LINE",
"108 15 LINE",
"105 10 OFFCURVE",
"100 7 OFFCURVE",
"93 7 CURVE SMOOTH",
"82 7 OFFCURVE",
"76 13 OFFCURVE",
"76 24 CURVE SMOOTH",
"76 59 LINE",
"17 59 LINE SMOOTH",
"8 59 OFFCURVE",
"3 64 OFFCURVE",
"0 73 CURVE",
"0 361 LINE",
"1 372 OFFCURVE",
"7 377 OFFCURVE",
"17 377 CURVE SMOOTH",
"377 377 LINE SMOOTH",
"387 377 OFFCURVE",
"393 372 OFFCURVE",
"394 361 CURVE"
);
}
);
width = 394;
}
);
unicode = F131;
},
{
glyphname = uniF132;
layers = (
{
layerId = "EBF4EA88-05C0-40D0-B291-B170F4B137C3";
name = Regular;
paths = (
{
closed = 1;
nodes = (
"461 140 LINE",
"460 133 OFFCURVE",
"455 129 OFFCURVE",
"448 129 CURVE SMOOTH",
"404 129 LINE",
"404 103 LINE SMOOTH",
"404 94 OFFCURVE",
"400 90 OFFCURVE",
"391 90 CURVE SMOOTH",
"386 90 OFFCURVE",
"383 92 OFFCURVE",
"380 96 CURVE",
"347 129 LINE",
"290 129 LINE",
"290 279 LINE",
"289 286 OFFCURVE",
"285 289 OFFCURVE",
"279 289 CURVE SMOOTH",
"164 289 LINE",
"164 357 LINE",
"165 364 OFFCURVE",
"170 368 OFFCURVE",
"177 368 CURVE SMOOTH",
"448 368 LINE SMOOTH",
"455 368 OFFCURVE",
"460 364 OFFCURVE",
"461 357 CURVE"
);
},
{
closed = 1;
nodes = (
"253 264 LINE SMOOTH",
"260 264 OFFCURVE",
"264 260 OFFCURVE",
"265 253 CURVE",
"265 60 LINE",
"264 60 LINE",
"263 53 OFFCURVE",
"259 50 OFFCURVE",
"253 50 CURVE SMOOTH",
"102 50 LINE",
"72 21 LINE",
"70 18 OFFCURVE",
"67 16 OFFCURVE",
"63 16 CURVE SMOOTH",
"55 16 OFFCURVE",
"51 20 OFFCURVE",
"51 27 CURVE SMOOTH",
"51 50 LINE",
"11 50 LINE SMOOTH",
"5 50 OFFCURVE",
"1 53 OFFCURVE",
"0 60 CURVE",
"0 253 LINE",
"1 260 OFFCURVE",
"5 264 OFFCURVE",
"11 264 CURVE SMOOTH"
);
}
);
width = 461;
}
);
unicode = F132;
},
{
glyphname = uniF133;
layers = (
{
layerId = "EBF4EA88-05C0-40D0-B291-B170F4B137C3";
name = Regular;
paths = (
{
closed = 1;
nodes = (
"93 365 OFFCURVE",
"139 384 OFFCURVE",
"192 384 CURVE SMOOTH",
"245 384 OFFCURVE",
"291 365 OFFCURVE",
"328 328 CURVE SMOOTH",
"365 291 OFFCURVE",
"384 245 OFFCURVE",
"384 192 CURVE SMOOTH",
"384 139 OFFCURVE",
"365 93 OFFCURVE",
"328 56 CURVE SMOOTH",
"291 19 OFFCURVE",
"245 0 OFFCURVE",
"192 0 CURVE SMOOTH",
"139 0 OFFCURVE",
"93 19 OFFCURVE",
"56 56 CURVE SMOOTH",
"19 93 OFFCURVE",
"0 139 OFFCURVE",
"0 192 CURVE SMOOTH",
"0 245 OFFCURVE",
"19 291 OFFCURVE",
"56 328 CURVE SMOOTH"
);
},
{
closed = 1;
nodes = (
"120 65 OFFCURVE",
"153 51 OFFCURVE",
"192 51 CURVE SMOOTH",
"231 51 OFFCURVE",
"264 65 OFFCURVE",
"292 93 CURVE SMOOTH",
"319 120 OFFCURVE",
"333 153 OFFCURVE",
"333 192 CURVE SMOOTH",
"333 231 OFFCURVE",
"319 264 OFFCURVE",
"292 292 CURVE",
"264 319 OFFCURVE",
"231 333 OFFCURVE",
"192 333 CURVE SMOOTH",
"153 333 OFFCURVE",
"120 319 OFFCURVE",
"93 292 CURVE SMOOTH",
"65 264 OFFCURVE",
"51 231 OFFCURVE",
"51 192 CURVE SMOOTH",
"51 153 OFFCURVE",
"65 120 OFFCURVE",
"93 93 CURVE"
);
},
{
closed = 1;
nodes = (
"267 281 LINE",
"272 283 OFFCURVE",
"276 282 OFFCURVE",
"279 279 CURVE SMOOTH",
"282 276 OFFCURVE",
"283 272 OFFCURVE",
"281 267 CURVE",
"221 167 LINE",
"218 164 LINE",
"117 103 LINE",
"116 102 OFFCURVE",
"114 102 OFFCURVE",
"112 102 CURVE SMOOTH",
"109 102 OFFCURVE",
"107 103 OFFCURVE",
"105 105 CURVE SMOOTH",
"102 108 OFFCURVE",
"101 112 OFFCURVE",
"103 117 CURVE",
"164 218 LINE",
"167 221 LINE"
);
}
);
width = 384;
}
);
unicode = F133;
},
{
glyphname = uniF134;
layers = (
{
layerId = "EBF4EA88-05C0-40D0-B291-B170F4B137C3";
name = Regular;
paths = (
{
closed = 1;
nodes = (
"93 365 OFFCURVE",
"139 384 OFFCURVE",
"192 384 CURVE SMOOTH",
"245 384 OFFCURVE",
"291 365 OFFCURVE",
"328 328 CURVE SMOOTH",
"365 291 OFFCURVE",
"384 245 OFFCURVE",
"384 192 CURVE SMOOTH",
"384 139 OFFCURVE",
"365 93 OFFCURVE",
"328 56 CURVE SMOOTH",
"291 19 OFFCURVE",
"245 0 OFFCURVE",
"192 0 CURVE SMOOTH",
"139 0 OFFCURVE",
"93 19 OFFCURVE",
"56 56 CURVE SMOOTH",
"19 93 OFFCURVE",
"0 139 OFFCURVE",
"0 192 CURVE SMOOTH",
"0 245 OFFCURVE",
"19 291 OFFCURVE",
"56 328 CURVE SMOOTH"
);
},
{
closed = 1;
nodes = (
"193 51 LINE",
"232 51 OFFCURVE",
"265 65 OFFCURVE",
"292 92 CURVE SMOOTH",
"319 119 OFFCURVE",
"333 153 OFFCURVE",
"333 192 CURVE SMOOTH",
"333 231 OFFCURVE",
"319 265 OFFCURVE",
"292 292 CURVE SMOOTH",
"265 319 OFFCURVE",
"232 333 OFFCURVE",
"193 333 CURVE"
);
}
);
width = 384;
}
);
unicode = F134;
},
{
glyphname = uniF135;
layers = (
{
layerId = "EBF4EA88-05C0-40D0-B291-B170F4B137C3";
name = Regular;
paths = (
{
closed = 1;
nodes = (
"378 313 LINE",
"378 276 LINE",
"0 276 LINE",
"0 312 LINE",
"0 314 LINE SMOOTH",
"0 323 OFFCURVE",
"5 327 OFFCURVE",
"14 327 CURVE SMOOTH",
"15 327 LINE",
"364 327 LINE",
"365 327 LINE SMOOTH",
"374 327 OFFCURVE",
"378 323 OFFCURVE",
"378 314 CURVE SMOOTH"
);
},
{
closed = 1;
nodes = (
"0 225 LINE",
"378 225 LINE",
"378 70 LINE SMOOTH",
"378 61 OFFCURVE",
"374 57 OFFCURVE",
"365 57 CURVE SMOOTH",
"15 57 LINE",
"14 57 LINE SMOOTH",
"5 57 OFFCURVE",
"0 61 OFFCURVE",
"0 70 CURVE SMOOTH"
);
}
);
width = 378;
}
);
unicode = F135;
},
{
glyphname = uniF136;
layers = (
{
layerId = "EBF4EA88-05C0-40D0-B291-B170F4B137C3";
name = Regular;
paths = (
{
closed = 1;
nodes = (
"405 84 LINE SMOOTH",
"414 84 OFFCURVE",
"419 79 OFFCURVE",
"419 70 CURVE SMOOTH",
"419 47 LINE SMOOTH",
"419 38 OFFCURVE",
"414 33 OFFCURVE",
"405 33 CURVE SMOOTH",
"368 33 LINE",
"368 -3 LINE SMOOTH",
"368 -12 OFFCURVE",
"363 -17 OFFCURVE",
"354 -17 CURVE SMOOTH",
"331 -17 LINE SMOOTH",
"322 -17 OFFCURVE",
"317 -12 OFFCURVE",
"317 -3 CURVE SMOOTH",
"317 33 LINE",
"76 33 LINE SMOOTH",
"69 33 OFFCURVE",
"64 36 OFFCURVE",
"59 41 CURVE SMOOTH",
"54 46 OFFCURVE",
"51 51 OFFCURVE",
"51 58 CURVE SMOOTH",
"51 59 LINE",
"51 300 LINE",
"14 300 LINE SMOOTH",
"5 300 OFFCURVE",
"0 305 OFFCURVE",
"0 314 CURVE SMOOTH",
"0 337 LINE SMOOTH",
"0 346 OFFCURVE",
"5 351 OFFCURVE",
"14 351 CURVE SMOOTH",
"51 351 LINE",
"51 387 LINE SMOOTH",
"51 396 OFFCURVE",
"56 401 OFFCURVE",
"65 401 CURVE SMOOTH",
"88 401 LINE SMOOTH",
"97 401 OFFCURVE",
"102 396 OFFCURVE",
"102 387 CURVE SMOOTH",
"102 351 LINE",
"343 351 LINE SMOOTH",
"350 351 OFFCURVE",
"356 349 OFFCURVE",
"361 344 CURVE SMOOTH",
"366 339 OFFCURVE",
"368 333 OFFCURVE",
"368 326 CURVE SMOOTH",
"368 325 LINE",
"368 84 LINE"
);
},
{
closed = 1;
nodes = (
"102 84 LINE",
"317 84 LINE",
"317 300 LINE",
"102 300 LINE"
);
}
);
width = 419;
}
);
unicode = F136;
},
{
glyphname = uniF137;
layers = (
{
layerId = "EBF4EA88-05C0-40D0-B291-B170F4B137C3";
name = Regular;
paths = (
{
closed = 1;
nodes = (
"348 19 LINE",
"348 19 LINE",
"348 8 OFFCURVE",
"343 3 OFFCURVE",
"333 3 CURVE SMOOTH",
"16 3 LINE SMOOTH",
"5 3 OFFCURVE",
"0 8 OFFCURVE",
"0 19 CURVE",
"0 19 LINE",
"0 38 LINE SMOOTH",
"0 49 OFFCURVE",
"5 54 OFFCURVE",
"16 54 CURVE SMOOTH",
"333 54 LINE SMOOTH",
"343 54 OFFCURVE",
"348 49 OFFCURVE",
"348 38 CURVE SMOOTH"
);
},
{
closed = 1;
nodes = (
"44 250 OFFCURVE",
"44 250 OFFCURVE",
"45 250 CURVE SMOOTH",
"46 250 LINE",
"80 215 LINE",
"162 296 LINE SMOOTH",
"165 299 OFFCURVE",
"169 301 OFFCURVE",
"174 301 CURVE SMOOTH",
"179 301 OFFCURVE",
"183 299 OFFCURVE",
"186 296 CURVE SMOOTH",
"268 215 LINE",
"303 250 LINE",
"303 251 OFFCURVE",
"303 252 OFFCURVE",
"304 252 CURVE SMOOTH",
"305 252 LINE",
"309 255 OFFCURVE",
"312 256 OFFCURVE",
"315 256 CURVE SMOOTH",
"320 256 OFFCURVE",
"324 254 OFFCURVE",
"327 251 CURVE SMOOTH",
"330 248 OFFCURVE",
"332 244 OFFCURVE",
"332 239 CURVE SMOOTH",
"332 236 LINE",
"332 91 LINE",
"332 91 LINE",
"332 89 LINE",
"331 80 OFFCURVE",
"325 75 OFFCURVE",
"315 75 CURVE",
"315 74 LINE",
"33 74 LINE",
"33 74 LINE SMOOTH",
"24 74 OFFCURVE",
"18 79 OFFCURVE",
"17 89 CURVE",
"16 89 LINE",
"16 239 LINE",
"17 239 LINE",
"17 250 OFFCURVE",
"22 255 OFFCURVE",
"33 255 CURVE SMOOTH",
"38 255 OFFCURVE",
"41 254 OFFCURVE",
"44 251 CURVE"
);
},
{
closed = 1;
nodes = (
"292 208 LINE",
"291 208 LINE"
);
},
{
closed = 1;
nodes = (
"53 340 OFFCURVE",
"63 330 OFFCURVE",
"63 309 CURVE SMOOTH",
"63 288 OFFCURVE",
"53 278 OFFCURVE",
"33 278 CURVE SMOOTH",
"12 278 OFFCURVE",
"2 288 OFFCURVE",
"2 309 CURVE SMOOTH",
"2 330 OFFCURVE",
"12 340 OFFCURVE",
"33 340 CURVE SMOOTH"
);
},
{
closed = 1;
nodes = (
"293 278 OFFCURVE",
"283 288 OFFCURVE",
"283 309 CURVE SMOOTH",
"283 330 OFFCURVE",
"293 340 OFFCURVE",
"314 340 CURVE SMOOTH",
"335 340 OFFCURVE",
"345 330 OFFCURVE",
"345 309 CURVE SMOOTH",
"345 288 OFFCURVE",
"335 278 OFFCURVE",
"314 278 CURVE SMOOTH"
);
},
{
closed = 1;
nodes = (
"155 319 OFFCURVE",
"145 329 OFFCURVE",
"145 350 CURVE SMOOTH",
"145 371 OFFCURVE",
"155 381 OFFCURVE",
"176 381 CURVE SMOOTH",
"197 381 OFFCURVE",
"207 371 OFFCURVE",
"207 350 CURVE SMOOTH",
"207 329 OFFCURVE",
"197 319 OFFCURVE",
"176 319 CURVE SMOOTH"
);
}
);
width = 348;
}
);
unicode = F137;
},
{
glyphname = uniF138;
layers = (
{
layerId = "EBF4EA88-05C0-40D0-B291-B170F4B137C3";
name = Regular;
paths = (
{
closed = 1;
nodes = (
"0 375 LINE",
"325 375 LINE",
"295 45 LINE",
"163 9 LINE",
"30 45 LINE"
);
},
{
closed = 1;
nodes = (
"260 268 LINE",
"264 308 LINE",
"162 308 LINE",
"59 308 LINE",
"64 268 LINE",
"162 268 LINE",
"168 268 LINE",
"162 266 LINE",
"68 226 LINE",
"71 187 LINE",
"162 187 LINE",
"211 187 LINE",
"208 135 LINE",
"162 122 LINE",
"162 122 LINE",
"118 133 LINE",
"115 165 LINE",
"74 165 LINE",
"79 103 LINE",
"162 78 LINE",
"163 78 LINE",
"245 103 LINE",
"256 226 LINE",
"162 226 LINE",
"162 226 LINE"
);
}
);
width = 325;
}
);
unicode = F138;
},
{
glyphname = uniF139;
layers = (
{
layerId = "EBF4EA88-05C0-40D0-B291-B170F4B137C3";
name = Regular;
paths = (
{
closed = 1;
nodes = (
"124 323 LINE",
"124 61 LINE",
"124 61 LINE",
"124 55 OFFCURVE",
"122 50 OFFCURVE",
"117 46 CURVE",
"112 41 OFFCURVE",
"107 39 OFFCURVE",
"101 39 CURVE SMOOTH",
"21 39 LINE",
"21 40 LINE",
"15 40 OFFCURVE",
"10 42 OFFCURVE",
"6 46 CURVE SMOOTH",
"2 50 OFFCURVE",
"0 55 OFFCURVE",
"0 61 CURVE SMOOTH",
"0 323 LINE SMOOTH",
"0 329 OFFCURVE",
"2 334 OFFCURVE",
"6 339 CURVE",
"10 343 OFFCURVE",
"15 345 OFFCURVE",
"21 345 CURVE SMOOTH",
"101 345 LINE SMOOTH",
"107 345 OFFCURVE",
"112 343 OFFCURVE",
"117 339 CURVE",
"121 334 OFFCURVE",
"123 329 OFFCURVE",
"123 323 CURVE"
);
},
{
closed = 1;
nodes = (
"45 68 OFFCURVE",
"53 65 OFFCURVE",
"62 65 CURVE SMOOTH",
"71 65 OFFCURVE",
"79 68 OFFCURVE",
"85 75 CURVE",
"91 81 OFFCURVE",
"94 88 OFFCURVE",
"94 97 CURVE SMOOTH",
"94 106 OFFCURVE",
"91 113 OFFCURVE",
"85 120 CURVE",
"79 126 OFFCURVE",
"71 129 OFFCURVE",
"62 129 CURVE SMOOTH",
"53 129 OFFCURVE",
"45 126 OFFCURVE",
"39 120 CURVE",
"33 113 OFFCURVE",
"30 106 OFFCURVE",
"30 97 CURVE SMOOTH",
"30 88 OFFCURVE",
"33 81 OFFCURVE",
"39 75 CURVE"
);
},
{
closed = 1;
nodes = (
"98 180 LINE",
"98 319 LINE",
"26 319 LINE",
"26 180 LINE"
);
},
{
closed = 1;
nodes = (
"273 61 LINE",
"273 61 LINE",
"273 55 OFFCURVE",
"271 50 OFFCURVE",
"267 46 CURVE SMOOTH",
"262 41 OFFCURVE",
"257 39 OFFCURVE",
"251 39 CURVE SMOOTH",
"170 39 LINE",
"170 40 LINE",
"164 40 OFFCURVE",
"159 42 OFFCURVE",
"155 46 CURVE SMOOTH",
"151 50 OFFCURVE",
"149 55 OFFCURVE",
"149 61 CURVE SMOOTH",
"149 323 LINE SMOOTH",
"149 329 OFFCURVE",
"151 334 OFFCURVE",
"155 339 CURVE",
"159 343 OFFCURVE",
"164 345 OFFCURVE",
"170 345 CURVE SMOOTH",
"251 345 LINE SMOOTH",
"257 345 OFFCURVE",
"262 343 OFFCURVE",
"267 339 CURVE",
"271 334 OFFCURVE",
"273 329 OFFCURVE",
"273 323 CURVE SMOOTH"
);
},
{
closed = 1;
nodes = (
"195 68 OFFCURVE",
"202 65 OFFCURVE",
"211 65 CURVE SMOOTH",
"220 65 OFFCURVE",
"227 68 OFFCURVE",
"234 75 CURVE SMOOTH",
"240 81 OFFCURVE",
"243 88 OFFCURVE",
"243 97 CURVE SMOOTH",
"243 106 OFFCURVE",
"240 113 OFFCURVE",
"234 120 CURVE",
"227 126 OFFCURVE",
"220 129 OFFCURVE",
"211 129 CURVE SMOOTH",
"202 129 OFFCURVE",
"195 126 OFFCURVE",
"189 120 CURVE SMOOTH",
"182 113 OFFCURVE",
"179 106 OFFCURVE",
"179 97 CURVE SMOOTH",
"179 88 OFFCURVE",
"182 81 OFFCURVE",
"189 75 CURVE"
);
},
{
closed = 1;
nodes = (
"247 180 LINE",
"247 319 LINE",
"175 319 LINE",
"175 180 LINE"
);
},
{
closed = 1;
nodes = (
"422 61 LINE",
"422 61 LINE",
"422 55 OFFCURVE",
"420 50 OFFCURVE",
"416 46 CURVE SMOOTH",
"411 41 OFFCURVE",
"406 39 OFFCURVE",
"400 39 CURVE SMOOTH",
"319 39 LINE",
"319 40 LINE",
"313 40 OFFCURVE",
"308 42 OFFCURVE",
"304 46 CURVE SMOOTH",
"300 50 OFFCURVE",
"298 55 OFFCURVE",
"298 61 CURVE SMOOTH",
"298 323 LINE SMOOTH",
"298 329 OFFCURVE",
"300 334 OFFCURVE",
"304 339 CURVE",
"308 343 OFFCURVE",
"313 345 OFFCURVE",
"319 345 CURVE SMOOTH",
"400 345 LINE SMOOTH",
"406 345 OFFCURVE",
"411 343 OFFCURVE",
"416 339 CURVE",
"420 334 OFFCURVE",
"422 329 OFFCURVE",
"422 323 CURVE SMOOTH"
);
},
{
closed = 1;
nodes = (
"343 68 OFFCURVE",
"351 65 OFFCURVE",
"360 65 CURVE SMOOTH",
"369 65 OFFCURVE",
"377 68 OFFCURVE",
"383 75 CURVE",
"389 81 OFFCURVE",
"392 88 OFFCURVE",
"392 97 CURVE SMOOTH",
"392 106 OFFCURVE",
"389 113 OFFCURVE",
"383 120 CURVE",
"377 126 OFFCURVE",
"369 129 OFFCURVE",
"360 129 CURVE SMOOTH",
"351 129 OFFCURVE",
"343 126 OFFCURVE",
"337 120 CURVE",
"331 113 OFFCURVE",
"328 106 OFFCURVE",
"328 97 CURVE SMOOTH",
"328 88 OFFCURVE",
"331 81 OFFCURVE",
"337 75 CURVE"
);
},
{
closed = 1;
nodes = (
"396 180 LINE",
"396 319 LINE",
"324 319 LINE",
"324 180 LINE"
);
}
);
width = 422;
}
);
unicode = F139;
},
{
glyphname = uniF13A;
layers = (
{
layerId = "EBF4EA88-05C0-40D0-B291-B170F4B137C3";
name = Regular;
paths = (
{
closed = 1;
nodes = (
"348 55 LINE SMOOTH",
"348 45 OFFCURVE",
"344 36 OFFCURVE",
"337 29 CURVE SMOOTH",
"330 22 OFFCURVE",
"321 18 OFFCURVE",
"311 18 CURVE SMOOTH",
"37 18 LINE SMOOTH",
"27 18 OFFCURVE",
"18 22 OFFCURVE",
"11 29 CURVE SMOOTH",
"4 36 OFFCURVE",
"0 45 OFFCURVE",
"0 55 CURVE SMOOTH",
"0 329 LINE SMOOTH",
"0 339 OFFCURVE",
"4 348 OFFCURVE",
"11 355 CURVE SMOOTH",
"18 362 OFFCURVE",
"27 366 OFFCURVE",
"37 366 CURVE SMOOTH",
"311 366 LINE",
"321 365 OFFCURVE",
"330 362 OFFCURVE",
"337 355 CURVE SMOOTH",
"344 348 OFFCURVE",
"348 339 OFFCURVE",
"348 329 CURVE SMOOTH"
);
},
{
closed = 1;
nodes = (
"69 75 OFFCURVE",
"77 71 OFFCURVE",
"87 71 CURVE SMOOTH",
"97 71 OFFCURVE",
"106 75 OFFCURVE",
"113 82 CURVE SMOOTH",
"120 89 OFFCURVE",
"123 97 OFFCURVE",
"123 107 CURVE SMOOTH",
"123 117 OFFCURVE",
"120 126 OFFCURVE",
"113 133 CURVE SMOOTH",
"106 140 OFFCURVE",
"97 143 OFFCURVE",
"87 143 CURVE SMOOTH",
"77 143 OFFCURVE",
"69 140 OFFCURVE",
"62 133 CURVE SMOOTH",
"55 126 OFFCURVE",
"51 117 OFFCURVE",
"51 107 CURVE SMOOTH",
"51 97 OFFCURVE",
"55 89 OFFCURVE",
"62 82 CURVE SMOOTH"
);
},
{
closed = 1;
nodes = (
"69 247 OFFCURVE",
"77 243 OFFCURVE",
"87 243 CURVE SMOOTH",
"97 243 OFFCURVE",
"106 247 OFFCURVE",
"113 254 CURVE SMOOTH",
"120 261 OFFCURVE",
"123 269 OFFCURVE",
"123 279 CURVE SMOOTH",
"123 289 OFFCURVE",
"120 298 OFFCURVE",
"113 305 CURVE SMOOTH",
"106 312 OFFCURVE",
"97 315 OFFCURVE",
"87 315 CURVE SMOOTH",
"77 315 OFFCURVE",
"69 312 OFFCURVE",
"62 305 CURVE SMOOTH",
"55 298 OFFCURVE",
"51 289 OFFCURVE",
"51 279 CURVE SMOOTH",
"51 269 OFFCURVE",
"55 261 OFFCURVE",
"62 254 CURVE SMOOTH"
);
},
{
closed = 1;
nodes = (
"156 160 OFFCURVE",
"164 156 OFFCURVE",
"174 156 CURVE SMOOTH",
"184 156 OFFCURVE",
"193 160 OFFCURVE",
"200 167 CURVE SMOOTH",
"207 174 OFFCURVE",
"210 182 OFFCURVE",
"210 192 CURVE SMOOTH",
"210 202 OFFCURVE",
"207 211 OFFCURVE",
"200 218 CURVE SMOOTH",
"193 225 OFFCURVE",
"184 228 OFFCURVE",
"174 228 CURVE SMOOTH",
"164 228 OFFCURVE",
"156 225 OFFCURVE",
"149 218 CURVE SMOOTH",
"142 211 OFFCURVE",
"138 202 OFFCURVE",
"138 192 CURVE SMOOTH",
"138 182 OFFCURVE",
"142 174 OFFCURVE",
"149 167 CURVE SMOOTH"
);
},
{
closed = 1;
nodes = (
"243 73 OFFCURVE",
"251 69 OFFCURVE",
"261 69 CURVE SMOOTH",
"271 69 OFFCURVE",
"280 73 OFFCURVE",
"287 80 CURVE SMOOTH",
"294 87 OFFCURVE",
"297 95 OFFCURVE",
"297 105 CURVE SMOOTH",
"297 115 OFFCURVE",
"294 124 OFFCURVE",
"287 131 CURVE SMOOTH",
"280 138 OFFCURVE",
"271 141 OFFCURVE",
"261 141 CURVE SMOOTH",
"251 141 OFFCURVE",
"243 138 OFFCURVE",
"236 131 CURVE SMOOTH",
"229 124 OFFCURVE",
"225 115 OFFCURVE",
"225 105 CURVE SMOOTH",
"225 95 OFFCURVE",
"229 87 OFFCURVE",
"236 80 CURVE SMOOTH"
);
},
{
closed = 1;
nodes = (
"243 247 OFFCURVE",
"251 243 OFFCURVE",
"261 243 CURVE SMOOTH",
"271 243 OFFCURVE",
"280 247 OFFCURVE",
"287 254 CURVE SMOOTH",
"294 261 OFFCURVE",
"297 269 OFFCURVE",
"297 279 CURVE SMOOTH",
"297 289 OFFCURVE",
"294 298 OFFCURVE",
"287 305 CURVE SMOOTH",
"280 312 OFFCURVE",
"271 315 OFFCURVE",
"261 315 CURVE SMOOTH",
"251 315 OFFCURVE",
"243 312 OFFCURVE",
"236 305 CURVE SMOOTH",
"229 298 OFFCURVE",
"225 289 OFFCURVE",
"225 279 CURVE SMOOTH",
"225 269 OFFCURVE",
"229 261 OFFCURVE",
"236 254 CURVE SMOOTH"
);
}
);
width = 348;
}
);
unicode = F13A;
},
{
glyphname = uniF13B;
layers = (
{
layerId = "EBF4EA88-05C0-40D0-B291-B170F4B137C3";
name = Regular;
paths = (
{
closed = 1;
nodes = (
"348 55 LINE SMOOTH",
"348 45 OFFCURVE",
"344 36 OFFCURVE",
"337 29 CURVE SMOOTH",
"330 22 OFFCURVE",
"321 18 OFFCURVE",
"311 18 CURVE SMOOTH",
"37 18 LINE SMOOTH",
"27 18 OFFCURVE",
"18 22 OFFCURVE",
"11 29 CURVE SMOOTH",
"4 36 OFFCURVE",
"0 45 OFFCURVE",
"0 55 CURVE SMOOTH",
"0 329 LINE SMOOTH",
"0 339 OFFCURVE",
"4 348 OFFCURVE",
"11 355 CURVE SMOOTH",
"18 362 OFFCURVE",
"27 366 OFFCURVE",
"37 366 CURVE SMOOTH",
"311 366 LINE",
"321 365 OFFCURVE",
"330 362 OFFCURVE",
"337 355 CURVE SMOOTH",
"344 348 OFFCURVE",
"348 339 OFFCURVE",
"348 329 CURVE SMOOTH"
);
},
{
closed = 1;
nodes = (
"69 75 OFFCURVE",
"77 71 OFFCURVE",
"87 71 CURVE SMOOTH",
"97 71 OFFCURVE",
"106 75 OFFCURVE",
"113 82 CURVE SMOOTH",
"120 89 OFFCURVE",
"123 97 OFFCURVE",
"123 107 CURVE SMOOTH",
"123 117 OFFCURVE",
"120 126 OFFCURVE",
"113 133 CURVE SMOOTH",
"106 140 OFFCURVE",
"97 143 OFFCURVE",
"87 143 CURVE SMOOTH",
"77 143 OFFCURVE",
"69 140 OFFCURVE",
"62 133 CURVE SMOOTH",
"55 126 OFFCURVE",
"51 117 OFFCURVE",
"51 107 CURVE SMOOTH",
"51 97 OFFCURVE",
"55 89 OFFCURVE",
"62 82 CURVE SMOOTH"
);
},
{
closed = 1;
nodes = (
"69 247 OFFCURVE",
"77 243 OFFCURVE",
"87 243 CURVE SMOOTH",
"97 243 OFFCURVE",
"106 247 OFFCURVE",
"113 254 CURVE SMOOTH",
"120 261 OFFCURVE",
"123 269 OFFCURVE",
"123 279 CURVE SMOOTH",
"123 289 OFFCURVE",
"120 298 OFFCURVE",
"113 305 CURVE SMOOTH",
"106 312 OFFCURVE",
"97 315 OFFCURVE",
"87 315 CURVE SMOOTH",
"77 315 OFFCURVE",
"69 312 OFFCURVE",
"62 305 CURVE SMOOTH",
"55 298 OFFCURVE",
"51 289 OFFCURVE",
"51 279 CURVE SMOOTH",
"51 269 OFFCURVE",
"55 261 OFFCURVE",
"62 254 CURVE SMOOTH"
);
},
{
closed = 1;
nodes = (
"243 73 OFFCURVE",
"251 69 OFFCURVE",
"261 69 CURVE SMOOTH",
"271 69 OFFCURVE",
"280 73 OFFCURVE",
"287 80 CURVE SMOOTH",
"294 87 OFFCURVE",
"297 95 OFFCURVE",
"297 105 CURVE SMOOTH",
"297 115 OFFCURVE",
"294 124 OFFCURVE",
"287 131 CURVE SMOOTH",
"280 138 OFFCURVE",
"271 141 OFFCURVE",
"261 141 CURVE SMOOTH",
"251 141 OFFCURVE",
"243 138 OFFCURVE",
"236 131 CURVE SMOOTH",
"229 124 OFFCURVE",
"225 115 OFFCURVE",
"225 105 CURVE SMOOTH",
"225 95 OFFCURVE",
"229 87 OFFCURVE",
"236 80 CURVE SMOOTH"
);
},
{
closed = 1;
nodes = (
"243 247 OFFCURVE",
"251 243 OFFCURVE",
"261 243 CURVE SMOOTH",
"271 243 OFFCURVE",
"280 247 OFFCURVE",
"287 254 CURVE SMOOTH",
"294 261 OFFCURVE",
"297 269 OFFCURVE",
"297 279 CURVE SMOOTH",
"297 289 OFFCURVE",
"294 298 OFFCURVE",
"287 305 CURVE SMOOTH",
"280 312 OFFCURVE",
"271 315 OFFCURVE",
"261 315 CURVE SMOOTH",
"251 315 OFFCURVE",
"243 312 OFFCURVE",
"236 305 CURVE SMOOTH",
"229 298 OFFCURVE",
"225 289 OFFCURVE",
"225 279 CURVE SMOOTH",
"225 269 OFFCURVE",
"229 261 OFFCURVE",
"236 254 CURVE SMOOTH"
);
}
);
width = 348;
}
);
unicode = F13B;
},
{
glyphname = uniF13C;
layers = (
{
layerId = "EBF4EA88-05C0-40D0-B291-B170F4B137C3";
name = Regular;
paths = (
{
closed = 1;
nodes = (
"348 55 LINE SMOOTH",
"348 45 OFFCURVE",
"344 36 OFFCURVE",
"337 29 CURVE SMOOTH",
"330 22 OFFCURVE",
"321 18 OFFCURVE",
"311 18 CURVE SMOOTH",
"37 18 LINE SMOOTH",
"27 18 OFFCURVE",
"18 22 OFFCURVE",
"11 29 CURVE SMOOTH",
"4 36 OFFCURVE",
"0 45 OFFCURVE",
"0 55 CURVE SMOOTH",
"0 329 LINE SMOOTH",
"0 339 OFFCURVE",
"4 348 OFFCURVE",
"11 355 CURVE SMOOTH",
"18 362 OFFCURVE",
"27 366 OFFCURVE",
"37 366 CURVE SMOOTH",
"311 366 LINE",
"321 365 OFFCURVE",
"330 362 OFFCURVE",
"337 355 CURVE SMOOTH",
"344 348 OFFCURVE",
"348 339 OFFCURVE",
"348 329 CURVE SMOOTH"
);
},
{
closed = 1;
nodes = (
"154 157 OFFCURVE",
"163 153 OFFCURVE",
"174 153 CURVE SMOOTH",
"185 153 OFFCURVE",
"194 157 OFFCURVE",
"202 165 CURVE SMOOTH",
"209 172 OFFCURVE",
"213 181 OFFCURVE",
"213 192 CURVE SMOOTH",
"213 203 OFFCURVE",
"209 212 OFFCURVE",
"202 220 CURVE",
"194 227 OFFCURVE",
"185 231 OFFCURVE",
"174 231 CURVE SMOOTH",
"163 231 OFFCURVE",
"154 227 OFFCURVE",
"147 220 CURVE SMOOTH",
"139 212 OFFCURVE",
"135 203 OFFCURVE",
"135 192 CURVE SMOOTH",
"135 181 OFFCURVE",
"139 172 OFFCURVE",
"147 165 CURVE"
);
}
);
width = 348;
}
);
unicode = F13C;
},
{
glyphname = uniF13D;
layers = (
{
layerId = "EBF4EA88-05C0-40D0-B291-B170F4B137C3";
name = Regular;
paths = (
{
closed = 1;
nodes = (
"348 55 LINE SMOOTH",
"348 45 OFFCURVE",
"344 36 OFFCURVE",
"337 29 CURVE SMOOTH",
"330 22 OFFCURVE",
"321 18 OFFCURVE",
"311 18 CURVE SMOOTH",
"37 18 LINE SMOOTH",
"27 18 OFFCURVE",
"18 22 OFFCURVE",
"11 29 CURVE SMOOTH",
"4 36 OFFCURVE",
"0 45 OFFCURVE",
"0 55 CURVE SMOOTH",
"0 329 LINE SMOOTH",
"0 339 OFFCURVE",
"4 348 OFFCURVE",
"11 355 CURVE SMOOTH",
"18 362 OFFCURVE",
"27 366 OFFCURVE",
"37 366 CURVE SMOOTH",
"311 366 LINE",
"321 365 OFFCURVE",
"330 362 OFFCURVE",
"337 355 CURVE SMOOTH",
"344 348 OFFCURVE",
"348 339 OFFCURVE",
"348 329 CURVE SMOOTH"
);
},
{
closed = 1;
nodes = (
"69 75 OFFCURVE",
"77 71 OFFCURVE",
"87 71 CURVE SMOOTH",
"97 71 OFFCURVE",
"106 75 OFFCURVE",
"113 82 CURVE SMOOTH",
"120 89 OFFCURVE",
"123 97 OFFCURVE",
"123 107 CURVE SMOOTH",
"123 117 OFFCURVE",
"120 126 OFFCURVE",
"113 133 CURVE SMOOTH",
"106 140 OFFCURVE",
"97 143 OFFCURVE",
"87 143 CURVE SMOOTH",
"77 143 OFFCURVE",
"69 140 OFFCURVE",
"62 133 CURVE SMOOTH",
"55 126 OFFCURVE",
"51 117 OFFCURVE",
"51 107 CURVE SMOOTH",
"51 97 OFFCURVE",
"55 89 OFFCURVE",
"62 82 CURVE SMOOTH"
);
},
{
closed = 1;
nodes = (
"69 160 OFFCURVE",
"77 156 OFFCURVE",
"87 156 CURVE SMOOTH",
"97 156 OFFCURVE",
"106 160 OFFCURVE",
"113 167 CURVE SMOOTH",
"120 174 OFFCURVE",
"123 182 OFFCURVE",
"123 192 CURVE SMOOTH",
"123 202 OFFCURVE",
"120 211 OFFCURVE",
"113 218 CURVE SMOOTH",
"106 225 OFFCURVE",
"97 228 OFFCURVE",
"87 228 CURVE SMOOTH",
"77 228 OFFCURVE",
"69 225 OFFCURVE",
"62 218 CURVE SMOOTH",
"55 211 OFFCURVE",
"51 202 OFFCURVE",
"51 192 CURVE SMOOTH",
"51 182 OFFCURVE",
"55 174 OFFCURVE",
"62 167 CURVE SMOOTH"
);
},
{
closed = 1;
nodes = (
"69 247 OFFCURVE",
"77 243 OFFCURVE",
"87 243 CURVE SMOOTH",
"97 243 OFFCURVE",
"106 247 OFFCURVE",
"113 254 CURVE SMOOTH",
"120 261 OFFCURVE",
"123 269 OFFCURVE",
"123 279 CURVE SMOOTH",
"123 289 OFFCURVE",
"120 298 OFFCURVE",
"113 305 CURVE SMOOTH",
"106 312 OFFCURVE",
"97 315 OFFCURVE",
"87 315 CURVE SMOOTH",
"77 315 OFFCURVE",
"69 312 OFFCURVE",
"62 305 CURVE SMOOTH",
"55 298 OFFCURVE",
"51 289 OFFCURVE",
"51 279 CURVE SMOOTH",
"51 269 OFFCURVE",
"55 261 OFFCURVE",
"62 254 CURVE SMOOTH"
);
},
{
closed = 1;
nodes = (
"243 73 OFFCURVE",
"251 69 OFFCURVE",
"261 69 CURVE SMOOTH",
"271 69 OFFCURVE",
"280 73 OFFCURVE",
"287 80 CURVE SMOOTH",
"294 87 OFFCURVE",
"297 95 OFFCURVE",
"297 105 CURVE SMOOTH",
"297 115 OFFCURVE",
"294 124 OFFCURVE",
"287 131 CURVE SMOOTH",
"280 138 OFFCURVE",
"271 141 OFFCURVE",
"261 141 CURVE SMOOTH",
"251 141 OFFCURVE",
"243 138 OFFCURVE",
"236 131 CURVE SMOOTH",
"229 124 OFFCURVE",
"225 115 OFFCURVE",
"225 105 CURVE SMOOTH",
"225 95 OFFCURVE",
"229 87 OFFCURVE",
"236 80 CURVE SMOOTH"
);
},
{
closed = 1;
nodes = (
"243 160 OFFCURVE",
"251 156 OFFCURVE",
"261 156 CURVE SMOOTH",
"271 156 OFFCURVE",
"280 160 OFFCURVE",
"287 167 CURVE SMOOTH",
"294 174 OFFCURVE",
"297 182 OFFCURVE",
"297 192 CURVE SMOOTH",
"297 202 OFFCURVE",
"294 211 OFFCURVE",
"287 218 CURVE SMOOTH",
"280 225 OFFCURVE",
"271 228 OFFCURVE",
"261 228 CURVE SMOOTH",
"251 228 OFFCURVE",
"243 225 OFFCURVE",
"236 218 CURVE SMOOTH",
"229 211 OFFCURVE",
"225 202 OFFCURVE",
"225 192 CURVE SMOOTH",
"225 182 OFFCURVE",
"229 174 OFFCURVE",
"236 167 CURVE SMOOTH"
);
},
{
closed = 1;
nodes = (
"243 247 OFFCURVE",
"251 243 OFFCURVE",
"261 243 CURVE SMOOTH",
"271 243 OFFCURVE",
"280 247 OFFCURVE",
"287 254 CURVE SMOOTH",
"294 261 OFFCURVE",
"297 269 OFFCURVE",
"297 279 CURVE SMOOTH",
"297 289 OFFCURVE",
"294 298 OFFCURVE",
"287 305 CURVE SMOOTH",
"280 312 OFFCURVE",
"271 315 OFFCURVE",
"261 315 CURVE SMOOTH",
"251 315 OFFCURVE",
"243 312 OFFCURVE",
"236 305 CURVE SMOOTH",
"229 298 OFFCURVE",
"225 289 OFFCURVE",
"225 279 CURVE SMOOTH",
"225 269 OFFCURVE",
"229 261 OFFCURVE",
"236 254 CURVE SMOOTH"
);
}
);
width = 348;
}
);
unicode = F13D;
},
{
glyphname = uniF13E;
layers = (
{
layerId = "EBF4EA88-05C0-40D0-B291-B170F4B137C3";
name = Regular;
paths = (
{
closed = 1;
nodes = (
"348 55 LINE SMOOTH",
"348 45 OFFCURVE",
"344 36 OFFCURVE",
"337 29 CURVE SMOOTH",
"330 22 OFFCURVE",
"321 18 OFFCURVE",
"311 18 CURVE SMOOTH",
"37 18 LINE SMOOTH",
"27 18 OFFCURVE",
"18 22 OFFCURVE",
"11 29 CURVE SMOOTH",
"4 36 OFFCURVE",
"0 45 OFFCURVE",
"0 55 CURVE SMOOTH",
"0 329 LINE SMOOTH",
"0 339 OFFCURVE",
"4 348 OFFCURVE",
"11 355 CURVE SMOOTH",
"18 362 OFFCURVE",
"27 366 OFFCURVE",
"37 366 CURVE SMOOTH",
"311 366 LINE",
"321 365 OFFCURVE",
"330 362 OFFCURVE",
"337 355 CURVE SMOOTH",
"344 348 OFFCURVE",
"348 339 OFFCURVE",
"348 329 CURVE SMOOTH"
);
},
{
closed = 1;
nodes = (
"69 247 OFFCURVE",
"77 243 OFFCURVE",
"87 243 CURVE SMOOTH",
"97 243 OFFCURVE",
"106 247 OFFCURVE",
"113 254 CURVE SMOOTH",
"120 261 OFFCURVE",
"123 269 OFFCURVE",
"123 279 CURVE SMOOTH",
"123 289 OFFCURVE",
"120 298 OFFCURVE",
"113 305 CURVE SMOOTH",
"106 312 OFFCURVE",
"97 315 OFFCURVE",
"87 315 CURVE SMOOTH",
"77 315 OFFCURVE",
"69 312 OFFCURVE",
"62 305 CURVE SMOOTH",
"55 298 OFFCURVE",
"51 289 OFFCURVE",
"51 279 CURVE SMOOTH",
"51 269 OFFCURVE",
"55 261 OFFCURVE",
"62 254 CURVE SMOOTH"
);
},
{
closed = 1;
nodes = (
"156 160 OFFCURVE",
"164 156 OFFCURVE",
"174 156 CURVE SMOOTH",
"184 156 OFFCURVE",
"193 160 OFFCURVE",
"200 167 CURVE SMOOTH",
"207 174 OFFCURVE",
"210 182 OFFCURVE",
"210 192 CURVE SMOOTH",
"210 202 OFFCURVE",
"207 211 OFFCURVE",
"200 218 CURVE SMOOTH",
"193 225 OFFCURVE",
"184 228 OFFCURVE",
"174 228 CURVE SMOOTH",
"164 228 OFFCURVE",
"156 225 OFFCURVE",
"149 218 CURVE SMOOTH",
"142 211 OFFCURVE",
"138 202 OFFCURVE",
"138 192 CURVE SMOOTH",
"138 182 OFFCURVE",
"142 174 OFFCURVE",
"149 167 CURVE SMOOTH"
);
},
{
closed = 1;
nodes = (
"243 73 OFFCURVE",
"251 69 OFFCURVE",
"261 69 CURVE SMOOTH",
"271 69 OFFCURVE",
"280 73 OFFCURVE",
"287 80 CURVE SMOOTH",
"294 87 OFFCURVE",
"297 95 OFFCURVE",
"297 105 CURVE SMOOTH",
"297 115 OFFCURVE",
"294 124 OFFCURVE",
"287 131 CURVE SMOOTH",
"280 138 OFFCURVE",
"271 141 OFFCURVE",
"261 141 CURVE SMOOTH",
"251 141 OFFCURVE",
"243 138 OFFCURVE",
"236 131 CURVE SMOOTH",
"229 124 OFFCURVE",
"225 115 OFFCURVE",
"225 105 CURVE SMOOTH",
"225 95 OFFCURVE",
"229 87 OFFCURVE",
"236 80 CURVE SMOOTH"
);
}
);
width = 348;
}
);
unicode = F13E;
},
{
glyphname = uniF13F;
layers = (
{
layerId = "EBF4EA88-05C0-40D0-B291-B170F4B137C3";
name = Regular;
paths = (
{
closed = 1;
nodes = (
"348 55 LINE SMOOTH",
"348 45 OFFCURVE",
"344 36 OFFCURVE",
"337 29 CURVE SMOOTH",
"330 22 OFFCURVE",
"321 18 OFFCURVE",
"311 18 CURVE SMOOTH",
"37 18 LINE SMOOTH",
"27 18 OFFCURVE",
"18 22 OFFCURVE",
"11 29 CURVE SMOOTH",
"4 36 OFFCURVE",
"0 45 OFFCURVE",
"0 55 CURVE SMOOTH",
"0 329 LINE SMOOTH",
"0 339 OFFCURVE",
"4 348 OFFCURVE",
"11 355 CURVE SMOOTH",
"18 362 OFFCURVE",
"27 366 OFFCURVE",
"37 366 CURVE SMOOTH",
"311 366 LINE",
"321 365 OFFCURVE",
"330 362 OFFCURVE",
"337 355 CURVE SMOOTH",
"344 348 OFFCURVE",
"348 339 OFFCURVE",
"348 329 CURVE SMOOTH"
);
},
{
closed = 1;
nodes = (
"69 247 OFFCURVE",
"77 243 OFFCURVE",
"87 243 CURVE SMOOTH",
"97 243 OFFCURVE",
"106 247 OFFCURVE",
"113 254 CURVE SMOOTH",
"120 261 OFFCURVE",
"123 269 OFFCURVE",
"123 279 CURVE SMOOTH",
"123 289 OFFCURVE",
"120 298 OFFCURVE",
"113 305 CURVE SMOOTH",
"106 312 OFFCURVE",
"97 315 OFFCURVE",
"87 315 CURVE SMOOTH",
"77 315 OFFCURVE",
"69 312 OFFCURVE",
"62 305 CURVE SMOOTH",
"55 298 OFFCURVE",
"51 289 OFFCURVE",
"51 279 CURVE SMOOTH",
"51 269 OFFCURVE",
"55 261 OFFCURVE",
"62 254 CURVE SMOOTH"
);
},
{
closed = 1;
nodes = (
"243 73 OFFCURVE",
"251 69 OFFCURVE",
"261 69 CURVE SMOOTH",
"271 69 OFFCURVE",
"280 73 OFFCURVE",
"287 80 CURVE SMOOTH",
"294 87 OFFCURVE",
"297 95 OFFCURVE",
"297 105 CURVE SMOOTH",
"297 115 OFFCURVE",
"294 124 OFFCURVE",
"287 131 CURVE SMOOTH",
"280 138 OFFCURVE",
"271 141 OFFCURVE",
"261 141 CURVE SMOOTH",
"251 141 OFFCURVE",
"243 138 OFFCURVE",
"236 131 CURVE SMOOTH",
"229 124 OFFCURVE",
"225 115 OFFCURVE",
"225 105 CURVE SMOOTH",
"225 95 OFFCURVE",
"229 87 OFFCURVE",
"236 80 CURVE SMOOTH"
);
}
);
width = 348;
}
);
unicode = F13F;
},
{
glyphname = uniF140;
layers = (
{
layerId = "EBF4EA88-05C0-40D0-B291-B170F4B137C3";
name = Regular;
paths = (
{
closed = 1;
nodes = (
"333 151 LINE SMOOTH",
"333 142 OFFCURVE",
"329 138 OFFCURVE",
"321 138 CURVE SMOOTH",
"250 138 LINE",
"250 80 LINE",
"250 79 LINE",
"250 62 LINE SMOOTH",
"250 54 OFFCURVE",
"247 47 OFFCURVE",
"242 42 CURVE SMOOTH",
"236 36 OFFCURVE",
"229 33 OFFCURVE",
"221 33 CURVE SMOOTH",
"209 33 OFFCURVE",
"200 38 OFFCURVE",
"195 48 CURVE",
"145 134 LINE",
"145 134 LINE",
"145 135 LINE",
"142 138 LINE",
"91 138 LINE",
"90 138 LINE SMOOTH",
"81 138 OFFCURVE",
"77 142 OFFCURVE",
"77 151 CURVE",
"77 151 LINE",
"77 295 LINE",
"77 338 LINE",
"77 339 LINE",
"77 339 LINE",
"77 347 OFFCURVE",
"81 351 OFFCURVE",
"90 351 CURVE SMOOTH",
"91 351 LINE",
"276 351 LINE SMOOTH",
"279 351 OFFCURVE",
"280 351 OFFCURVE",
"281 350 CURVE SMOOTH",
"331 300 LINE SMOOTH",
"332 299 OFFCURVE",
"333 297 OFFCURVE",
"333 295 CURVE SMOOTH"
);
},
{
closed = 1;
nodes = (
"51 178 LINE",
"51 176 LINE SMOOTH",
"51 167 OFFCURVE",
"47 163 OFFCURVE",
"38 163 CURVE SMOOTH",
"38 163 LINE",
"38 163 LINE",
"13 163 LINE SMOOTH",
"6 163 OFFCURVE",
"1 167 OFFCURVE",
"0 175 CURVE",
"0 316 LINE SMOOTH",
"0 324 OFFCURVE",
"4 328 OFFCURVE",
"13 328 CURVE SMOOTH",
"37 328 LINE",
"38 329 LINE",
"47 329 OFFCURVE",
"51 325 OFFCURVE",
"51 316 CURVE SMOOTH"
);
}
);
width = 333;
}
);
unicode = F140;
},
{
glyphname = uniF141;
layers = (
{
layerId = "EBF4EA88-05C0-40D0-B291-B170F4B137C3";
name = Regular;
paths = (
{
closed = 1;
nodes = (
"447 90 LINE",
"447 90 LINE",
"447 85 OFFCURVE",
"445 80 OFFCURVE",
"441 76 CURVE SMOOTH",
"437 72 OFFCURVE",
"432 70 OFFCURVE",
"427 70 CURVE SMOOTH",
"427 70 LINE",
"20 70 LINE SMOOTH",
"15 70 OFFCURVE",
"10 72 OFFCURVE",
"6 76 CURVE SMOOTH",
"2 80 OFFCURVE",
"0 85 OFFCURVE",
"0 90 CURVE",
"0 90 LINE",
"0 294 LINE SMOOTH",
"0 299 OFFCURVE",
"2 304 OFFCURVE",
"6 308 CURVE SMOOTH",
"10 312 OFFCURVE",
"15 314 OFFCURVE",
"20 314 CURVE SMOOTH",
"427 314 LINE",
"427 314 LINE",
"432 314 OFFCURVE",
"437 312 OFFCURVE",
"441 308 CURVE SMOOTH",
"445 304 OFFCURVE",
"447 299 OFFCURVE",
"447 294 CURVE SMOOTH"
);
},
{
closed = 1;
nodes = (
"371 266 LINE",
"371 266 LINE",
"371 263 OFFCURVE",
"372 262 OFFCURVE",
"375 262 CURVE",
"375 262 LINE",
"396 262 LINE",
"396 241 LINE SMOOTH",
"396 238 OFFCURVE",
"397 237 OFFCURVE",
"400 237 CURVE SMOOTH",
"417 237 LINE",
"418 237 LINE SMOOTH",
"421 237 OFFCURVE",
"422 238 OFFCURVE",
"422 241 CURVE SMOOTH",
"422 284 LINE SMOOTH",
"422 287 OFFCURVE",
"421 288 OFFCURVE",
"418 288 CURVE SMOOTH",
"417 288 LINE",
"375 288 LINE",
"375 288 LINE SMOOTH",
"372 288 OFFCURVE",
"371 287 OFFCURVE",
"371 284 CURVE SMOOTH"
);
},
{
closed = 1;
nodes = (
"77 118 LINE",
"77 118 LINE",
"77 121 OFFCURVE",
"76 122 OFFCURVE",
"73 122 CURVE SMOOTH",
"72 122 LINE",
"51 122 LINE",
"51 143 LINE SMOOTH",
"51 146 OFFCURVE",
"50 147 OFFCURVE",
"47 147 CURVE SMOOTH",
"30 147 LINE",
"30 147 LINE SMOOTH",
"27 147 OFFCURVE",
"26 146 OFFCURVE",
"26 143 CURVE SMOOTH",
"26 100 LINE SMOOTH",
"26 97 OFFCURVE",
"27 96 OFFCURVE",
"30 96 CURVE",
"30 96 LINE",
"72 96 LINE",
"73 96 LINE SMOOTH",
"76 96 OFFCURVE",
"77 97 OFFCURVE",
"77 100 CURVE SMOOTH"
);
},
{
closed = 1;
nodes = (
"77 284 LINE",
"77 284 LINE",
"77 287 OFFCURVE",
"76 288 OFFCURVE",
"73 288 CURVE SMOOTH",
"30 288 LINE SMOOTH",
"27 288 OFFCURVE",
"26 287 OFFCURVE",
"26 284 CURVE",
"26 284 LINE",
"26 241 LINE",
"26 241 LINE",
"26 238 OFFCURVE",
"27 237 OFFCURVE",
"30 237 CURVE SMOOTH",
"47 237 LINE",
"47 237 LINE",
"50 237 OFFCURVE",
"51 238 OFFCURVE",
"51 241 CURVE",
"51 241 LINE",
"51 262 LINE",
"73 262 LINE SMOOTH",
"76 262 OFFCURVE",
"77 264 OFFCURVE",
"77 267 CURVE SMOOTH"
);
},
{
closed = 1;
nodes = (
"175 105 OFFCURVE",
"197 96 OFFCURVE",
"224 96 CURVE SMOOTH",
"251 96 OFFCURVE",
"273 105 OFFCURVE",
"292 124 CURVE SMOOTH",
"311 143 OFFCURVE",
"320 165 OFFCURVE",
"320 192 CURVE SMOOTH",
"320 219 OFFCURVE",
"311 241 OFFCURVE",
"292 260 CURVE SMOOTH",
"273 279 OFFCURVE",
"251 288 OFFCURVE",
"224 288 CURVE SMOOTH",
"197 288 OFFCURVE",
"175 279 OFFCURVE",
"156 260 CURVE SMOOTH",
"137 241 OFFCURVE",
"128 219 OFFCURVE",
"128 192 CURVE SMOOTH",
"128 165 OFFCURVE",
"137 143 OFFCURVE",
"156 124 CURVE SMOOTH"
);
},
{
closed = 1;
nodes = (
"422 143 LINE",
"422 143 LINE",
"422 146 OFFCURVE",
"421 147 OFFCURVE",
"418 147 CURVE SMOOTH",
"400 147 LINE SMOOTH",
"397 147 OFFCURVE",
"396 146 OFFCURVE",
"396 143 CURVE",
"396 143 LINE",
"396 122 LINE",
"375 122 LINE SMOOTH",
"372 122 OFFCURVE",
"371 120 OFFCURVE",
"371 117 CURVE SMOOTH",
"371 100 LINE",
"371 100 LINE",
"371 97 OFFCURVE",
"372 96 OFFCURVE",
"375 96 CURVE SMOOTH",
"418 96 LINE SMOOTH",
"421 96 OFFCURVE",
"422 97 OFFCURVE",
"422 100 CURVE",
"422 100 LINE"
);
},
{
closed = 1;
nodes = (
"294 176 OFFCURVE",
"290 163 OFFCURVE",
"282 152 CURVE",
"282 156 OFFCURVE",
"281 159 OFFCURVE",
"278 160 CURVE",
"250 173 LINE",
"238 179 LINE",
"243 182 OFFCURVE",
"247 186 OFFCURVE",
"250 193 CURVE SMOOTH",
"252 198 OFFCURVE",
"253 203 OFFCURVE",
"253 209 CURVE SMOOTH",
"253 213 OFFCURVE",
"253 216 OFFCURVE",
"252 218 CURVE",
"247 235 OFFCURVE",
"238 243 OFFCURVE",
"224 243 CURVE SMOOTH",
"209 243 OFFCURVE",
"200 235 OFFCURVE",
"195 219 CURVE",
"194 217 OFFCURVE",
"194 214 OFFCURVE",
"194 209 CURVE SMOOTH",
"194 204 OFFCURVE",
"195 199 OFFCURVE",
"198 192 CURVE SMOOTH",
"201 185 OFFCURVE",
"205 181 OFFCURVE",
"210 178 CURVE",
"199 173 LINE",
"170 160 LINE",
"167 159 OFFCURVE",
"166 157 OFFCURVE",
"166 152 CURVE",
"157 164 OFFCURVE",
"153 177 OFFCURVE",
"153 192 CURVE SMOOTH",
"153 211 OFFCURVE",
"160 228 OFFCURVE",
"174 242 CURVE SMOOTH",
"188 256 OFFCURVE",
"205 263 OFFCURVE",
"224 263 CURVE SMOOTH",
"243 263 OFFCURVE",
"260 256 OFFCURVE",
"274 242 CURVE",
"287 228 OFFCURVE",
"294 211 OFFCURVE",
"294 192 CURVE SMOOTH"
);
}
);
width = 447;
}
);
unicode = F141;
},
{
glyphname = uniF142;
layers = (
{
layerId = "EBF4EA88-05C0-40D0-B291-B170F4B137C3";
name = Regular;
paths = (
{
closed = 1;
nodes = (
"126 219 LINE",
"142 215 OFFCURVE",
"155 211 OFFCURVE",
"166 206 CURVE",
"176 201 OFFCURVE",
"186 194 OFFCURVE",
"195 183 CURVE SMOOTH",
"204 172 OFFCURVE",
"209 158 OFFCURVE",
"209 142 CURVE SMOOTH",
"209 121 OFFCURVE",
"202 103 OFFCURVE",
"188 89 CURVE SMOOTH",
"173 74 OFFCURVE",
"153 66 OFFCURVE",
"126 63 CURVE",
"126 35 LINE SMOOTH",
"126 31 OFFCURVE",
"124 29 OFFCURVE",
"120 29 CURVE SMOOTH",
"97 29 LINE SMOOTH",
"93 29 OFFCURVE",
"91 31 OFFCURVE",
"91 35 CURVE SMOOTH",
"91 63 LINE",
"55 66 OFFCURVE",
"25 79 OFFCURVE",
"2 102 CURVE SMOOTH",
"1 103 OFFCURVE",
"0 105 OFFCURVE",
"0 107 CURVE SMOOTH",
"0 108 OFFCURVE",
"0 109 OFFCURVE",
"1 110 CURVE",
"23 142 LINE",
"24 144 OFFCURVE",
"25 145 OFFCURVE",
"28 145 CURVE SMOOTH",
"29 145 OFFCURVE",
"30 145 OFFCURVE",
"31 144 CURVE SMOOTH",
"32 143 LINE SMOOTH",
"50 125 OFFCURVE",
"70 114 OFFCURVE",
"91 111 CURVE",
"91 169 LINE",
"66 174 OFFCURVE",
"47 183 OFFCURVE",
"32 194 CURVE SMOOTH",
"17 205 OFFCURVE",
"10 222 OFFCURVE",
"10 245 CURVE SMOOTH",
"10 264 OFFCURVE",
"17 281 OFFCURVE",
"32 295 CURVE SMOOTH",
"47 309 OFFCURVE",
"66 317 OFFCURVE",
"91 320 CURVE",
"91 349 LINE SMOOTH",
"91 353 OFFCURVE",
"93 355 OFFCURVE",
"97 355 CURVE SMOOTH",
"120 355 LINE SMOOTH",
"124 355 OFFCURVE",
"126 353 OFFCURVE",
"126 349 CURVE SMOOTH",
"126 319 LINE",
"157 316 OFFCURVE",
"183 305 OFFCURVE",
"203 286 CURVE SMOOTH",
"204 285 OFFCURVE",
"205 283 OFFCURVE",
"205 282 CURVE SMOOTH",
"205 281 OFFCURVE",
"204 279 OFFCURVE",
"203 278 CURVE",
"182 247 LINE",
"181 247 LINE",
"180 246 OFFCURVE",
"178 245 OFFCURVE",
"177 245 CURVE SMOOTH",
"175 245 OFFCURVE",
"174 245 OFFCURVE",
"173 246 CURVE",
"159 258 OFFCURVE",
"143 266 OFFCURVE",
"126 270 CURVE"
);
},
{
closed = 1;
nodes = (
"91 273 LINE",
"74 271 OFFCURVE",
"65 263 OFFCURVE",
"65 249 CURVE SMOOTH",
"65 240 OFFCURVE",
"74 233 OFFCURVE",
"91 227 CURVE"
);
},
{
closed = 1;
nodes = (
"126 111 LINE",
"145 115 OFFCURVE",
"155 124 OFFCURVE",
"155 137 CURVE SMOOTH",
"155 147 OFFCURVE",
"145 155 OFFCURVE",
"126 161 CURVE"
);
}
);
width = 209;
}
);
unicode = F142;
},
{
glyphname = uniF143;
layers = (
{
layerId = "EBF4EA88-05C0-40D0-B291-B170F4B137C3";
name = Regular;
paths = (
{
closed = 1;
nodes = (
"379 194 LINE SMOOTH",
"386 194 OFFCURVE",
"392 192 OFFCURVE",
"397 187 CURVE SMOOTH",
"402 182 OFFCURVE",
"404 176 OFFCURVE",
"404 169 CURVE SMOOTH",
"404 25 LINE SMOOTH",
"404 18 OFFCURVE",
"402 12 OFFCURVE",
"397 7 CURVE SMOOTH",
"392 2 OFFCURVE",
"386 0 OFFCURVE",
"379 0 CURVE SMOOTH",
"25 0 LINE SMOOTH",
"18 0 OFFCURVE",
"12 2 OFFCURVE",
"7 7 CURVE SMOOTH",
"2 12 OFFCURVE",
"0 18 OFFCURVE",
"0 25 CURVE SMOOTH",
"0 169 LINE SMOOTH",
"0 176 OFFCURVE",
"2 182 OFFCURVE",
"7 187 CURVE SMOOTH",
"12 192 OFFCURVE",
"18 194 OFFCURVE",
"25 194 CURVE SMOOTH",
"115 194 LINE SMOOTH",
"128 194 OFFCURVE",
"136 188 OFFCURVE",
"139 177 CURVE",
"144 163 OFFCURVE",
"152 152 OFFCURVE",
"163 144 CURVE",
"174 135 OFFCURVE",
"187 131 OFFCURVE",
"202 131 CURVE SMOOTH",
"217 131 OFFCURVE",
"230 135 OFFCURVE",
"241 144 CURVE",
"252 152 OFFCURVE",
"260 163 OFFCURVE",
"265 177 CURVE",
"268 188 OFFCURVE",
"276 194 OFFCURVE",
"289 194 CURVE SMOOTH"
);
},
{
closed = 1;
nodes = (
"127 279 LINE",
"126 282 OFFCURVE",
"125 285 OFFCURVE",
"126 286 CURVE",
"127 288 OFFCURVE",
"129 289 OFFCURVE",
"132 289 CURVE SMOOTH",
"165 289 LINE",
"165 377 LINE SMOOTH",
"165 382 OFFCURVE",
"167 384 OFFCURVE",
"172 384 CURVE SMOOTH",
"232 384 LINE SMOOTH",
"237 384 OFFCURVE",
"239 382 OFFCURVE",
"239 377 CURVE SMOOTH",
"239 289 LINE",
"272 289 LINE SMOOTH",
"275 289 OFFCURVE",
"277 288 OFFCURVE",
"278 286 CURVE",
"279 285 OFFCURVE",
"278 282 OFFCURVE",
"277 279 CURVE",
"208 181 LINE",
"207 179 OFFCURVE",
"205 178 OFFCURVE",
"202 178 CURVE SMOOTH",
"199 178 OFFCURVE",
"198 179 OFFCURVE",
"197 181 CURVE"
);
}
);
width = 404;
}
);
unicode = F143;
},
{
glyphname = uniF144;
layers = (
{
layerId = "EBF4EA88-05C0-40D0-B291-B170F4B137C3";
name = Regular;
paths = (
{
closed = 1;
nodes = (
"13 141 LINE SMOOTH",
"4 141 OFFCURVE",
"0 145 OFFCURVE",
"0 154 CURVE SMOOTH",
"0 157 OFFCURVE",
"1 160 OFFCURVE",
"4 163 CURVE SMOOTH",
"180 340 LINE",
"182 343 OFFCURVE",
"186 345 OFFCURVE",
"191 345 CURVE SMOOTH",
"195 345 OFFCURVE",
"198 343 OFFCURVE",
"200 340 CURVE",
"378 163 LINE",
"381 161 OFFCURVE",
"382 158 OFFCURVE",
"382 154 CURVE SMOOTH",
"382 145 OFFCURVE",
"378 141 OFFCURVE",
"370 141 CURVE SMOOTH"
);
},
{
closed = 1;
nodes = (
"382 52 LINE SMOOTH",
"382 43 OFFCURVE",
"378 39 OFFCURVE",
"369 39 CURVE SMOOTH",
"12 39 LINE",
"4 40 OFFCURVE",
"0 45 OFFCURVE",
"0 52 CURVE SMOOTH",
"0 53 LINE",
"0 102 LINE SMOOTH",
"0 109 OFFCURVE",
"4 114 OFFCURVE",
"12 115 CURVE",
"369 116 LINE SMOOTH",
"378 116 OFFCURVE",
"382 112 OFFCURVE",
"382 103 CURVE",
"382 103 LINE"
);
}
);
width = 382;
}
);
unicode = F144;
},
{
glyphname = uniF145;
layers = (
{
layerId = "EBF4EA88-05C0-40D0-B291-B170F4B137C3";
name = Regular;
paths = (
{
closed = 1;
nodes = (
"398 393 OFFCURVE",
"402 389 OFFCURVE",
"402 380 CURVE SMOOTH",
"402 4 LINE SMOOTH",
"402 -5 OFFCURVE",
"398 -9 OFFCURVE",
"389 -9 CURVE SMOOTH",
"389 -9 LINE",
"13 -9 LINE",
"13 -9 LINE",
"13 -9 LINE SMOOTH",
"4 -9 OFFCURVE",
"0 -5 OFFCURVE",
"0 4 CURVE SMOOTH",
"0 380 LINE SMOOTH",
"0 389 OFFCURVE",
"4 393 OFFCURVE",
"13 393 CURVE SMOOTH",
"389 393 LINE SMOOTH"
);
},
{
closed = 1;
nodes = (
"51 341 LINE",
"51 43 LINE",
"350 43 LINE",
"350 341 LINE"
);
},
{
closed = 1;
nodes = (
"490 120 LINE SMOOTH",
"491 120 OFFCURVE",
"492 120 OFFCURVE",
"493 119 CURVE SMOOTH",
"494 118 OFFCURVE",
"493 117 OFFCURVE",
"492 116 CURVE",
"461 72 LINE",
"459 70 LINE",
"458 70 OFFCURVE",
"457 71 OFFCURVE",
"456 72 CURVE",
"425 116 LINE",
"424 117 OFFCURVE",
"423 118 OFFCURVE",
"424 119 CURVE SMOOTH",
"425 120 OFFCURVE",
"426 120 OFFCURVE",
"427 120 CURVE SMOOTH",
"442 120 LINE",
"442 160 LINE SMOOTH",
"442 162 OFFCURVE",
"443 163 OFFCURVE",
"445 163 CURVE SMOOTH",
"472 163 LINE SMOOTH",
"474 163 OFFCURVE",
"475 162 OFFCURVE",
"475 160 CURVE SMOOTH",
"475 120 LINE"
);
},
{
closed = 1;
nodes = (
"427 264 LINE SMOOTH",
"426 264 OFFCURVE",
"425 264 OFFCURVE",
"424 265 CURVE SMOOTH",
"423 266 OFFCURVE",
"424 267 OFFCURVE",
"425 268 CURVE",
"456 312 LINE",
"457 313 OFFCURVE",
"458 314 OFFCURVE",
"459 314 CURVE",
"461 312 LINE",
"493 268 LINE",
"494 267 OFFCURVE",
"494 266 OFFCURVE",
"493 265 CURVE SMOOTH",
"492 264 OFFCURVE",
"491 264 OFFCURVE",
"490 264 CURVE SMOOTH",
"475 264 LINE",
"475 224 LINE SMOOTH",
"475 222 OFFCURVE",
"474 221 OFFCURVE",
"472 221 CURVE SMOOTH",
"445 221 LINE SMOOTH",
"443 221 OFFCURVE",
"442 222 OFFCURVE",
"442 224 CURVE SMOOTH",
"442 264 LINE"
);
},
{
closed = 1;
nodes = (
"109 301 OFFCURVE",
"117 310 OFFCURVE",
"134 310 CURVE SMOOTH",
"151 310 OFFCURVE",
"159 301 OFFCURVE",
"159 284 CURVE SMOOTH",
"159 267 OFFCURVE",
"151 259 OFFCURVE",
"134 259 CURVE SMOOTH",
"117 259 OFFCURVE",
"109 267 OFFCURVE",
"109 284 CURVE SMOOTH"
);
},
{
closed = 1;
nodes = (
"182 252 LINE",
"189 251 OFFCURVE",
"193 247 OFFCURVE",
"193 240 CURVE SMOOTH",
"193 168 LINE SMOOTH",
"193 165 OFFCURVE",
"192 163 OFFCURVE",
"190 161 CURVE SMOOTH",
"185 156 OFFCURVE",
"179 156 OFFCURVE",
"174 161 CURVE SMOOTH",
"172 163 OFFCURVE",
"171 165 OFFCURVE",
"171 168 CURVE SMOOTH",
"171 218 LINE SMOOTH",
"171 221 OFFCURVE",
"170 222 OFFCURVE",
"168 222 CURVE SMOOTH",
"165 222 OFFCURVE",
"164 221 OFFCURVE",
"164 218 CURVE SMOOTH",
"164 186 LINE",
"164 153 LINE",
"164 87 LINE SMOOTH",
"164 78 OFFCURVE",
"160 74 OFFCURVE",
"152 74 CURVE SMOOTH",
"143 74 OFFCURVE",
"139 78 OFFCURVE",
"139 87 CURVE SMOOTH",
"139 153 LINE SMOOTH",
"139 156 OFFCURVE",
"138 157 OFFCURVE",
"136 157 CURVE SMOOTH",
"133 157 OFFCURVE",
"132 156 OFFCURVE",
"132 153 CURVE SMOOTH",
"132 87 LINE SMOOTH",
"132 78 OFFCURVE",
"128 74 OFFCURVE",
"120 74 CURVE SMOOTH",
"111 74 OFFCURVE",
"107 78 OFFCURVE",
"107 87 CURVE SMOOTH",
"107 186 LINE",
"107 218 LINE",
"107 218 LINE",
"107 221 OFFCURVE",
"106 222 OFFCURVE",
"104 222 CURVE SMOOTH",
"102 222 OFFCURVE",
"101 221 OFFCURVE",
"101 218 CURVE",
"101 218 LINE",
"101 168 LINE SMOOTH",
"101 166 OFFCURVE",
"100 164 OFFCURVE",
"97 161 CURVE SMOOTH",
"92 156 OFFCURVE",
"87 156 OFFCURVE",
"82 161 CURVE SMOOTH",
"80 163 OFFCURVE",
"79 165 OFFCURVE",
"79 168 CURVE SMOOTH",
"79 240 LINE SMOOTH",
"79 248 OFFCURVE",
"83 252 OFFCURVE",
"91 252 CURVE SMOOTH"
);
},
{
closed = 1;
nodes = (
"238 301 OFFCURVE",
"247 310 OFFCURVE",
"264 310 CURVE SMOOTH",
"281 310 OFFCURVE",
"289 301 OFFCURVE",
"289 284 CURVE SMOOTH",
"289 267 OFFCURVE",
"281 259 OFFCURVE",
"264 259 CURVE SMOOTH",
"247 259 OFFCURVE",
"238 267 OFFCURVE",
"238 284 CURVE SMOOTH"
);
},
{
closed = 1;
nodes = (
"312 252 LINE",
"319 251 OFFCURVE",
"322 247 OFFCURVE",
"322 240 CURVE SMOOTH",
"322 168 LINE SMOOTH",
"322 165 OFFCURVE",
"321 163 OFFCURVE",
"319 161 CURVE SMOOTH",
"314 156 OFFCURVE",
"309 156 OFFCURVE",
"304 161 CURVE SMOOTH",
"302 163 OFFCURVE",
"301 165 OFFCURVE",
"301 168 CURVE SMOOTH",
"301 218 LINE SMOOTH",
"301 221 OFFCURVE",
"300 222 OFFCURVE",
"298 222 CURVE SMOOTH",
"295 222 OFFCURVE",
"294 221 OFFCURVE",
"294 218 CURVE SMOOTH",
"294 186 LINE",
"294 153 LINE",
"294 87 LINE SMOOTH",
"294 78 OFFCURVE",
"290 74 OFFCURVE",
"282 74 CURVE SMOOTH",
"273 74 OFFCURVE",
"269 78 OFFCURVE",
"269 87 CURVE SMOOTH",
"269 153 LINE SMOOTH",
"269 156 OFFCURVE",
"268 157 OFFCURVE",
"266 157 CURVE SMOOTH",
"263 157 OFFCURVE",
"262 156 OFFCURVE",
"262 153 CURVE SMOOTH",
"262 87 LINE SMOOTH",
"262 78 OFFCURVE",
"258 74 OFFCURVE",
"250 74 CURVE SMOOTH",
"241 74 OFFCURVE",
"237 78 OFFCURVE",
"237 87 CURVE SMOOTH",
"237 186 LINE",
"237 218 LINE",
"237 218 LINE",
"237 221 OFFCURVE",
"236 222 OFFCURVE",
"234 222 CURVE SMOOTH",
"231 222 OFFCURVE",
"230 221 OFFCURVE",
"230 218 CURVE",
"230 218 LINE",
"230 168 LINE SMOOTH",
"230 165 OFFCURVE",
"229 163 OFFCURVE",
"227 161 CURVE SMOOTH",
"222 156 OFFCURVE",
"217 156 OFFCURVE",
"212 161 CURVE SMOOTH",
"210 163 OFFCURVE",
"209 165 OFFCURVE",
"209 168 CURVE SMOOTH",
"209 240 LINE SMOOTH",
"209 248 OFFCURVE",
"213 252 OFFCURVE",
"221 252 CURVE SMOOTH"
);
}
);
width = 493;
}
);
unicode = F145;
},
{
glyphname = uniF146;
layers = (
{
layerId = "EBF4EA88-05C0-40D0-B291-B170F4B137C3";
name = Regular;
paths = (
{
closed = 1;
nodes = (
"280 125 LINE",
"283 123 OFFCURVE",
"283 120 OFFCURVE",
"282 117 CURVE",
"282 117 LINE",
"282 117 LINE",
"257 72 OFFCURVE",
"219 50 OFFCURVE",
"167 50 CURVE SMOOTH",
"133 50 OFFCURVE",
"104 59 OFFCURVE",
"79 77 CURVE SMOOTH",
"54 94 OFFCURVE",
"36 118 OFFCURVE",
"27 148 CURVE",
"6 148 LINE",
"6 147 LINE",
"2 147 OFFCURVE",
"0 149 OFFCURVE",
"0 153 CURVE SMOOTH",
"0 174 LINE SMOOTH",
"0 178 OFFCURVE",
"2 180 OFFCURVE",
"6 180 CURVE SMOOTH",
"21 180 LINE",
"21 192 LINE",
"21 205 LINE",
"6 205 LINE SMOOTH",
"2 205 OFFCURVE",
"0 207 OFFCURVE",
"0 211 CURVE SMOOTH",
"0 232 LINE SMOOTH",
"0 236 OFFCURVE",
"2 238 OFFCURVE",
"6 238 CURVE SMOOTH",
"27 238 LINE",
"36 267 OFFCURVE",
"54 291 OFFCURVE",
"79 308 CURVE SMOOTH",
"104 325 OFFCURVE",
"134 334 OFFCURVE",
"167 334 CURVE SMOOTH",
"219 334 OFFCURVE",
"257 312 OFFCURVE",
"282 267 CURVE",
"282 267 LINE",
"282 267 LINE",
"283 264 OFFCURVE",
"283 261 OFFCURVE",
"280 259 CURVE",
"279 259 LINE",
"239 240 LINE",
"236 239 OFFCURVE",
"233 239 OFFCURVE",
"232 242 CURVE",
"217 269 OFFCURVE",
"196 282 OFFCURVE",
"167 282 CURVE SMOOTH",
"132 282 OFFCURVE",
"107 267 OFFCURVE",
"92 238 CURVE",
"192 238 LINE SMOOTH",
"196 238 OFFCURVE",
"198 236 OFFCURVE",
"198 232 CURVE SMOOTH",
"198 211 LINE SMOOTH",
"198 207 OFFCURVE",
"196 205 OFFCURVE",
"192 205 CURVE SMOOTH",
"192 205 LINE",
"192 205 LINE",
"82 205 LINE",
"81 202 OFFCURVE",
"81 197 OFFCURVE",
"81 192 CURVE SMOOTH",
"81 180 LINE",
"192 180 LINE SMOOTH",
"196 180 OFFCURVE",
"198 178 OFFCURVE",
"198 174 CURVE SMOOTH",
"198 153 LINE SMOOTH",
"198 149 OFFCURVE",
"196 147 OFFCURVE",
"192 147 CURVE SMOOTH",
"91 147 LINE",
"106 117 OFFCURVE",
"132 102 OFFCURVE",
"167 102 CURVE SMOOTH",
"196 102 OFFCURVE",
"217 115 OFFCURVE",
"231 141 CURVE",
"232 142 LINE",
"233 145 OFFCURVE",
"236 145 OFFCURVE",
"239 144 CURVE",
"279 125 LINE"
);
}
);
width = 283;
}
);
unicode = F146;
},
{
glyphname = uniF147;
layers = (
{
layerId = "EBF4EA88-05C0-40D0-B291-B170F4B137C3";
name = Regular;
paths = (
{
closed = 1;
nodes = (
"359 204 LINE",
"363 202 OFFCURVE",
"365 198 OFFCURVE",
"365 193 CURVE SMOOTH",
"365 189 OFFCURVE",
"364 186 OFFCURVE",
"361 183 CURVE",
"361 183 LINE",
"360 182 LINE",
"281 103 LINE",
"255 74 OFFCURVE",
"222 59 OFFCURVE",
"182 59 CURVE SMOOTH",
"148 59 OFFCURVE",
"118 71 OFFCURVE",
"92 95 CURVE",
"92 94 LINE",
"5 181 LINE SMOOTH",
"2 184 OFFCURVE",
"0 188 OFFCURVE",
"0 192 CURVE SMOOTH",
"0 196 OFFCURVE",
"1 199 OFFCURVE",
"3 201 CURVE SMOOTH",
"83 280 LINE",
"110 310 OFFCURVE",
"143 325 OFFCURVE",
"182 325 CURVE SMOOTH",
"217 325 OFFCURVE",
"247 313 OFFCURVE",
"273 289 CURVE",
"273 290 LINE"
);
},
{
closed = 1;
nodes = (
"135 111 OFFCURVE",
"157 102 OFFCURVE",
"182 102 CURVE SMOOTH",
"207 102 OFFCURVE",
"229 111 OFFCURVE",
"246 128 CURVE SMOOTH",
"263 145 OFFCURVE",
"272 167 OFFCURVE",
"272 192 CURVE SMOOTH",
"272 217 OFFCURVE",
"263 239 OFFCURVE",
"246 256 CURVE SMOOTH",
"229 273 OFFCURVE",
"207 282 OFFCURVE",
"182 282 CURVE SMOOTH",
"157 282 OFFCURVE",
"135 273 OFFCURVE",
"118 256 CURVE SMOOTH",
"101 239 OFFCURVE",
"92 217 OFFCURVE",
"92 192 CURVE SMOOTH",
"92 167 OFFCURVE",
"101 145 OFFCURVE",
"118 128 CURVE SMOOTH"
);
},
{
closed = 1;
nodes = (
"139 221 OFFCURVE",
"153 235 OFFCURVE",
"182 235 CURVE SMOOTH",
"211 235 OFFCURVE",
"226 221 OFFCURVE",
"226 192 CURVE SMOOTH",
"226 163 OFFCURVE",
"211 148 OFFCURVE",
"182 148 CURVE SMOOTH",
"153 148 OFFCURVE",
"139 163 OFFCURVE",
"139 192 CURVE SMOOTH"
);
}
);
width = 365;
}
);
unicode = F147;
},
{
glyphname = uniF148;
layers = (
{
layerId = "EBF4EA88-05C0-40D0-B291-B170F4B137C3";
name = Regular;
paths = (
{
closed = 1;
nodes = (
"372 189 OFFCURVE",
"371 187 OFFCURVE",
"368 185 CURVE",
"368 184 LINE",
"176 73 LINE",
"175 72 OFFCURVE",
"172 71 OFFCURVE",
"169 71 CURVE SMOOTH",
"164 71 OFFCURVE",
"161 74 OFFCURVE",
"161 79 CURVE SMOOTH",
"161 157 LINE",
"15 73 LINE",
"14 72 OFFCURVE",
"12 71 OFFCURVE",
"9 71 CURVE SMOOTH",
"3 71 OFFCURVE",
"0 74 OFFCURVE",
"0 79 CURVE SMOOTH",
"0 305 LINE SMOOTH",
"0 310 OFFCURVE",
"3 313 OFFCURVE",
"9 313 CURVE SMOOTH",
"12 313 OFFCURVE",
"14 312 OFFCURVE",
"15 311 CURVE",
"161 227 LINE",
"161 305 LINE SMOOTH",
"161 310 OFFCURVE",
"164 313 OFFCURVE",
"169 313 CURVE SMOOTH",
"172 313 OFFCURVE",
"175 312 OFFCURVE",
"176 311 CURVE",
"367 200 LINE",
"370 199 OFFCURVE",
"372 196 OFFCURVE",
"372 192 CURVE SMOOTH"
);
}
);
width = 372;
}
);
unicode = F148;
},
{
glyphname = uniF149;
layers = (
{
layerId = "EBF4EA88-05C0-40D0-B291-B170F4B137C3";
name = Regular;
paths = (
{
closed = 1;
nodes = (
"210 144 OFFCURVE",
"186 131 OFFCURVE",
"159 126 CURVE",
"159 85 LINE",
"187 85 LINE SMOOTH",
"190 85 OFFCURVE",
"192 84 OFFCURVE",
"193 83 CURVE SMOOTH",
"194 82 OFFCURVE",
"195 80 OFFCURVE",
"195 77 CURVE SMOOTH",
"195 42 LINE SMOOTH",
"195 37 OFFCURVE",
"192 34 OFFCURVE",
"187 34 CURVE SMOOTH",
"159 34 LINE",
"159 0 LINE SMOOTH",
"159 -5 OFFCURVE",
"156 -8 OFFCURVE",
"151 -8 CURVE SMOOTH",
"116 -8 LINE",
"116 -8 LINE",
"114 -8 LINE",
"110 -7 OFFCURVE",
"108 -4 OFFCURVE",
"108 0 CURVE SMOOTH",
"108 34 LINE",
"81 34 LINE SMOOTH",
"76 34 OFFCURVE",
"73 37 OFFCURVE",
"73 42 CURVE SMOOTH",
"73 77 LINE SMOOTH",
"73 80 OFFCURVE",
"74 82 OFFCURVE",
"75 83 CURVE SMOOTH",
"76 84 OFFCURVE",
"78 85 OFFCURVE",
"81 85 CURVE SMOOTH",
"108 85 LINE",
"108 126 LINE",
"81 131 OFFCURVE",
"58 144 OFFCURVE",
"39 163 CURVE SMOOTH",
"13 189 OFFCURVE",
"0 221 OFFCURVE",
"0 258 CURVE SMOOTH",
"0 295 OFFCURVE",
"13 327 OFFCURVE",
"39 353 CURVE SMOOTH",
"65 379 OFFCURVE",
"97 392 OFFCURVE",
"134 392 CURVE SMOOTH",
"171 392 OFFCURVE",
"203 379 OFFCURVE",
"229 353 CURVE SMOOTH",
"255 327 OFFCURVE",
"268 295 OFFCURVE",
"268 258 CURVE SMOOTH",
"268 221 OFFCURVE",
"255 189 OFFCURVE",
"229 163 CURVE SMOOTH"
);
},
{
closed = 1;
nodes = (
"92 183 OFFCURVE",
"111 175 OFFCURVE",
"134 175 CURVE SMOOTH",
"157 175 OFFCURVE",
"176 183 OFFCURVE",
"193 200 CURVE SMOOTH",
"209 216 OFFCURVE",
"217 235 OFFCURVE",
"217 258 CURVE SMOOTH",
"217 281 OFFCURVE",
"209 300 OFFCURVE",
"193 317 CURVE",
"176 333 OFFCURVE",
"157 341 OFFCURVE",
"134 341 CURVE SMOOTH",
"111 341 OFFCURVE",
"92 333 OFFCURVE",
"76 317 CURVE SMOOTH",
"59 300 OFFCURVE",
"51 281 OFFCURVE",
"51 258 CURVE SMOOTH",
"51 235 OFFCURVE",
"59 216 OFFCURVE",
"76 200 CURVE"
);
}
);
width = 268;
}
);
unicode = F149;
},
{
glyphname = uniF14A;
layers = (
{
layerId = "EBF4EA88-05C0-40D0-B291-B170F4B137C3";
name = Regular;
paths = (
{
closed = 1;
nodes = (
"82 303 OFFCURVE",
"68 317 OFFCURVE",
"68 345 CURVE SMOOTH",
"68 373 OFFCURVE",
"82 387 OFFCURVE",
"110 387 CURVE SMOOTH",
"138 387 OFFCURVE",
"152 373 OFFCURVE",
"152 345 CURVE SMOOTH",
"152 317 OFFCURVE",
"138 303 OFFCURVE",
"110 303 CURVE SMOOTH"
);
},
{
closed = 1;
nodes = (
"227 171 LINE",
"227 168 LINE SMOOTH",
"227 165 OFFCURVE",
"226 162 OFFCURVE",
"224 159 CURVE",
"223 156 OFFCURVE",
"221 154 OFFCURVE",
"218 153 CURVE",
"215 151 OFFCURVE",
"212 150 OFFCURVE",
"209 150 CURVE SMOOTH",
"200 150 OFFCURVE",
"195 154 OFFCURVE",
"192 162 CURVE",
"172 238 LINE",
"171 241 OFFCURVE",
"169 243 OFFCURVE",
"166 243 CURVE SMOOTH",
"163 243 OFFCURVE",
"161 241 OFFCURVE",
"161 237 CURVE SMOOTH",
"161 235 LINE",
"193 113 LINE",
"194 112 OFFCURVE",
"194 111 OFFCURVE",
"194 110 CURVE",
"195 109 LINE",
"194 109 LINE",
"195 109 LINE",
"195 102 OFFCURVE",
"192 99 OFFCURVE",
"185 99 CURVE SMOOTH",
"161 99 LINE",
"161 18 LINE SMOOTH",
"161 14 OFFCURVE",
"160 11 OFFCURVE",
"158 8 CURVE SMOOTH",
"156 5 OFFCURVE",
"153 2 OFFCURVE",
"150 0 CURVE SMOOTH",
"147 -2 OFFCURVE",
"144 -3 OFFCURVE",
"140 -3 CURVE SMOOTH",
"135 -3 OFFCURVE",
"130 -1 OFFCURVE",
"125 4 CURVE SMOOTH",
"121 8 OFFCURVE",
"119 13 OFFCURVE",
"119 18 CURVE SMOOTH",
"119 99 LINE",
"107 99 LINE",
"107 18 LINE SMOOTH",
"107 13 OFFCURVE",
"105 8 OFFCURVE",
"101 4 CURVE SMOOTH",
"96 -1 OFFCURVE",
"92 -3 OFFCURVE",
"87 -3 CURVE SMOOTH",
"82 -3 OFFCURVE",
"77 -1 OFFCURVE",
"72 4 CURVE SMOOTH",
"68 8 OFFCURVE",
"66 13 OFFCURVE",
"66 18 CURVE SMOOTH",
"66 99 LINE",
"42 99 LINE SMOOTH",
"35 99 OFFCURVE",
"32 102 OFFCURVE",
"32 109 CURVE",
"32 109 LINE",
"32 110 LINE SMOOTH",
"32 111 OFFCURVE",
"32 112 OFFCURVE",
"33 113 CURVE",
"66 236 LINE",
"66 237 LINE",
"66 237 LINE",
"66 238 LINE",
"65 241 OFFCURVE",
"63 243 OFFCURVE",
"61 243 CURVE SMOOTH",
"58 243 OFFCURVE",
"56 241 OFFCURVE",
"55 238 CURVE",
"55 238 LINE",
"35 162 LINE",
"34 162 LINE",
"31 154 OFFCURVE",
"25 150 OFFCURVE",
"18 150 CURVE SMOOTH",
"13 150 OFFCURVE",
"9 152 OFFCURVE",
"5 156 CURVE SMOOTH",
"2 159 OFFCURVE",
"0 163 OFFCURVE",
"0 168 CURVE SMOOTH",
"0 171 LINE",
"28 276 LINE",
"29 278 LINE",
"32 287 OFFCURVE",
"38 291 OFFCURVE",
"47 291 CURVE",
"47 292 LINE",
"179 292 LINE",
"179 291 LINE",
"189 291 OFFCURVE",
"195 287 OFFCURVE",
"198 278 CURVE",
"199 276 LINE"
);
}
);
width = 227;
}
);
unicode = F14A;
},
{
glyphname = uniF14B;
layers = (
{
layerId = "EBF4EA88-05C0-40D0-B291-B170F4B137C3";
name = Regular;
paths = (
{
closed = 1;
nodes = (
"410 323 OFFCURVE",
"406 315 OFFCURVE",
"399 309 CURVE",
"243 154 LINE",
"243 36 LINE",
"243 34 LINE SMOOTH",
"243 23 OFFCURVE",
"237 17 OFFCURVE",
"226 17 CURVE SMOOTH",
"224 17 OFFCURVE",
"221 18 OFFCURVE",
"217 19 CURVE",
"217 19 LINE",
"216 20 LINE",
"176 43 LINE",
"170 46 OFFCURVE",
"167 51 OFFCURVE",
"167 58 CURVE",
"167 58 LINE",
"167 154 LINE",
"12 308 LINE",
"4 314 OFFCURVE",
"0 323 OFFCURVE",
"0 334 CURVE SMOOTH",
"0 343 OFFCURVE",
"3 351 OFFCURVE",
"10 358 CURVE",
"17 364 OFFCURVE",
"24 367 OFFCURVE",
"33 367 CURVE SMOOTH",
"35 367 LINE",
"378 367 LINE",
"387 366 OFFCURVE",
"395 363 OFFCURVE",
"401 357 CURVE",
"407 350 OFFCURVE",
"410 343 OFFCURVE",
"410 334 CURVE SMOOTH"
);
}
);
width = 410;
}
);
unicode = F14B;
},
{
glyphname = uniF14C;
layers = (
{
layerId = "EBF4EA88-05C0-40D0-B291-B170F4B137C3";
name = Regular;
paths = (
{
closed = 1;
nodes = (
"100 308 LINE",
"100 353 LINE",
"100 354 LINE SMOOTH",
"100 362 OFFCURVE",
"104 366 OFFCURVE",
"113 366 CURVE",
"113 366 LINE",
"298 366 LINE SMOOTH",
"306 366 OFFCURVE",
"310 362 OFFCURVE",
"310 354 CURVE SMOOTH",
"310 307 LINE",
"279 307 LINE",
"279 334 LINE",
"131 334 LINE",
"131 308 LINE"
);
},
{
closed = 1;
nodes = (
"76 18 LINE",
"76 280 LINE",
"335 280 LINE",
"335 18 LINE"
);
},
{
closed = 1;
nodes = (
"128 130 LINE SMOOTH",
"128 129 OFFCURVE",
"128 129 OFFCURVE",
"129 128 CURVE SMOOTH",
"130 127 OFFCURVE",
"131 127 OFFCURVE",
"132 127 CURVE SMOOTH",
"184 127 LINE",
"184 74 LINE SMOOTH",
"184 73 OFFCURVE",
"184 72 OFFCURVE",
"185 71 CURVE SMOOTH",
"186 70 OFFCURVE",
"187 70 OFFCURVE",
"188 70 CURVE SMOOTH",
"225 70 LINE SMOOTH",
"226 70 OFFCURVE",
"226 70 OFFCURVE",
"227 71 CURVE SMOOTH",
"228 72 OFFCURVE",
"229 73 OFFCURVE",
"229 74 CURVE SMOOTH",
"229 127 LINE",
"281 127 LINE SMOOTH",
"282 127 OFFCURVE",
"283 127 OFFCURVE",
"284 128 CURVE SMOOTH",
"285 129 OFFCURVE",
"285 129 OFFCURVE",
"285 130 CURVE SMOOTH",
"285 167 LINE SMOOTH",
"285 170 OFFCURVE",
"284 171 OFFCURVE",
"281 171 CURVE SMOOTH",
"229 171 LINE",
"229 223 LINE SMOOTH",
"229 226 OFFCURVE",
"228 227 OFFCURVE",
"225 227 CURVE SMOOTH",
"188 227 LINE SMOOTH",
"185 227 OFFCURVE",
"184 226 OFFCURVE",
"184 223 CURVE SMOOTH",
"184 171 LINE",
"132 171 LINE SMOOTH",
"129 171 OFFCURVE",
"128 170 OFFCURVE",
"128 167 CURVE SMOOTH"
);
},
{
closed = 1;
nodes = (
"51 280 LINE",
"51 18 LINE",
"20 18 LINE SMOOTH",
"15 18 OFFCURVE",
"10 20 OFFCURVE",
"6 24 CURVE SMOOTH",
"2 28 OFFCURVE",
"0 33 OFFCURVE",
"0 38 CURVE SMOOTH",
"0 39 LINE",
"0 259 LINE SMOOTH",
"0 264 OFFCURVE",
"2 269 OFFCURVE",
"6 274 CURVE",
"10 278 OFFCURVE",
"15 280 OFFCURVE",
"20 280 CURVE SMOOTH"
);
},
{
closed = 1;
nodes = (
"411 38 LINE SMOOTH",
"411 33 OFFCURVE",
"409 28 OFFCURVE",
"405 24 CURVE SMOOTH",
"401 20 OFFCURVE",
"396 18 OFFCURVE",
"391 18 CURVE SMOOTH",
"391 18 LINE",
"360 18 LINE",
"360 280 LINE",
"391 280 LINE SMOOTH",
"396 280 OFFCURVE",
"401 278 OFFCURVE",
"405 274 CURVE SMOOTH",
"409 270 OFFCURVE",
"411 265 OFFCURVE",
"411 260 CURVE SMOOTH"
);
}
);
width = 411;
}
);
unicode = F14C;
},
{
glyphname = uniF14D;
layers = (
{
layerId = "EBF4EA88-05C0-40D0-B291-B170F4B137C3";
name = Regular;
paths = (
{
closed = 1;
nodes = (
"364 325 LINE SMOOTH",
"369 325 OFFCURVE",
"372 322 OFFCURVE",
"372 317 CURVE SMOOTH",
"372 148 LINE SMOOTH",
"372 145 OFFCURVE",
"371 143 OFFCURVE",
"369 142 CURVE",
"346 118 OFFCURVE",
"318 106 OFFCURVE",
"285 106 CURVE SMOOTH",
"254 106 OFFCURVE",
"228 116 OFFCURVE",
"206 137 CURVE",
"181 167 OFFCURVE",
"149 182 OFFCURVE",
"110 182 CURVE SMOOTH",
"89 182 OFFCURVE",
"71 178 OFFCURVE",
"54 169 CURVE",
"54 24 LINE SMOOTH",
"54 17 OFFCURVE",
"51 10 OFFCURVE",
"46 5 CURVE SMOOTH",
"41 0 OFFCURVE",
"34 -3 OFFCURVE",
"27 -3 CURVE SMOOTH",
"20 -3 OFFCURVE",
"13 0 OFFCURVE",
"8 5 CURVE SMOOTH",
"3 10 OFFCURVE",
"0 17 OFFCURVE",
"0 24 CURVE SMOOTH",
"0 346 LINE SMOOTH",
"0 353 OFFCURVE",
"3 360 OFFCURVE",
"8 365 CURVE SMOOTH",
"13 370 OFFCURVE",
"20 373 OFFCURVE",
"27 373 CURVE SMOOTH",
"38 373 OFFCURVE",
"46 368 OFFCURVE",
"51 358 CURVE",
"72 377 OFFCURVE",
"98 387 OFFCURVE",
"128 387 CURVE SMOOTH",
"159 387 OFFCURVE",
"186 377 OFFCURVE",
"208 356 CURVE",
"233 326 OFFCURVE",
"265 311 OFFCURVE",
"303 311 CURVE SMOOTH",
"324 311 OFFCURVE",
"344 316 OFFCURVE",
"361 325 CURVE"
);
}
);
width = 372;
}
);
unicode = F14D;
},
{
glyphname = uniF14E;
layers = (
{
layerId = "EBF4EA88-05C0-40D0-B291-B170F4B137C3";
name = Regular;
paths = (
{
closed = 1;
nodes = (
"397 325 LINE SMOOTH",
"404 325 OFFCURVE",
"411 322 OFFCURVE",
"417 317 CURVE",
"422 311 OFFCURVE",
"425 304 OFFCURVE",
"425 297 CURVE SMOOTH",
"425 49 LINE SMOOTH",
"425 42 OFFCURVE",
"422 35 OFFCURVE",
"417 30 CURVE SMOOTH",
"411 24 OFFCURVE",
"404 21 OFFCURVE",
"397 21 CURVE SMOOTH",
"28 21 LINE SMOOTH",
"21 21 OFFCURVE",
"14 24 OFFCURVE",
"9 30 CURVE",
"3 35 OFFCURVE",
"0 42 OFFCURVE",
"0 49 CURVE SMOOTH",
"0 297 LINE SMOOTH",
"0 304 OFFCURVE",
"3 311 OFFCURVE",
"9 317 CURVE SMOOTH",
"14 322 OFFCURVE",
"21 325 OFFCURVE",
"28 325 CURVE SMOOTH",
"58 325 LINE",
"84 357 LINE",
"87 361 OFFCURVE",
"91 363 OFFCURVE",
"97 363 CURVE SMOOTH",
"171 363 LINE SMOOTH",
"177 363 OFFCURVE",
"182 360 OFFCURVE",
"186 353 CURVE",
"188 350 OFFCURVE",
"196 341 OFFCURVE",
"209 325 CURVE"
);
},
{
closed = 1;
nodes = (
"374 155 LINE SMOOTH",
"374 158 OFFCURVE",
"373 159 OFFCURVE",
"371 159 CURVE SMOOTH",
"326 159 LINE",
"326 204 LINE SMOOTH",
"326 206 OFFCURVE",
"325 207 OFFCURVE",
"322 207 CURVE SMOOTH",
"291 207 LINE SMOOTH",
"288 207 OFFCURVE",
"287 206 OFFCURVE",
"287 204 CURVE SMOOTH",
"287 159 LINE",
"242 159 LINE SMOOTH",
"240 159 OFFCURVE",
"239 158 OFFCURVE",
"239 155 CURVE SMOOTH",
"239 124 LINE SMOOTH",
"239 123 OFFCURVE",
"239 123 OFFCURVE",
"240 122 CURVE SMOOTH",
"241 121 OFFCURVE",
"241 121 OFFCURVE",
"242 121 CURVE SMOOTH",
"287 121 LINE",
"287 76 LINE SMOOTH",
"287 75 OFFCURVE",
"287 74 OFFCURVE",
"288 73 CURVE SMOOTH",
"289 72 OFFCURVE",
"290 72 OFFCURVE",
"291 72 CURVE SMOOTH",
"322 72 LINE SMOOTH",
"323 72 OFFCURVE",
"324 72 OFFCURVE",
"325 73 CURVE SMOOTH",
"326 74 OFFCURVE",
"326 75 OFFCURVE",
"326 76 CURVE SMOOTH",
"326 121 LINE",
"371 121 LINE SMOOTH",
"372 121 OFFCURVE",
"372 121 OFFCURVE",
"373 122 CURVE SMOOTH",
"374 123 OFFCURVE",
"374 123 OFFCURVE",
"374 124 CURVE SMOOTH"
);
}
);
width = 425;
}
);
unicode = F14E;
},
{
glyphname = uniF14F;
layers = (
{
layerId = "EBF4EA88-05C0-40D0-B291-B170F4B137C3";
name = Regular;
paths = (
{
closed = 1;
nodes = (
"329 164 LINE",
"329 149 LINE",
"295 149 LINE",
"295 164 LINE SMOOTH",
"295 169 OFFCURVE",
"297 173 OFFCURVE",
"300 176 CURVE SMOOTH",
"303 179 OFFCURVE",
"307 181 OFFCURVE",
"312 181 CURVE SMOOTH",
"317 181 OFFCURVE",
"321 179 OFFCURVE",
"324 176 CURVE SMOOTH",
"327 173 OFFCURVE",
"329 169 OFFCURVE",
"329 164 CURVE"
);
},
{
closed = 1;
nodes = (
"397 325 LINE SMOOTH",
"404 325 OFFCURVE",
"411 322 OFFCURVE",
"417 317 CURVE",
"422 311 OFFCURVE",
"425 304 OFFCURVE",
"425 297 CURVE SMOOTH",
"425 49 LINE SMOOTH",
"425 42 OFFCURVE",
"422 35 OFFCURVE",
"417 30 CURVE SMOOTH",
"411 24 OFFCURVE",
"404 21 OFFCURVE",
"397 21 CURVE SMOOTH",
"28 21 LINE SMOOTH",
"21 21 OFFCURVE",
"14 24 OFFCURVE",
"9 30 CURVE",
"3 35 OFFCURVE",
"0 42 OFFCURVE",
"0 49 CURVE SMOOTH",
"0 297 LINE SMOOTH",
"0 304 OFFCURVE",
"3 311 OFFCURVE",
"9 317 CURVE SMOOTH",
"14 322 OFFCURVE",
"21 325 OFFCURVE",
"28 325 CURVE SMOOTH",
"58 325 LINE",
"84 357 LINE",
"87 361 OFFCURVE",
"91 363 OFFCURVE",
"97 363 CURVE SMOOTH",
"171 363 LINE SMOOTH",
"177 363 OFFCURVE",
"182 360 OFFCURVE",
"186 353 CURVE",
"188 350 OFFCURVE",
"196 341 OFFCURVE",
"209 325 CURVE"
);
},
{
closed = 1;
nodes = (
"374 144 LINE SMOOTH",
"374 147 OFFCURVE",
"372 149 OFFCURVE",
"369 149 CURVE SMOOTH",
"363 149 LINE",
"354 149 LINE",
"354 164 LINE SMOOTH",
"354 175 OFFCURVE",
"350 185 OFFCURVE",
"342 194 CURVE",
"333 202 OFFCURVE",
"323 206 OFFCURVE",
"312 206 CURVE SMOOTH",
"301 206 OFFCURVE",
"291 202 OFFCURVE",
"283 194 CURVE",
"275 185 OFFCURVE",
"271 175 OFFCURVE",
"271 164 CURVE SMOOTH",
"271 149 LINE",
"263 149 LINE",
"257 149 LINE SMOOTH",
"254 149 OFFCURVE",
"252 147 OFFCURVE",
"252 144 CURVE SMOOTH",
"252 77 LINE SMOOTH",
"252 74 OFFCURVE",
"254 72 OFFCURVE",
"257 72 CURVE SMOOTH",
"369 72 LINE SMOOTH",
"372 72 OFFCURVE",
"374 74 OFFCURVE",
"374 77 CURVE SMOOTH"
);
}
);
width = 425;
}
);
unicode = F14F;
},
{
glyphname = uniF150;
layers = (
{
layerId = "EBF4EA88-05C0-40D0-B291-B170F4B137C3";
name = Regular;
paths = (
{
closed = 1;
nodes = (
"397 325 LINE SMOOTH",
"404 325 OFFCURVE",
"411 322 OFFCURVE",
"417 317 CURVE",
"422 311 OFFCURVE",
"425 304 OFFCURVE",
"425 297 CURVE SMOOTH",
"425 49 LINE SMOOTH",
"425 42 OFFCURVE",
"422 35 OFFCURVE",
"417 30 CURVE SMOOTH",
"411 24 OFFCURVE",
"404 21 OFFCURVE",
"397 21 CURVE SMOOTH",
"28 21 LINE SMOOTH",
"21 21 OFFCURVE",
"14 24 OFFCURVE",
"9 30 CURVE",
"3 35 OFFCURVE",
"0 42 OFFCURVE",
"0 49 CURVE SMOOTH",
"0 297 LINE SMOOTH",
"0 304 OFFCURVE",
"3 311 OFFCURVE",
"9 317 CURVE SMOOTH",
"14 322 OFFCURVE",
"21 325 OFFCURVE",
"28 325 CURVE SMOOTH",
"58 325 LINE",
"84 357 LINE",
"87 361 OFFCURVE",
"91 363 OFFCURVE",
"97 363 CURVE SMOOTH",
"171 363 LINE SMOOTH",
"177 363 OFFCURVE",
"182 360 OFFCURVE",
"186 353 CURVE",
"188 350 OFFCURVE",
"196 341 OFFCURVE",
"209 325 CURVE"
);
}
);
width = 425;
}
);
unicode = F150;
},
{
glyphname = uniF151;
layers = (
{
layerId = "EBF4EA88-05C0-40D0-B291-B170F4B137C3";
name = Regular;
paths = (
{
closed = 1;
nodes = (
"7 242 OFFCURVE",
"0 249 OFFCURVE",
"0 264 CURVE SMOOTH",
"0 279 OFFCURVE",
"7 286 OFFCURVE",
"22 286 CURVE SMOOTH",
"37 286 OFFCURVE",
"44 279 OFFCURVE",
"44 264 CURVE SMOOTH",
"44 249 OFFCURVE",
"37 242 OFFCURVE",
"22 242 CURVE SMOOTH"
);
},
{
closed = 1;
nodes = (
"168 398 OFFCURVE",
"183 413 OFFCURVE",
"213 413 CURVE SMOOTH",
"243 413 OFFCURVE",
"258 398 OFFCURVE",
"258 368 CURVE SMOOTH",
"258 339 OFFCURVE",
"243 324 OFFCURVE",
"213 324 CURVE SMOOTH",
"183 324 OFFCURVE",
"168 339 OFFCURVE",
"168 368 CURVE SMOOTH"
);
},
{
closed = 1;
nodes = (
"101 326 OFFCURVE",
"92 335 OFFCURVE",
"92 354 CURVE SMOOTH",
"92 373 OFFCURVE",
"101 382 OFFCURVE",
"120 382 CURVE SMOOTH",
"139 382 OFFCURVE",
"148 373 OFFCURVE",
"148 354 CURVE SMOOTH",
"148 335 OFFCURVE",
"139 326 OFFCURVE",
"120 326 CURVE SMOOTH"
);
},
{
closed = 1;
nodes = (
"258 58 OFFCURVE",
"262 46 OFFCURVE",
"262 31 CURVE SMOOTH",
"262 14 OFFCURVE",
"256 -1 OFFCURVE",
"245 -12 CURVE SMOOTH",
"234 -23 OFFCURVE",
"219 -29 OFFCURVE",
"202 -29 CURVE SMOOTH",
"188 -29 OFFCURVE",
"176 -25 OFFCURVE",
"167 -18 CURVE SMOOTH",
"156 -9 OFFCURVE",
"149 1 OFFCURVE",
"145 12 CURVE",
"69 143 LINE",
"70 144 LINE",
"65 153 OFFCURVE",
"61 162 OFFCURVE",
"59 169 CURVE SMOOTH",
"56 181 OFFCURVE",
"54 192 OFFCURVE",
"54 202 CURVE SMOOTH",
"54 231 OFFCURVE",
"64 255 OFFCURVE",
"85 276 CURVE SMOOTH",
"106 297 OFFCURVE",
"130 307 OFFCURVE",
"159 307 CURVE SMOOTH",
"178 307 OFFCURVE",
"195 302 OFFCURVE",
"212 293 CURVE",
"227 284 OFFCURVE",
"240 271 OFFCURVE",
"250 254 CURVE",
"259 237 OFFCURVE",
"264 220 OFFCURVE",
"264 202 CURVE SMOOTH",
"264 179 OFFCURVE",
"258 160 OFFCURVE",
"247 143 CURVE",
"241 132 OFFCURVE",
"238 121 OFFCURVE",
"238 108 CURVE SMOOTH",
"238 93 OFFCURVE",
"242 80 OFFCURVE",
"249 69 CURVE"
);
},
{
closed = 1;
nodes = (
"39 326 OFFCURVE",
"46 334 OFFCURVE",
"61 334 CURVE SMOOTH",
"76 334 OFFCURVE",
"83 326 OFFCURVE",
"83 311 CURVE SMOOTH",
"83 296 OFFCURVE",
"76 289 OFFCURVE",
"61 289 CURVE SMOOTH",
"46 289 OFFCURVE",
"39 296 OFFCURVE",
"39 311 CURVE SMOOTH"
);
}
);
width = 264;
}
);
unicode = F151;
},
{
glyphname = uniF152;
layers = (
{
layerId = "EBF4EA88-05C0-40D0-B291-B170F4B137C3";
name = Regular;
paths = (
{
closed = 1;
nodes = (
"325 59 LINE",
"326 59 OFFCURVE",
"326 58 OFFCURVE",
"326 57 CURVE SMOOTH",
"326 56 LINE",
"320 44 LINE",
"320 43 OFFCURVE",
"319 43 OFFCURVE",
"318 43 CURVE SMOOTH",
"317 43 LINE",
"301 51 LINE",
"300 51 OFFCURVE",
"300 52 OFFCURVE",
"300 53 CURVE SMOOTH",
"300 54 OFFCURVE",
"300 54 OFFCURVE",
"300 54 CURVE",
"301 54 LINE",
"307 66 LINE",
"308 67 OFFCURVE",
"309 68 OFFCURVE",
"310 67 CURVE"
);
},
{
closed = 1;
nodes = (
"325 328 LINE",
"326 328 OFFCURVE",
"326 327 OFFCURVE",
"326 326 CURVE SMOOTH",
"326 325 LINE",
"319 314 LINE",
"319 313 OFFCURVE",
"319 312 OFFCURVE",
"318 312 CURVE",
"316 313 LINE",
"301 322 LINE",
"300 322 OFFCURVE",
"300 322 OFFCURVE",
"300 323 CURVE SMOOTH",
"300 325 LINE",
"307 336 LINE",
"308 337 OFFCURVE",
"309 338 OFFCURVE",
"310 337 CURVE"
);
},
{
closed = 1;
nodes = (
"295 75 LINE",
"296 74 OFFCURVE",
"297 73 OFFCURVE",
"296 72 CURVE",
"289 60 LINE",
"289 59 OFFCURVE",
"288 59 OFFCURVE",
"287 59 CURVE SMOOTH",
"286 59 LINE",
"282 62 LINE",
"277 64 LINE",
"215 30 LINE",
"215 30 LINE",
"214 29 OFFCURVE",
"213 29 OFFCURVE",
"210 29 CURVE SMOOTH",
"208 29 OFFCURVE",
"207 29 OFFCURVE",
"206 30 CURVE",
"206 30 LINE",
"143 64 LINE",
"81 30 LINE",
"80 30 LINE",
"79 29 OFFCURVE",
"78 29 OFFCURVE",
"76 29 CURVE SMOOTH",
"74 29 OFFCURVE",
"73 29 OFFCURVE",
"72 30 CURVE",
"71 30 LINE",
"4 67 LINE",
"1 68 OFFCURVE",
"0 70 OFFCURVE",
"0 73 CURVE SMOOTH",
"0 347 LINE SMOOTH",
"0 350 OFFCURVE",
"2 353 OFFCURVE",
"5 354 CURVE",
"7 355 OFFCURVE",
"10 354 OFFCURVE",
"14 353 CURVE",
"76 319 LINE",
"138 353 LINE",
"139 353 LINE",
"139 354 LINE",
"141 354 LINE",
"143 354 LINE",
"145 354 LINE",
"147 354 LINE",
"148 353 LINE",
"210 319 LINE",
"272 353 LINE",
"275 356 OFFCURVE",
"278 356 OFFCURVE",
"281 354 CURVE SMOOTH",
"288 349 LINE",
"295 346 LINE",
"296 346 OFFCURVE",
"296 345 OFFCURVE",
"296 344 CURVE",
"295 344 OFFCURVE",
"295 344 OFFCURVE",
"295 343 CURVE",
"289 331 LINE",
"289 330 OFFCURVE",
"288 330 OFFCURVE",
"287 330 CURVE",
"286 331 LINE",
"277 336 LINE",
"277 84 LINE"
);
},
{
closed = 1;
nodes = (
"76 46 LINE",
"76 302 LINE",
"18 333 LINE",
"18 77 LINE"
);
},
{
closed = 1;
nodes = (
"210 46 LINE",
"210 302 LINE",
"143 338 LINE",
"143 82 LINE"
);
},
{
closed = 1;
nodes = (
"354 160 LINE SMOOTH",
"355 160 OFFCURVE",
"356 159 OFFCURVE",
"356 157 CURVE SMOOTH",
"356 130 LINE SMOOTH",
"356 129 OFFCURVE",
"355 128 OFFCURVE",
"354 128 CURVE SMOOTH",
"341 128 LINE SMOOTH",
"339 128 OFFCURVE",
"338 129 OFFCURVE",
"338 130 CURVE SMOOTH",
"338 157 LINE SMOOTH",
"338 159 OFFCURVE",
"339 160 OFFCURVE",
"341 160 CURVE SMOOTH"
);
},
{
closed = 1;
nodes = (
"354 52 LINE SMOOTH",
"355 52 OFFCURVE",
"356 51 OFFCURVE",
"356 50 CURVE SMOOTH",
"356 40 LINE SMOOTH",
"356 33 OFFCURVE",
"353 29 OFFCURVE",
"346 29 CURVE SMOOTH",
"345 29 OFFCURVE",
"343 30 OFFCURVE",
"340 31 CURVE",
"332 35 LINE",
"331 35 OFFCURVE",
"331 36 OFFCURVE",
"331 37 CURVE SMOOTH",
"331 38 LINE",
"337 50 LINE",
"338 51 LINE",
"340 52 LINE",
"341 52 LINE"
);
},
{
closed = 1;
nodes = (
"349 314 LINE SMOOTH",
"354 311 OFFCURVE",
"356 307 OFFCURVE",
"356 302 CURVE SMOOTH",
"356 292 LINE SMOOTH",
"356 291 OFFCURVE",
"355 290 OFFCURVE",
"354 290 CURVE SMOOTH",
"341 290 LINE SMOOTH",
"339 290 OFFCURVE",
"338 291 OFFCURVE",
"338 292 CURVE SMOOTH",
"338 300 LINE",
"332 304 LINE",
"331 304 OFFCURVE",
"331 304 OFFCURVE",
"331 305 CURVE SMOOTH",
"331 307 LINE",
"337 318 LINE",
"338 319 OFFCURVE",
"339 320 OFFCURVE",
"340 319 CURVE"
);
},
{
closed = 1;
nodes = (
"354 267 LINE SMOOTH",
"355 267 OFFCURVE",
"356 266 OFFCURVE",
"356 265 CURVE SMOOTH",
"356 238 LINE SMOOTH",
"356 237 OFFCURVE",
"355 236 OFFCURVE",
"354 236 CURVE SMOOTH",
"341 236 LINE SMOOTH",
"339 236 OFFCURVE",
"338 237 OFFCURVE",
"338 238 CURVE SMOOTH",
"338 265 LINE SMOOTH",
"338 266 OFFCURVE",
"339 267 OFFCURVE",
"341 267 CURVE SMOOTH"
);
},
{
closed = 1;
nodes = (
"354 106 LINE SMOOTH",
"355 106 OFFCURVE",
"356 105 OFFCURVE",
"356 104 CURVE SMOOTH",
"356 77 LINE SMOOTH",
"356 75 OFFCURVE",
"355 74 OFFCURVE",
"354 74 CURVE SMOOTH",
"341 74 LINE SMOOTH",
"339 74 OFFCURVE",
"338 75 OFFCURVE",
"338 77 CURVE SMOOTH",
"338 104 LINE SMOOTH",
"338 105 OFFCURVE",
"339 106 OFFCURVE",
"341 106 CURVE SMOOTH"
);
},
{
closed = 1;
nodes = (
"354 213 LINE SMOOTH",
"355 213 OFFCURVE",
"356 212 OFFCURVE",
"356 211 CURVE SMOOTH",
"356 184 LINE SMOOTH",
"356 183 OFFCURVE",
"355 182 OFFCURVE",
"354 182 CURVE SMOOTH",
"341 182 LINE SMOOTH",
"339 182 OFFCURVE",
"338 183 OFFCURVE",
"338 184 CURVE SMOOTH",
"338 211 LINE SMOOTH",
"338 212 OFFCURVE",
"339 213 OFFCURVE",
"341 213 CURVE SMOOTH"
);
}
);
width = 356;
}
);
unicode = F152;
},
{
glyphname = uniF153;
layers = (
{
layerId = "EBF4EA88-05C0-40D0-B291-B170F4B137C3";
name = Regular;
paths = (
{
closed = 1;
nodes = (
"193 140 LINE SMOOTH",
"198 140 OFFCURVE",
"201 137 OFFCURVE",
"201 132 CURVE SMOOTH",
"201 20 LINE SMOOTH",
"201 15 OFFCURVE",
"198 12 OFFCURVE",
"193 12 CURVE SMOOTH",
"121 12 LINE SMOOTH",
"116 12 OFFCURVE",
"113 15 OFFCURVE",
"113 20 CURVE SMOOTH",
"113 132 LINE SMOOTH",
"113 137 OFFCURVE",
"116 140 OFFCURVE",
"121 140 CURVE SMOOTH"
);
},
{
closed = 1;
nodes = (
"306 372 LINE SMOOTH",
"311 372 OFFCURVE",
"314 369 OFFCURVE",
"314 364 CURVE SMOOTH",
"314 20 LINE SMOOTH",
"314 15 OFFCURVE",
"311 12 OFFCURVE",
"306 12 CURVE SMOOTH",
"234 12 LINE SMOOTH",
"229 12 OFFCURVE",
"226 15 OFFCURVE",
"226 20 CURVE SMOOTH",
"226 364 LINE SMOOTH",
"226 369 OFFCURVE",
"229 372 OFFCURVE",
"234 372 CURVE SMOOTH"
);
},
{
closed = 1;
nodes = (
"420 267 LINE SMOOTH",
"425 267 OFFCURVE",
"427 265 OFFCURVE",
"427 260 CURVE SMOOTH",
"427 20 LINE SMOOTH",
"427 15 OFFCURVE",
"425 12 OFFCURVE",
"420 12 CURVE SMOOTH",
"347 12 LINE SMOOTH",
"342 12 OFFCURVE",
"339 15 OFFCURVE",
"339 20 CURVE SMOOTH",
"339 260 LINE SMOOTH",
"339 265 OFFCURVE",
"342 267 OFFCURVE",
"347 267 CURVE SMOOTH"
);
},
{
closed = 1;
nodes = (
"80 267 LINE SMOOTH",
"85 267 OFFCURVE",
"88 265 OFFCURVE",
"88 260 CURVE SMOOTH",
"88 20 LINE SMOOTH",
"88 15 OFFCURVE",
"85 12 OFFCURVE",
"80 12 CURVE SMOOTH",
"8 12 LINE SMOOTH",
"3 12 OFFCURVE",
"0 15 OFFCURVE",
"0 20 CURVE SMOOTH",
"0 260 LINE SMOOTH",
"0 265 OFFCURVE",
"3 267 OFFCURVE",
"8 267 CURVE SMOOTH"
);
}
);
width = 427;
}
);
unicode = F153;
},
{
glyphname = uniF154;
layers = (
{
layerId = "EBF4EA88-05C0-40D0-B291-B170F4B137C3";
name = Regular;
paths = (
{
closed = 1;
nodes = (
"380 238 LINE SMOOTH",
"385 238 OFFCURVE",
"387 235 OFFCURVE",
"387 230 CURVE SMOOTH",
"387 153 LINE SMOOTH",
"387 148 OFFCURVE",
"385 145 OFFCURVE",
"380 145 CURVE SMOOTH",
"8 145 LINE SMOOTH",
"3 145 OFFCURVE",
"0 148 OFFCURVE",
"0 153 CURVE SMOOTH",
"0 230 LINE SMOOTH",
"0 235 OFFCURVE",
"3 238 OFFCURVE",
"8 238 CURVE SMOOTH"
);
},
{
closed = 1;
nodes = (
"226 357 LINE",
"229 356 OFFCURVE",
"231 353 OFFCURVE",
"231 349 CURVE SMOOTH",
"231 272 LINE SMOOTH",
"231 268 OFFCURVE",
"229 265 OFFCURVE",
"226 264 CURVE",
"8 264 LINE SMOOTH",
"3 264 OFFCURVE",
"0 267 OFFCURVE",
"0 272 CURVE SMOOTH",
"0 349 LINE SMOOTH",
"0 354 OFFCURVE",
"3 357 OFFCURVE",
"8 357 CURVE SMOOTH"
);
},
{
closed = 1;
nodes = (
"275 120 LINE SMOOTH",
"280 120 OFFCURVE",
"283 117 OFFCURVE",
"283 112 CURVE SMOOTH",
"283 35 LINE SMOOTH",
"283 30 OFFCURVE",
"280 27 OFFCURVE",
"275 27 CURVE SMOOTH",
"8 27 LINE SMOOTH",
"3 27 OFFCURVE",
"0 30 OFFCURVE",
"0 35 CURVE SMOOTH",
"0 112 LINE SMOOTH",
"0 117 OFFCURVE",
"3 120 OFFCURVE",
"8 120 CURVE SMOOTH"
);
}
);
width = 387;
}
);
unicode = F154;
},
{
glyphname = uniF155;
layers = (
{
layerId = "EBF4EA88-05C0-40D0-B291-B170F4B137C3";
name = Regular;
paths = (
{
closed = 1;
nodes = (
"259 381 OFFCURVE",
"298 365 OFFCURVE",
"331 332 CURVE SMOOTH",
"363 299 OFFCURVE",
"379 260 OFFCURVE",
"380 213 CURVE SMOOTH",
"380 209 OFFCURVE",
"378 207 OFFCURVE",
"374 207 CURVE SMOOTH",
"373 207 LINE",
"212 207 LINE SMOOTH",
"207 207 OFFCURVE",
"205 209 OFFCURVE",
"205 213 CURVE SMOOTH",
"205 374 LINE",
"205 375 LINE SMOOTH",
"205 380 OFFCURVE",
"207 382 OFFCURVE",
"212 382 CURVE SMOOTH"
);
},
{
closed = 1;
nodes = (
"341 172 LINE SMOOTH",
"341 125 OFFCURVE",
"325 85 OFFCURVE",
"292 52 CURVE SMOOTH",
"259 19 OFFCURVE",
"218 2 OFFCURVE",
"171 2 CURVE SMOOTH",
"124 2 OFFCURVE",
"83 19 OFFCURVE",
"50 52 CURVE SMOOTH",
"17 85 OFFCURVE",
"0 125 OFFCURVE",
"0 172 CURVE SMOOTH",
"0 219 OFFCURVE",
"17 259 OFFCURVE",
"50 293 CURVE SMOOTH",
"83 326 OFFCURVE",
"124 343 OFFCURVE",
"171 343 CURVE SMOOTH",
"172 343 LINE",
"173 343 LINE SMOOTH",
"178 343 OFFCURVE",
"180 341 OFFCURVE",
"180 336 CURVE",
"179 335 LINE",
"180 335 LINE",
"180 188 LINE SMOOTH",
"180 183 OFFCURVE",
"182 181 OFFCURVE",
"186 181 CURVE SMOOTH",
"334 181 LINE SMOOTH",
"339 181 OFFCURVE",
"341 179 OFFCURVE",
"341 174 CURVE SMOOTH"
);
}
);
width = 380;
}
);
unicode = F155;
},
{
glyphname = uniF156;
layers = (
{
layerId = "EBF4EA88-05C0-40D0-B291-B170F4B137C3";
name = Regular;
paths = (
{
closed = 1;
nodes = (
"25 37 LINE SMOOTH",
"18 37 OFFCURVE",
"12 40 OFFCURVE",
"7 45 CURVE SMOOTH",
"2 50 OFFCURVE",
"0 55 OFFCURVE",
"0 62 CURVE SMOOTH",
"0 322 LINE SMOOTH",
"0 329 OFFCURVE",
"2 335 OFFCURVE",
"7 340 CURVE SMOOTH",
"12 345 OFFCURVE",
"18 347 OFFCURVE",
"25 347 CURVE SMOOTH",
"384 347 LINE SMOOTH",
"391 347 OFFCURVE",
"398 345 OFFCURVE",
"403 340 CURVE SMOOTH",
"408 335 OFFCURVE",
"410 329 OFFCURVE",
"410 322 CURVE SMOOTH",
"410 62 LINE SMOOTH",
"410 55 OFFCURVE",
"408 50 OFFCURVE",
"403 45 CURVE SMOOTH",
"398 40 OFFCURVE",
"391 37 OFFCURVE",
"384 37 CURVE SMOOTH"
);
},
{
closed = 1;
nodes = (
"359 87 LINE",
"359 297 LINE",
"50 297 LINE",
"50 87 LINE"
);
},
{
closed = 1;
nodes = (
"162 111 LINE SMOOTH",
"157 111 OFFCURVE",
"152 113 OFFCURVE",
"149 116 CURVE SMOOTH",
"124 141 LINE",
"93 116 LINE",
"83 109 OFFCURVE",
"75 109 OFFCURVE",
"68 118 CURVE",
"61 128 OFFCURVE",
"61 136 OFFCURVE",
"70 143 CURVE SMOOTH",
"114 179 LINE SMOOTH",
"122 186 OFFCURVE",
"130 186 OFFCURVE",
"138 178 CURVE SMOOTH",
"159 157 LINE",
"205 229 LINE",
"209 234 OFFCURVE",
"214 237 OFFCURVE",
"221 237 CURVE SMOOTH",
"228 237 OFFCURVE",
"233 234 OFFCURVE",
"236 227 CURVE SMOOTH",
"263 169 LINE",
"315 261 LINE SMOOTH",
"321 272 OFFCURVE",
"329 274 OFFCURVE",
"340 268 CURVE SMOOTH",
"351 262 OFFCURVE",
"353 254 OFFCURVE",
"347 244 CURVE SMOOTH",
"277 121 LINE",
"274 115 OFFCURVE",
"268 112 OFFCURVE",
"261 112 CURVE SMOOTH",
"254 112 OFFCURVE",
"248 116 OFFCURVE",
"245 123 CURVE",
"217 182 LINE",
"177 119 LINE",
"174 115 OFFCURVE",
"170 112 OFFCURVE",
"164 111 CURVE"
);
}
);
width = 410;
}
);
unicode = F156;
},
{
glyphname = uniF157;
layers = (
{
layerId = "EBF4EA88-05C0-40D0-B291-B170F4B137C3";
name = Regular;
paths = (
{
closed = 1;
nodes = (
"148 320 LINE",
"145 322 OFFCURVE",
"143 325 OFFCURVE",
"143 329 CURVE SMOOTH",
"143 336 OFFCURVE",
"146 339 OFFCURVE",
"153 339 CURVE SMOOTH",
"156 339 OFFCURVE",
"159 338 OFFCURVE",
"161 336 CURVE SMOOTH",
"221 276 LINE",
"224 274 OFFCURVE",
"226 271 OFFCURVE",
"226 267 CURVE SMOOTH",
"226 260 OFFCURVE",
"222 257 OFFCURVE",
"215 257 CURVE SMOOTH",
"214 257 OFFCURVE",
"212 258 OFFCURVE",
"209 259 CURVE",
"208 259 LINE",
"208 260 LINE"
);
},
{
closed = 1;
nodes = (
"215 111 LINE",
"190 111 LINE SMOOTH",
"171 111 OFFCURVE",
"158 111 OFFCURVE",
"149 112 CURVE",
"173 70 LINE",
"176 66 OFFCURVE",
"177 62 OFFCURVE",
"177 59 CURVE SMOOTH",
"177 54 OFFCURVE",
"175 50 OFFCURVE",
"172 47 CURVE SMOOTH",
"168 43 OFFCURVE",
"164 41 OFFCURVE",
"159 41 CURVE SMOOTH",
"153 41 OFFCURVE",
"148 43 OFFCURVE",
"145 48 CURVE SMOOTH",
"107 113 LINE",
"70 48 LINE",
"69 48 LINE",
"66 43 OFFCURVE",
"61 41 OFFCURVE",
"55 41 CURVE SMOOTH",
"50 41 OFFCURVE",
"46 43 OFFCURVE",
"43 47 CURVE",
"39 50 OFFCURVE",
"37 54 OFFCURVE",
"37 59 CURVE SMOOTH",
"37 62 OFFCURVE",
"38 66 OFFCURVE",
"41 70 CURVE",
"73 126 LINE",
"64 133 OFFCURVE",
"59 151 OFFCURVE",
"59 182 CURVE SMOOTH",
"59 191 OFFCURVE",
"60 203 OFFCURVE",
"63 216 CURVE",
"6 249 LINE",
"2 251 OFFCURVE",
"0 255 OFFCURVE",
"0 260 CURVE SMOOTH",
"0 269 OFFCURVE",
"4 273 OFFCURVE",
"13 273 CURVE SMOOTH",
"16 273 OFFCURVE",
"18 273 OFFCURVE",
"19 272 CURVE",
"75 239 LINE",
"76 239 OFFCURVE",
"77 239 OFFCURVE",
"78 240 CURVE",
"215 240 LINE"
);
},
{
closed = 1;
nodes = (
"337 70 LINE",
"340 66 OFFCURVE",
"341 62 OFFCURVE",
"341 59 CURVE SMOOTH",
"341 54 OFFCURVE",
"339 50 OFFCURVE",
"336 47 CURVE SMOOTH",
"332 43 OFFCURVE",
"328 41 OFFCURVE",
"323 41 CURVE SMOOTH",
"317 41 OFFCURVE",
"312 43 OFFCURVE",
"309 48 CURVE",
"308 48 LINE",
"271 113 LINE",
"233 48 LINE SMOOTH",
"230 43 OFFCURVE",
"225 41 OFFCURVE",
"219 41 CURVE SMOOTH",
"214 41 OFFCURVE",
"210 43 OFFCURVE",
"207 47 CURVE",
"203 50 OFFCURVE",
"201 54 OFFCURVE",
"201 59 CURVE SMOOTH",
"201 62 OFFCURVE",
"202 66 OFFCURVE",
"205 70 CURVE",
"236 124 LINE",
"236 240 LINE",
"319 157 LINE",
"317 139 OFFCURVE",
"313 128 OFFCURVE",
"306 125 CURVE"
);
},
{
closed = 1;
nodes = (
"399 231 OFFCURVE",
"398 228 OFFCURVE",
"395 225 CURVE SMOOTH",
"384 214 LINE",
"374 214 LINE",
"334 214 LINE",
"320 200 LINE",
"321 197 OFFCURVE",
"321 191 OFFCURVE",
"321 184 CURVE",
"249 256 LINE",
"291 298 LINE",
"317 343 LINE",
"330 321 LINE",
"331 321 OFFCURVE",
"333 320 OFFCURVE",
"337 318 CURVE",
"337 319 LINE",
"363 304 LINE",
"370 301 OFFCURVE",
"374 295 OFFCURVE",
"374 286 CURVE SMOOTH",
"374 265 LINE",
"394 245 LINE",
"397 243 OFFCURVE",
"399 240 OFFCURVE",
"399 235 CURVE SMOOTH"
);
}
);
width = 399;
}
);
unicode = F157;
},
{
glyphname = uniF158;
layers = (
{
layerId = "EBF4EA88-05C0-40D0-B291-B170F4B137C3";
name = Regular;
paths = (
{
closed = 1;
nodes = (
"252 184 OFFCURVE",
"250 172 OFFCURVE",
"246 160 CURVE",
"246 159 LINE",
"245 158 OFFCURVE",
"245 158 OFFCURVE",
"245 157 CURVE",
"235 140 OFFCURVE",
"227 127 OFFCURVE",
"220 119 CURVE",
"220 118 OFFCURVE",
"219 118 OFFCURVE",
"218 117 CURVE SMOOTH",
"217 116 OFFCURVE",
"216 115 OFFCURVE",
"216 114 CURVE",
"209 107 OFFCURVE",
"206 99 OFFCURVE",
"206 90 CURVE",
"207 66 OFFCURVE",
"206 51 OFFCURVE",
"205 45 CURVE SMOOTH",
"201 20 OFFCURVE",
"183 6 OFFCURVE",
"150 5 CURVE SMOOTH",
"150 5 LINE SMOOTH",
"145 5 OFFCURVE",
"141 7 OFFCURVE",
"138 10 CURVE SMOOTH",
"135 13 OFFCURVE",
"133 16 OFFCURVE",
"133 21 CURVE SMOOTH",
"133 27 OFFCURVE",
"134 31 OFFCURVE",
"137 34 CURVE SMOOTH",
"140 37 OFFCURVE",
"144 39 OFFCURVE",
"149 39 CURVE",
"162 40 OFFCURVE",
"170 43 OFFCURVE",
"172 50 CURVE",
"172 52 LINE",
"172 89 LINE",
"171 105 OFFCURVE",
"177 121 OFFCURVE",
"190 137 CURVE",
"194 141 LINE",
"202 150 OFFCURVE",
"209 161 OFFCURVE",
"215 173 CURVE",
"217 180 OFFCURVE",
"218 187 OFFCURVE",
"218 196 CURVE SMOOTH",
"218 215 OFFCURVE",
"211 232 OFFCURVE",
"198 247 CURVE",
"184 261 OFFCURVE",
"167 268 OFFCURVE",
"148 268 CURVE SMOOTH",
"129 268 OFFCURVE",
"112 261 OFFCURVE",
"98 247 CURVE SMOOTH",
"84 232 OFFCURVE",
"77 215 OFFCURVE",
"77 196 CURVE SMOOTH",
"77 191 OFFCURVE",
"75 187 OFFCURVE",
"72 184 CURVE SMOOTH",
"69 181 OFFCURVE",
"65 179 OFFCURVE",
"60 179 CURVE SMOOTH",
"55 179 OFFCURVE",
"51 181 OFFCURVE",
"48 184 CURVE SMOOTH",
"45 187 OFFCURVE",
"43 191 OFFCURVE",
"43 196 CURVE SMOOTH",
"43 225 OFFCURVE",
"53 250 OFFCURVE",
"74 271 CURVE SMOOTH",
"95 292 OFFCURVE",
"119 302 OFFCURVE",
"148 302 CURVE SMOOTH",
"177 302 OFFCURVE",
"201 292 OFFCURVE",
"222 271 CURVE SMOOTH",
"242 250 OFFCURVE",
"252 225 OFFCURVE",
"252 196 CURVE SMOOTH"
);
},
{
closed = 1;
nodes = (
"172 201 OFFCURVE",
"170 206 OFFCURVE",
"165 211 CURVE SMOOTH",
"160 216 OFFCURVE",
"155 218 OFFCURVE",
"148 218 CURVE SMOOTH",
"141 218 OFFCURVE",
"136 216 OFFCURVE",
"131 211 CURVE SMOOTH",
"126 206 OFFCURVE",
"124 201 OFFCURVE",
"124 194 CURVE SMOOTH",
"124 190 OFFCURVE",
"123 187 OFFCURVE",
"120 184 CURVE SMOOTH",
"117 181 OFFCURVE",
"113 179 OFFCURVE",
"109 179 CURVE SMOOTH",
"100 179 OFFCURVE",
"95 184 OFFCURVE",
"95 194 CURVE SMOOTH",
"95 209 OFFCURVE",
"100 221 OFFCURVE",
"111 231 CURVE",
"121 241 OFFCURVE",
"133 246 OFFCURVE",
"148 246 CURVE SMOOTH",
"163 246 OFFCURVE",
"175 241 OFFCURVE",
"185 231 CURVE SMOOTH",
"195 221 OFFCURVE",
"200 209 OFFCURVE",
"200 194 CURVE SMOOTH",
"200 184 OFFCURVE",
"195 179 OFFCURVE",
"186 179 CURVE SMOOTH",
"177 179 OFFCURVE",
"172 184 OFFCURVE",
"172 194 CURVE SMOOTH"
);
},
{
closed = 1;
nodes = (
"75 142 LINE SMOOTH",
"82 149 OFFCURVE",
"90 149 OFFCURVE",
"97 142 CURVE SMOOTH",
"100 139 OFFCURVE",
"102 135 OFFCURVE",
"102 130 CURVE SMOOTH",
"102 126 OFFCURVE",
"100 122 OFFCURVE",
"97 119 CURVE SMOOTH",
"27 48 LINE SMOOTH",
"24 45 OFFCURVE",
"21 44 OFFCURVE",
"16 44 CURVE SMOOTH",
"11 44 OFFCURVE",
"8 45 OFFCURVE",
"5 48 CURVE SMOOTH",
"2 51 OFFCURVE",
"0 55 OFFCURVE",
"0 60 CURVE SMOOTH",
"0 64 OFFCURVE",
"2 68 OFFCURVE",
"5 71 CURVE SMOOTH"
);
},
{
closed = 1;
nodes = (
"226 334 OFFCURVE",
"243 327 OFFCURVE",
"256 314 CURVE SMOOTH",
"269 301 OFFCURVE",
"276 285 OFFCURVE",
"276 266 CURVE SMOOTH",
"276 259 LINE SMOOTH",
"276 255 OFFCURVE",
"274 253 OFFCURVE",
"270 253 CURVE SMOOTH",
"258 253 LINE SMOOTH",
"254 253 OFFCURVE",
"252 255 OFFCURVE",
"252 259 CURVE SMOOTH",
"252 266 LINE SMOOTH",
"252 278 OFFCURVE",
"248 288 OFFCURVE",
"239 297 CURVE SMOOTH",
"230 306 OFFCURVE",
"219 310 OFFCURVE",
"207 310 CURVE SMOOTH",
"207 310 LINE",
"200 310 LINE SMOOTH",
"197 310 OFFCURVE",
"195 312 OFFCURVE",
"195 316 CURVE SMOOTH",
"195 327 LINE SMOOTH",
"195 332 OFFCURVE",
"197 334 OFFCURVE",
"200 334 CURVE SMOOTH",
"207 334 LINE SMOOTH"
);
},
{
closed = 1;
nodes = (
"321 259 LINE SMOOTH",
"321 255 OFFCURVE",
"319 253 OFFCURVE",
"315 253 CURVE SMOOTH",
"304 253 LINE SMOOTH",
"299 253 OFFCURVE",
"297 255 OFFCURVE",
"297 259 CURVE SMOOTH",
"297 266 LINE SMOOTH",
"297 291 OFFCURVE",
"288 312 OFFCURVE",
"271 329 CURVE SMOOTH",
"253 346 OFFCURVE",
"232 355 OFFCURVE",
"207 355 CURVE SMOOTH",
"207 355 LINE",
"200 355 LINE SMOOTH",
"197 355 OFFCURVE",
"195 357 OFFCURVE",
"195 361 CURVE SMOOTH",
"195 373 LINE SMOOTH",
"195 377 OFFCURVE",
"197 379 OFFCURVE",
"200 379 CURVE SMOOTH",
"207 379 LINE",
"207 379 LINE",
"238 379 OFFCURVE",
"265 368 OFFCURVE",
"288 346 CURVE SMOOTH",
"310 324 OFFCURVE",
"321 297 OFFCURVE",
"321 266 CURVE SMOOTH"
);
}
);
width = 321;
}
);
unicode = F158;
},
{
glyphname = uniF159;
layers = (
{
layerId = "EBF4EA88-05C0-40D0-B291-B170F4B137C3";
name = Regular;
paths = (
{
closed = 1;
nodes = (
"326 379 OFFCURVE",
"353 368 OFFCURVE",
"376 346 CURVE",
"398 323 OFFCURVE",
"409 296 OFFCURVE",
"409 265 CURVE SMOOTH",
"409 244 OFFCURVE",
"406 224 OFFCURVE",
"399 205 CURVE SMOOTH",
"392 185 OFFCURVE",
"385 171 OFFCURVE",
"378 162 CURVE SMOOTH",
"371 153 OFFCURVE",
"362 140 OFFCURVE",
"350 125 CURVE SMOOTH",
"344 118 LINE SMOOTH",
"327 97 OFFCURVE",
"283 60 OFFCURVE",
"212 7 CURVE",
"211 6 OFFCURVE",
"208 5 OFFCURVE",
"204 5 CURVE SMOOTH",
"201 5 OFFCURVE",
"198 6 OFFCURVE",
"197 7 CURVE",
"126 60 OFFCURVE",
"82 97 OFFCURVE",
"65 118 CURVE SMOOTH",
"59 125 LINE SMOOTH",
"47 140 OFFCURVE",
"38 153 OFFCURVE",
"31 162 CURVE SMOOTH",
"24 171 OFFCURVE",
"18 185 OFFCURVE",
"11 205 CURVE SMOOTH",
"4 224 OFFCURVE",
"0 244 OFFCURVE",
"0 265 CURVE SMOOTH",
"0 296 OFFCURVE",
"11 323 OFFCURVE",
"34 346 CURVE SMOOTH",
"56 368 OFFCURVE",
"83 379 OFFCURVE",
"114 379 CURVE SMOOTH",
"152 379 OFFCURVE",
"182 364 OFFCURVE",
"204 335 CURVE",
"226 364 OFFCURVE",
"256 379 OFFCURVE",
"295 379 CURVE SMOOTH"
);
}
);
width = 409;
}
);
unicode = F159;
},
{
glyphname = uniF15A;
layers = (
{
layerId = "EBF4EA88-05C0-40D0-B291-B170F4B137C3";
name = Regular;
paths = (
{
closed = 1;
nodes = (
"348 254 LINE",
"351 252 OFFCURVE",
"353 249 OFFCURVE",
"353 244 CURVE SMOOTH",
"353 11 LINE SMOOTH",
"353 2 OFFCURVE",
"349 -2 OFFCURVE",
"340 -2 CURVE SMOOTH",
"244 -2 LINE SMOOTH",
"236 -2 OFFCURVE",
"232 2 OFFCURVE",
"232 11 CURVE SMOOTH",
"232 154 LINE",
"121 154 LINE",
"121 11 LINE SMOOTH",
"121 2 OFFCURVE",
"117 -2 OFFCURVE",
"109 -2 CURVE SMOOTH",
"13 -2 LINE SMOOTH",
"4 -2 OFFCURVE",
"0 2 OFFCURVE",
"0 11 CURVE SMOOTH",
"0 244 LINE SMOOTH",
"0 249 OFFCURVE",
"2 252 OFFCURVE",
"5 254 CURVE",
"166 383 LINE SMOOTH",
"171 387 OFFCURVE",
"177 387 OFFCURVE",
"182 383 CURVE SMOOTH"
);
}
);
width = 353;
}
);
unicode = F15A;
},
{
glyphname = uniF15B;
layers = (
{
layerId = "EBF4EA88-05C0-40D0-B291-B170F4B137C3";
name = Regular;
paths = (
{
closed = 1;
nodes = (
"0 362 LINE",
"300 362 LINE",
"273 56 LINE",
"150 22 LINE",
"27 56 LINE"
);
},
{
closed = 1;
nodes = (
"243 289 LINE",
"244 300 LINE",
"150 300 LINE",
"56 300 LINE",
"57 289 LINE",
"66 186 LINE",
"150 186 LINE",
"196 186 LINE",
"192 137 LINE",
"150 126 LINE",
"150 126 LINE",
"108 137 LINE",
"105 167 LINE",
"85 167 LINE",
"68 167 LINE",
"73 108 LINE",
"150 87 LINE",
"150 87 LINE",
"227 108 LINE",
"227 115 LINE",
"236 213 LINE",
"237 224 LINE",
"227 224 LINE",
"150 224 LINE",
"100 224 LINE",
"97 262 LINE",
"150 262 LINE",
"240 262 LINE",
"241 262 LINE",
"241 270 LINE"
);
}
);
width = 300;
}
);
unicode = F15B;
},
{
glyphname = uniF15C;
layers = (
{
layerId = "EBF4EA88-05C0-40D0-B291-B170F4B137C3";
name = Regular;
paths = (
{
closed = 1;
nodes = (
"337 370 LINE SMOOTH",
"349 370 OFFCURVE",
"355 364 OFFCURVE",
"355 353 CURVE SMOOTH",
"355 337 LINE SMOOTH",
"355 326 OFFCURVE",
"349 320 OFFCURVE",
"337 320 CURVE SMOOTH",
"17 320 LINE SMOOTH",
"6 320 OFFCURVE",
"0 326 OFFCURVE",
"0 337 CURVE SMOOTH",
"0 353 LINE SMOOTH",
"0 364 OFFCURVE",
"6 370 OFFCURVE",
"17 370 CURVE SMOOTH"
);
},
{
closed = 1;
nodes = (
"337 64 LINE SMOOTH",
"349 64 OFFCURVE",
"355 58 OFFCURVE",
"355 47 CURVE SMOOTH",
"355 31 LINE SMOOTH",
"355 20 OFFCURVE",
"349 14 OFFCURVE",
"337 14 CURVE SMOOTH",
"17 14 LINE SMOOTH",
"6 14 OFFCURVE",
"0 20 OFFCURVE",
"0 31 CURVE SMOOTH",
"0 47 LINE SMOOTH",
"0 58 OFFCURVE",
"6 64 OFFCURVE",
"17 64 CURVE SMOOTH"
);
},
{
closed = 1;
nodes = (
"355 133 LINE SMOOTH",
"355 122 OFFCURVE",
"349 116 OFFCURVE",
"337 116 CURVE SMOOTH",
"139 116 LINE SMOOTH",
"127 116 OFFCURVE",
"121 122 OFFCURVE",
"121 133 CURVE SMOOTH",
"121 149 LINE SMOOTH",
"121 160 OFFCURVE",
"127 166 OFFCURVE",
"139 166 CURVE SMOOTH",
"337 166 LINE",
"337 166 LINE",
"349 166 OFFCURVE",
"355 160 OFFCURVE",
"355 149 CURVE SMOOTH"
);
},
{
closed = 1;
nodes = (
"355 234 LINE SMOOTH",
"355 223 OFFCURVE",
"349 217 OFFCURVE",
"337 217 CURVE SMOOTH",
"139 217 LINE SMOOTH",
"127 217 OFFCURVE",
"121 223 OFFCURVE",
"121 234 CURVE SMOOTH",
"121 250 LINE SMOOTH",
"121 255 OFFCURVE",
"123 260 OFFCURVE",
"127 263 CURVE",
"130 266 OFFCURVE",
"134 268 OFFCURVE",
"139 268 CURVE SMOOTH",
"337 268 LINE",
"337 268 LINE",
"342 268 OFFCURVE",
"346 266 OFFCURVE",
"350 263 CURVE",
"353 260 OFFCURVE",
"355 255 OFFCURVE",
"355 250 CURVE SMOOTH"
);
},
{
closed = 1;
nodes = (
"0 193 OFFCURVE",
"0 193 OFFCURVE",
"1 194 CURVE",
"1 195 LINE",
"65 231 LINE",
"66 232 OFFCURVE",
"66 232 OFFCURVE",
"67 232 CURVE SMOOTH",
"69 232 OFFCURVE",
"70 231 OFFCURVE",
"70 229 CURVE SMOOTH",
"70 155 LINE SMOOTH",
"70 153 OFFCURVE",
"69 152 OFFCURVE",
"67 152 CURVE SMOOTH",
"66 152 OFFCURVE",
"66 152 OFFCURVE",
"65 153 CURVE",
"2 189 LINE",
"1 189 OFFCURVE",
"0 190 OFFCURVE",
"0 192 CURVE SMOOTH"
);
}
);
width = 355;
}
);
unicode = F15C;
},
{
glyphname = uniF15D;
layers = (
{
layerId = "EBF4EA88-05C0-40D0-B291-B170F4B137C3";
name = Regular;
paths = (
{
closed = 1;
nodes = (
"337 370 LINE SMOOTH",
"349 370 OFFCURVE",
"355 364 OFFCURVE",
"355 353 CURVE SMOOTH",
"355 337 LINE SMOOTH",
"355 326 OFFCURVE",
"349 320 OFFCURVE",
"337 320 CURVE SMOOTH",
"17 320 LINE SMOOTH",
"6 320 OFFCURVE",
"0 326 OFFCURVE",
"0 337 CURVE SMOOTH",
"0 353 LINE SMOOTH",
"0 364 OFFCURVE",
"6 370 OFFCURVE",
"17 370 CURVE SMOOTH"
);
},
{
closed = 1;
nodes = (
"337 64 LINE SMOOTH",
"349 64 OFFCURVE",
"355 58 OFFCURVE",
"355 47 CURVE SMOOTH",
"355 31 LINE SMOOTH",
"355 20 OFFCURVE",
"349 14 OFFCURVE",
"337 14 CURVE SMOOTH",
"17 14 LINE SMOOTH",
"6 14 OFFCURVE",
"0 20 OFFCURVE",
"0 31 CURVE SMOOTH",
"0 47 LINE SMOOTH",
"0 58 OFFCURVE",
"6 64 OFFCURVE",
"17 64 CURVE SMOOTH"
);
},
{
closed = 1;
nodes = (
"355 133 LINE SMOOTH",
"355 122 OFFCURVE",
"349 116 OFFCURVE",
"337 116 CURVE SMOOTH",
"138 116 LINE SMOOTH",
"127 116 OFFCURVE",
"121 122 OFFCURVE",
"121 133 CURVE SMOOTH",
"121 149 LINE SMOOTH",
"121 160 OFFCURVE",
"127 166 OFFCURVE",
"138 166 CURVE SMOOTH",
"337 166 LINE SMOOTH",
"349 166 OFFCURVE",
"355 160 OFFCURVE",
"355 149 CURVE SMOOTH"
);
},
{
closed = 1;
nodes = (
"355 234 LINE SMOOTH",
"355 223 OFFCURVE",
"349 217 OFFCURVE",
"337 217 CURVE SMOOTH",
"138 217 LINE SMOOTH",
"127 217 OFFCURVE",
"121 223 OFFCURVE",
"121 234 CURVE SMOOTH",
"121 250 LINE SMOOTH",
"121 262 OFFCURVE",
"127 268 OFFCURVE",
"138 268 CURVE SMOOTH",
"337 268 LINE SMOOTH",
"342 268 OFFCURVE",
"346 266 OFFCURVE",
"350 263 CURVE",
"353 260 OFFCURVE",
"355 255 OFFCURVE",
"355 250 CURVE SMOOTH"
);
},
{
closed = 1;
nodes = (
"1 152 OFFCURVE",
"0 153 OFFCURVE",
"0 155 CURVE SMOOTH",
"0 229 LINE SMOOTH",
"0 231 OFFCURVE",
"1 232 OFFCURVE",
"3 232 CURVE SMOOTH",
"4 232 OFFCURVE",
"4 232 OFFCURVE",
"5 231 CURVE",
"68 195 LINE",
"69 195 OFFCURVE",
"70 194 OFFCURVE",
"70 192 CURVE SMOOTH",
"70 191 OFFCURVE",
"70 191 OFFCURVE",
"69 190 CURVE",
"69 189 LINE",
"5 153 LINE",
"4 152 OFFCURVE",
"4 152 OFFCURVE",
"3 152 CURVE SMOOTH"
);
}
);
width = 355;
}
);
unicode = F15D;
},
{
glyphname = uniF15E;
layers = (
{
layerId = "EBF4EA88-05C0-40D0-B291-B170F4B137C3";
name = Regular;
paths = (
{
closed = 1;
nodes = (
"93 365 OFFCURVE",
"139 384 OFFCURVE",
"192 384 CURVE SMOOTH",
"245 384 OFFCURVE",
"291 365 OFFCURVE",
"328 328 CURVE SMOOTH",
"365 291 OFFCURVE",
"384 245 OFFCURVE",
"384 192 CURVE SMOOTH",
"384 139 OFFCURVE",
"365 93 OFFCURVE",
"328 56 CURVE SMOOTH",
"291 19 OFFCURVE",
"245 0 OFFCURVE",
"192 0 CURVE SMOOTH",
"139 0 OFFCURVE",
"93 19 OFFCURVE",
"56 56 CURVE SMOOTH",
"19 93 OFFCURVE",
"0 139 OFFCURVE",
"0 192 CURVE SMOOTH",
"0 245 OFFCURVE",
"19 291 OFFCURVE",
"56 328 CURVE SMOOTH"
);
},
{
closed = 1;
nodes = (
"212 209 LINE SMOOTH",
"212 214 OFFCURVE",
"210 216 OFFCURVE",
"205 216 CURVE SMOOTH",
"179 216 LINE SMOOTH",
"174 216 OFFCURVE",
"172 214 OFFCURVE",
"172 209 CURVE SMOOTH",
"172 85 LINE SMOOTH",
"172 81 OFFCURVE",
"174 79 OFFCURVE",
"179 79 CURVE SMOOTH",
"205 79 LINE SMOOTH",
"210 79 OFFCURVE",
"212 81 OFFCURVE",
"212 85 CURVE SMOOTH"
);
},
{
closed = 1;
nodes = (
"180 246 OFFCURVE",
"185 244 OFFCURVE",
"192 244 CURVE SMOOTH",
"199 244 OFFCURVE",
"204 246 OFFCURVE",
"209 251 CURVE SMOOTH",
"213 255 OFFCURVE",
"215 260 OFFCURVE",
"215 267 CURVE SMOOTH",
"215 274 OFFCURVE",
"213 279 OFFCURVE",
"209 284 CURVE",
"204 288 OFFCURVE",
"199 290 OFFCURVE",
"192 290 CURVE SMOOTH",
"185 290 OFFCURVE",
"180 288 OFFCURVE",
"176 284 CURVE SMOOTH",
"171 279 OFFCURVE",
"169 274 OFFCURVE",
"169 267 CURVE SMOOTH",
"169 260 OFFCURVE",
"171 255 OFFCURVE",
"176 251 CURVE"
);
}
);
width = 384;
}
);
unicode = F15E;
},
{
glyphname = uniF15F;
layers = (
{
layerId = "EBF4EA88-05C0-40D0-B291-B170F4B137C3";
name = Regular;
paths = (
{
closed = 1;
nodes = (
"108 320 LINE",
"50 59 LINE",
"49 51 OFFCURVE",
"44 47 OFFCURVE",
"37 47 CURVE SMOOTH",
"12 47 LINE",
"4 48 OFFCURVE",
"0 53 OFFCURVE",
"0 60 CURVE SMOOTH",
"0 63 LINE",
"0 63 LINE",
"58 324 LINE",
"58 333 OFFCURVE",
"62 337 OFFCURVE",
"71 337 CURVE SMOOTH",
"95 337 LINE SMOOTH",
"104 337 OFFCURVE",
"108 333 OFFCURVE",
"108 324 CURVE SMOOTH"
);
}
);
width = 108;
}
);
unicode = F15F;
},
{
glyphname = uniF160;
layers = (
{
layerId = "EBF4EA88-05C0-40D0-B291-B170F4B137C3";
name = Regular;
paths = (
{
closed = 1;
nodes = (
"445 218 LINE",
"445 186 LINE SMOOTH",
"445 183 OFFCURVE",
"444 180 OFFCURVE",
"443 179 CURVE SMOOTH",
"442 178 OFFCURVE",
"439 177 OFFCURVE",
"436 177 CURVE SMOOTH",
"409 177 LINE",
"408 177 LINE",
"408 116 LINE",
"408 77 LINE SMOOTH",
"408 71 OFFCURVE",
"405 68 OFFCURVE",
"399 68 CURVE SMOOTH",
"398 68 LINE",
"367 68 LINE SMOOTH",
"360 68 OFFCURVE",
"357 71 OFFCURVE",
"357 77 CURVE SMOOTH",
"357 98 LINE",
"357 177 LINE",
"332 177 LINE",
"332 151 LINE",
"332 112 LINE SMOOTH",
"332 106 OFFCURVE",
"329 103 OFFCURVE",
"322 103 CURVE SMOOTH",
"291 103 LINE",
"290 103 LINE SMOOTH",
"284 103 OFFCURVE",
"281 106 OFFCURVE",
"281 112 CURVE SMOOTH",
"281 128 LINE",
"281 151 LINE",
"281 177 LINE",
"236 177 LINE",
"231 149 OFFCURVE",
"217 126 OFFCURVE",
"196 107 CURVE SMOOTH",
"174 88 OFFCURVE",
"148 78 OFFCURVE",
"119 78 CURVE SMOOTH",
"86 78 OFFCURVE",
"58 90 OFFCURVE",
"35 113 CURVE SMOOTH",
"12 136 OFFCURVE",
"0 164 OFFCURVE",
"0 197 CURVE SMOOTH",
"0 230 OFFCURVE",
"12 258 OFFCURVE",
"35 281 CURVE SMOOTH",
"58 304 OFFCURVE",
"86 316 OFFCURVE",
"119 316 CURVE SMOOTH",
"146 316 OFFCURVE",
"171 308 OFFCURVE",
"192 291 CURVE SMOOTH",
"213 274 OFFCURVE",
"227 253 OFFCURVE",
"234 227 CURVE",
"397 227 LINE",
"409 227 LINE",
"436 227 LINE SMOOTH",
"439 227 OFFCURVE",
"441 226 OFFCURVE",
"443 224 CURVE SMOOTH",
"444 223 OFFCURVE",
"445 221 OFFCURVE",
"445 218 CURVE"
);
},
{
closed = 1;
nodes = (
"84 135 OFFCURVE",
"100 128 OFFCURVE",
"119 128 CURVE SMOOTH",
"138 128 OFFCURVE",
"155 135 OFFCURVE",
"168 148 CURVE SMOOTH",
"181 161 OFFCURVE",
"187 177 OFFCURVE",
"187 196 CURVE SMOOTH",
"187 215 OFFCURVE",
"181 231 OFFCURVE",
"168 244 CURVE SMOOTH",
"155 257 OFFCURVE",
"138 264 OFFCURVE",
"119 264 CURVE SMOOTH",
"100 264 OFFCURVE",
"84 257 OFFCURVE",
"71 244 CURVE SMOOTH",
"58 231 OFFCURVE",
"51 215 OFFCURVE",
"51 196 CURVE SMOOTH",
"51 177 OFFCURVE",
"58 161 OFFCURVE",
"71 148 CURVE SMOOTH"
);
}
);
width = 445;
}
);
unicode = F160;
},
{
glyphname = uniF161;
layers = (
{
layerId = "EBF4EA88-05C0-40D0-B291-B170F4B137C3";
name = Regular;
paths = (
{
closed = 1;
nodes = (
"60 101 LINE SMOOTH",
"53 101 OFFCURVE",
"47 104 OFFCURVE",
"42 109 CURVE SMOOTH",
"37 114 OFFCURVE",
"34 120 OFFCURVE",
"34 127 CURVE SMOOTH",
"34 353 LINE SMOOTH",
"34 360 OFFCURVE",
"37 366 OFFCURVE",
"42 371 CURVE SMOOTH",
"47 376 OFFCURVE",
"53 378 OFFCURVE",
"60 378 CURVE SMOOTH",
"428 378 LINE SMOOTH",
"435 378 OFFCURVE",
"441 376 OFFCURVE",
"446 371 CURVE SMOOTH",
"451 366 OFFCURVE",
"453 360 OFFCURVE",
"453 353 CURVE SMOOTH",
"453 127 LINE SMOOTH",
"453 120 OFFCURVE",
"451 114 OFFCURVE",
"446 109 CURVE SMOOTH",
"441 104 OFFCURVE",
"435 101 OFFCURVE",
"428 101 CURVE SMOOTH"
);
},
{
closed = 1;
nodes = (
"85 327 LINE",
"85 152 LINE",
"403 152 LINE",
"403 327 LINE"
);
},
{
closed = 1;
nodes = (
"476 76 LINE SMOOTH",
"479 76 OFFCURVE",
"481 75 OFFCURVE",
"484 72 CURVE SMOOTH",
"487 69 OFFCURVE",
"488 67 OFFCURVE",
"488 64 CURVE SMOOTH",
"488 36 LINE SMOOTH",
"488 33 OFFCURVE",
"487 30 OFFCURVE",
"484 27 CURVE SMOOTH",
"466 9 LINE SMOOTH",
"464 7 OFFCURVE",
"461 6 OFFCURVE",
"458 6 CURVE SMOOTH",
"28 6 LINE SMOOTH",
"25 6 OFFCURVE",
"23 7 OFFCURVE",
"20 10 CURVE SMOOTH",
"3 28 LINE SMOOTH",
"1 30 OFFCURVE",
"0 33 OFFCURVE",
"0 36 CURVE SMOOTH",
"0 64 LINE SMOOTH",
"0 67 OFFCURVE",
"1 69 OFFCURVE",
"4 72 CURVE SMOOTH",
"7 75 OFFCURVE",
"9 76 OFFCURVE",
"12 76 CURVE SMOOTH"
);
},
{
closed = 1;
nodes = (
"288 47 LINE SMOOTH",
"288 48 OFFCURVE",
"287 49 OFFCURVE",
"286 49 CURVE SMOOTH",
"202 49 LINE SMOOTH",
"200 49 OFFCURVE",
"199 48 OFFCURVE",
"199 47 CURVE SMOOTH",
"199 35 LINE SMOOTH",
"199 33 OFFCURVE",
"200 32 OFFCURVE",
"202 32 CURVE SMOOTH",
"286 32 LINE SMOOTH",
"287 32 OFFCURVE",
"288 33 OFFCURVE",
"288 35 CURVE SMOOTH"
);
}
);
width = 488;
}
);
unicode = F161;
},
{
glyphname = uniF162;
layers = (
{
layerId = "EBF4EA88-05C0-40D0-B291-B170F4B137C3";
name = Regular;
paths = (
{
closed = 1;
nodes = (
"76 173 LINE",
"76 292 LINE",
"305 292 LINE",
"305 173 LINE"
);
},
{
closed = 1;
nodes = (
"82 92 LINE",
"82 148 LINE",
"139 148 LINE",
"139 92 LINE"
);
},
{
closed = 1;
nodes = (
"246 92 LINE",
"246 148 LINE",
"303 148 LINE",
"303 92 LINE"
);
},
{
closed = 1;
nodes = (
"164 92 LINE",
"164 148 LINE",
"221 148 LINE",
"221 92 LINE"
);
},
{
closed = 1;
nodes = (
"358 368 LINE SMOOTH",
"365 368 OFFCURVE",
"370 366 OFFCURVE",
"375 362 CURVE",
"379 357 OFFCURVE",
"381 352 OFFCURVE",
"381 345 CURVE SMOOTH",
"381 38 LINE",
"380 32 OFFCURVE",
"378 27 OFFCURVE",
"374 23 CURVE SMOOTH",
"369 18 OFFCURVE",
"364 16 OFFCURVE",
"358 16 CURVE SMOOTH",
"23 16 LINE",
"23 16 LINE SMOOTH",
"17 16 OFFCURVE",
"12 18 OFFCURVE",
"8 23 CURVE",
"3 27 OFFCURVE",
"1 32 OFFCURVE",
"0 38 CURVE",
"0 345 LINE SMOOTH",
"0 352 OFFCURVE",
"2 357 OFFCURVE",
"7 362 CURVE SMOOTH",
"11 366 OFFCURVE",
"16 368 OFFCURVE",
"23 368 CURVE SMOOTH"
);
},
{
closed = 1;
nodes = (
"330 67 LINE",
"330 317 LINE",
"51 317 LINE",
"51 67 LINE"
);
}
);
width = 381;
}
);
unicode = F162;
},
